<?xml version="1.0" encoding="UTF-8" standalone="no"?>
<svg
   width="230"
   zoomAndPan="magnify"
   viewBox="0 0 172.43242 172.5"
   height="230"
   preserveAspectRatio="xMidYMid"
   version="1.0"
   id="svg25"
   sodipodi:docname="favicon-chemins-de-traverse.svg"
   inkscape:version="1.4 (1:1.4+202410161351+e7c3feb100)"
   xmlns:inkscape="http://www.inkscape.org/namespaces/inkscape"
   xmlns:sodipodi="http://sodipodi.sourceforge.net/DTD/sodipodi-0.dtd"
   xmlns="http://www.w3.org/2000/svg"
   xmlns:svg="http://www.w3.org/2000/svg">
  <sodipodi:namedview
     id="namedview25"
     pagecolor="#ffffff"
     bordercolor="#666666"
     borderopacity="1.0"
     inkscape:showpageshadow="2"
     inkscape:pageopacity="0.0"
     inkscape:pagecheckerboard="0"
     inkscape:deskcolor="#d1d1d1"
     inkscape:zoom="1.8438287"
     inkscape:cx="146.16325"
     inkscape:cy="103.04645"
     inkscape:window-width="1920"
     inkscape:window-height="935"
     inkscape:window-x="0"
     inkscape:window-y="32"
     inkscape:window-maximized="1"
     inkscape:current-layer="svg25" />
  <defs
     id="defs12">
    <clipPath
       id="451554ce10">
      <path
         d="M 0.3125,0 H 841.52734 V 595 H 0.3125 Z m 0,0"
         clip-rule="nonzero"
         id="path1" />
    </clipPath>
    <clipPath
       id="5b8a32bb4d">
      <path
         d="m 120.50391,30.535156 h 493.6289 V 524.16406 h -493.6289 z m 0,0"
         clip-rule="nonzero"
         id="path2" />
    </clipPath>
    <clipPath
       id="f68f549cd1">
      <path
         d="m 367.32031,30.535156 c -136.3125,0 -246.8164,110.503904 -246.8164,246.816404 0,136.3125 110.5039,246.8125 246.8164,246.8125 136.3086,0 246.8125,-110.5 246.8125,-246.8125 0,-136.3125 -110.5039,-246.816404 -246.8125,-246.816404 z m 0,0"
         clip-rule="nonzero"
         id="path3" />
    </clipPath>
    <clipPath
       id="e8ddf0d851">
      <path
         d="M 417,139 H 536 V 269 H 417 Z m 0,0"
         clip-rule="nonzero"
         id="path4" />
    </clipPath>
    <clipPath
       id="16efbb554e">
      <path
         d="m 416.98828,194.875 71.64844,-92.375 94.73828,73.48828 -71.64844,92.37109 z m 0,0"
         clip-rule="nonzero"
         id="path5" />
    </clipPath>
    <clipPath
       id="67db118f28">
      <path
         d="m 416.98828,194.875 71.64844,-92.375 94.73828,73.48828 -71.64844,92.37109 z m 0,0"
         clip-rule="nonzero"
         id="path6" />
    </clipPath>
    <clipPath
       id="1dd3754d56">
      <path
         d="M 312,243 H 441 V 363 H 312 Z m 0,0"
         clip-rule="nonzero"
         id="path7" />
    </clipPath>
    <clipPath
       id="92d907f9ab">
      <path
         d="m 312.02344,269.20312 91.49218,-72.76953 74.63282,93.83985 -91.49219,72.76562 z m 0,0"
         clip-rule="nonzero"
         id="path8" />
    </clipPath>
    <clipPath
       id="fedfaac1ee">
      <path
         d="m 312.02344,269.20312 91.49218,-72.76953 74.63282,93.83985 -91.49219,72.76562 z m 0,0"
         clip-rule="nonzero"
         id="path9" />
    </clipPath>
    <clipPath
       id="c64dddd750">
      <path
         d="M 186,322 H 315 V 438 H 186 Z m 0,0"
         clip-rule="nonzero"
         id="path10" />
    </clipPath>
    <clipPath
       id="72f7666b61">
      <path
         d="m 185.63672,322.96484 111.65625,-34.625 35.51172,114.51953 -111.65625,34.625 z m 0,0"
         clip-rule="nonzero"
         id="path11" />
    </clipPath>
    <clipPath
       id="38c188ea82">
      <path
         d="m 185.63672,322.96484 111.65625,-34.625 35.51172,114.51953 -111.65625,34.625 z m 0,0"
         clip-rule="nonzero"
         id="path12" />
    </clipPath>
  </defs>
  <path
     fill="#4b7041"
     d="m 1.431601,109.19095 67.941087,11.76607 -49.444763,48.74425 c 4.308438,-19.64731 6.542216,-39.39794 -18.496324,-60.51032 z m 0,0"
     fill-opacity="1"
     fill-rule="nonzero"
     id="path22"
     style="stroke-width:0.528998" />
  <path
     fill="#acc44d"
     d="M 55.722476,73.16433 123.30401,59.48478 94.90758,122.84466 C 91.79558,102.97211 86.71224,83.75668 55.722476,73.16433 Z m 0,0"
     fill-opacity="1"
     fill-rule="nonzero"
     id="path19"
     style="stroke-width:0.528998" />
  <path
     fill="#e0ff69"
     d="M 109.61619,33.79945 172.0338,4.5 159.45564,72.78205 C 151.72318,54.2134 142.23221,36.7482 109.61619,33.79945 Z m 0,0"
     fill-opacity="1"
     fill-rule="nonzero"
     id="path16"
     style="stroke-width:0.528998" />
</svg>
