<?xml version="1.0" encoding="UTF-8"?>
<!-- Created with Inkscape (http://www.inkscape.org/) -->
<svg width="274.48" height="212.38" version="1.1" viewBox="0 0 274.48 212.38" xmlns="http://www.w3.org/2000/svg" xmlns:xlink="http://www.w3.org/1999/xlink">
 <defs>
  <clipPath id="clipPath31">
   <path transform="matrix(7.0343 0 0 7.0343 -16209 -7018.8)" d="m2346 1072.1h628.12v562.5h-628.12z" clip-rule="evenodd"/>
  </clipPath>
 </defs>
 <path transform="matrix(.045492 0 0 .045492 -6.6537 -20.039)" d="m4697.4 2159.7c-8.7002-28.1-19.4-55.6-30.1-83.1-11.7-30.2-22.3-61-37.1-89.7-25.7-49.9-53.5-98.6-81.6-147.2-21.6-37.4-38.2-76.4-48-118.5-2.1001-8.8001-0.8999-18.1 2.8999-26.3 15.6-33.3 20.4-67.9 7.7998-103.1-6-16.8-14.2-32.9-22.3-48.8-17.9-35-36.6-69.7-60.7-101-40.9-53.2-81.6-106.5-122.3-159.9-19.9-26.1-18.2-56.5 5.8999-78.8 10.8-10.1 23.9-18 36.8-25.5 23.5-13.6 51.2-21.1 71.3-39.3 99.8-90.3 141.5-197.8 148.5-218.5 21.2-62.4 41.9-124.9 62.6-187.5 8.3999-25.5 12-51.8 8.8999-78.6-2.1001-18.5-5.6001-37.4-22.5-48.8-31.3-21.1-60.9-21.5-90.6 8.1-18.4 18.3-30.5 40.6-40.6 64.1-31.9 74.7-78.5 138.5-140.8 190.7-11.2 9.4-21.9 19.4-35.5 31.5 3-10.8 5.6001-18.3 7.1001-26 7.8999-42 15.1-84.2 23.2-126.2 6.6001-34.7 16-68.3 34.2-99.4 13.7-23.3 23.7-48.8 34.5-73.7 6.5-15 0.5-28.4-9.2002-40-9.5-11.2-22.5-8.3-33.9-5.2-32.4 8.8-56.2 28.1-70.7 59.1-14.3 30.4-31.4 59.5-53.4 85-39.8 45.9-80.3 91.2-121.2 136.1-33.7 37-61.7 77.9-87.9 120.2-13.8 22.3-22.7 46.8-27.3 72.7-3.5 19.4-7.3999 38.8-11.3 59.4-2.6001-4.8001-19.7-26.9-25.3-34.5-4.5-6.1-8.6001-11.6-17.5-9.4001-2.1001 0.5-3.3999 2.7-2.8001 4.8 5.7 20.4 16.9 38.4 28.5 59.7-23.9-16.2-32.7-41.7-51.3-58.6-2.8999-2.7001-7.6001-0.2001-7.3001 3.6999 0.2 2.6 0.8001 5.1 1.8999 7.3001 4.8999 9.6999 11.3 18.7 16.7 28.3 6.1999 11.2 17.8 19.6 18.7 33.8-3.1999-3-6.6001-5.8001-9.3999-9.2-11.9-14.2-23-29-35.5-42.6-5.6001-6.0999-10.6-13.6-18.6-17.7-4.1001-2.1-9 1.4-8.3999 5.9 2.5 18 16.8 30.9 22.9 48.9-11.2-5.5999-18.4-15.7-28.5-21.5-7.3999-4.3-16.4 2-15 10.4 3.2 18.9 10 49.1 15.1 61.1 2 4.8001 3.7 9.7 7 18.1-17.9-11.9-31.2-26.6-47.3-36.2-11-6.5-24.9 1.9-23.9 14.7 1.5 19.7 5.6001 44.9 7.3999 50.6-23.7-11.9-52.2 7.1999-75.7 1-4-1.1-7.6001 2.9-6.1999 6.8 3.3 9.3001 13.2 21.2 18.1 26.8 2 2.3 1.6001 6.6 3 12.9-26.2-13.1-51-15.6-77.3-9.4-3.8999 0.9-5 5.8-1.8999 8.3 5.5 4.3001 11.2 8.8001 18.2 14.2-20.2-1.9-37-3.5-54.4-5.2-5.8001 7.3001 10.6 14.3 1.1999 23-8.3-4.4-16.8-8.8-25-13.1-1.5 1.6999-2.6999 2.5-2.8 3.4-0.3001 2.8-0.3999 5.6999-0.1001 8.6 1.8999 21.2 0.1999 24.1-19.5 32.6-5.6001 2.4001-11.1 4.9001-16.6 7.3001 2.6999 9.1 8.3999 9.3 14.3 10 5.7 0.6999 11.2 2.3 18.3 3.8-11.2 6.7-22.1 10.2-27.8 17.6-5.6999 7.5-6.3 19-8.8999 28-19.5 3.6-35.6-4.6-52.7-12.3-6.6001-3-11.8 6.1999-5.8999 10.3 8.8999 6.2 19 10.4 24.9 19.7-10.2-1.1-19.3-0.5-27.2-3.2-16-5.6-28.1 0.7-35.5 12.9-13.8 22.8-34.4 34.8-58.3 43.7-26.4 9.9-52.5 20.6-79 31.1-0.3001 3.5-0.7 7-0.8001 10.4-0.6001 16-0.6001 15.9-16.2 21.3-5.5 1.9-11.1 3.5-16.1 6.3001-6.8001 3.8-15.1 6.5-16.8 17.2 5.3001 2.5 10.5 5 16.4 7.8001-2.3 1-3.3999 2-4.3 1.9-21.6-3.3001-43.1-6.9-64.7-10-9.1001-1.3001-18.4-2.4-27.6-2-3.5 0.1-8.6999 3.9-9.8 7.1-1.1001 3.5 1 8.6999 3.1999 12.3 1.6001 2.6 5.8999 3.5 8.6001 5.6 8.5 6.6 16.5 13.6 20.4 24.4-16-8.4-32.5-6.8-48.9-4.8-16.8 2-18.9 4.6999-15.1 22.1 1.6001 7.1-2.1001 14.3-8.8 17.2-3.1001 1.3-5.8001 3.5-9 4.7-41.7 16.4-85.5 23.6-129.6 27.7-43.8 4.1-87.7 6.6-131.6 8.7-26.5 1.3-53.2 1.5-79.7 0.4-47.4-2-94.7-5.9-142.1-7.8001-46.8-1.9-92.6 5.5-136 22.8-59 23.6-117.5 48.7-175.4 74.9-62.3 28.2-126.5 50.7-192.7 67.6-61.8 15.7-124.7 24-188.2 27.8-71.2 4.2-142.1-1.5-212.6-11.4-38.1-5.4-76-13.3-113.6-21.6-41.1-9.1-82.2-18.6-122.5-30.4-58.7-17.2-116.8-36.4-175-55.4-27.5-9-54.3-19.8-81.7-29.1-29.5-10-59.6-18.5-88.9-29.1-36-13-73.3-22-110.8-26.3-42.3-4.8001-85.4-4.3001-127.7 5.1-57.8 12.8-113.8 31.3-167 57-36.4 17.6-72.4 36.3-107.1 57-22.2 13.2-41.7 30.9-62.3 46.8-32.7 25.1-63.1 52.4-89 84.8-26.5 33.1-49.5 68.2-67.2 106.9-24.3 53.3-43.3 108.5-62 163.8-20.4 60-30.3 122.2-38 184.7-2.1 17.2 18.3 603.8 19.6 620.9 2.1 28.1-0.5 55.2-7.6 82.4-6.9 26.5-10.8 52.9 1.4 79.8 3.8 8.3999 2.5 21-0.60001 30.4-8 24.1-17 48-27.9 70.8-16.2 33.9-34.2 67-43.7 103.7-1.1 4.1001-1.4 8.4-2.5 14.6 37.8-7.8999 67.9-25.8 96.3-48.4-11.5 23.5-32.4 41.3-38.1 70.7 13.2-5 25.7-6.6001 34-13.4 31-25.4 58.8-53.9 77-90.5 13.5-27.1 23.2-55.5 30.4-84.7 11.6-47 9.4-92.9-11.8-137.3-8-16.7-15.8-33.4-22.7-50.6-3.8-9.3999-8.2-19.9-7.4-29.6 4-49.1-0.10001-663.4 19.4-708.1 0.4-0.8 1.9-1.1001 3.4-1.8999 0.79998 1.3 1.9 2.5 2.2 3.8999 9 43.8 25.4 85.3 40.5 127.2 18.5 51.5 37.6 102.7 64.2 150.7 26.3 47.5 46.9 98.1 59.8 150.8 8.6 35.2 16.2 70.6 19 106.8 2.1 27.7 4.5 55.5 4.3 83.2-0.29999 28.8-1.5 57.9-6 86.3-6.8 42.9-22.2 83.7-36.2 124.7-26.1 76.3-66.1 143.5-124.2 200-25 24.3-32.1 56.1-27.2 89.6 2.8 19.2 9.1 38.2 15.8 56.6 20.3 55.3 43.7 109.6 55.8 167.7 9.8 46.9 26.1 92.4 31.5 140.4 2.9 25.8 8.4 51.3 12.1 77.1 5 34.9 11.2 69.8 13.6 104.9 3.4 50.2 4.6 100.5 5.2 150.8 0.40002 34.1-1.8 68.2-3.1 102.3-0.79999 21.4-2.5 42.7-2.8 64.1-0.29998 24.6 19.3 32.4 39.4 28.6 6.7-1.2998 13.3-3.5 21.4-5.7002 7.1 10.8 14.5 21 20.8 31.9 10.4 17.6 21.2 34.5 40.2 44.2 0.70002 0.3999 0.79999 2 1.9 4.7998-18.3 15.3-28.1 36-32.2 60.3-1.9 11.2-1.1 20.1 5.4 29.3 7.8 11 18.2 17.8 30.9 20.9 10.1 2.3999 20.5 3.7998 30.8 4.8999 29.9 3.2998 59.8 6.6001 89.7 9.2998 31.8 2.8999 63.6 3.7002 95.1-2.7002 27.6-5.6001 39.2-24.7 33.2-52.4-7.1-32.5-23.4-60.2-43.6-85.9-22.5-28.6-45.9-56.5-68.2-85.3-13.8-17.8-26.5-36.5-30.7-59.5-4.3-23.3-7.8-46.8-13.6-69.7-16.1-63.2-33.6-126.1-49.8-189.3-7.2-27.9-13-56.3-18.8-84.5-8.9-42.8-5.7-86.5-9-129.7-1.4-19.1-0.20001-38.4-0.20001-60.5 13.4 20.8 25.8 38.3 36.4 56.7 25.6 44.7 50.8 89.5 75.2 134.8 24.5 45.3 48.6 90.8 53.8 143.6 0.90003 9.5 3.3 20.7 13.3 27.2 5.4 3.5 0.29999 56.1-6.5 77.9-6.8 21.7-1.3 35.9 19.1 45.3 5.1 2.2998 11 3.2002 16.6 3.7998 9.2 0.8999 28.1 4.5 47.9 0.3999 1.8 1.7002 3.7 2.6001 4.2 4 9.8 27.8 19.8 55.5 28.7 83.6 1.4 4.5-0.9 11.5-3.8 15.8-6.2 9-13.8 17.1-20.9 25.4-7.3 8.5-9.4 17.9-6.8 29 4 17.5 13.9 30.8 29.1 39.3 13 7.2998 26.9 13.8 41.1 18.1 22.1 6.7998 44.6 12.2 67.3 16.9 34.5 7.2002 69.2 14 104.8 12 28.8-1.6001 41.6-16.9 34-44.8-5-18.3-13.1-35.7-20.3-53.3-15.9-38.9-37.3-74.4-66-105.3-13.4-14.5-25-30.5-30.4-49.9-4.5-16.2-9.3001-32.2-13.2-48.5-16.2-68.5-42.1-133.3-73.8-195.9-17.8-35.1-37-69.4-54.5-104.6-22.9-46.1-43.9-93.2-67.1-139.1-20.8-41.1-34.8-84.2-45.1-129-6.2-27.1-3.9-53 6.9-78 21.2-49 48.6-94.7 78.1-139 24.4-36.5 53.1-69.8 76.8-107.1 4.1-6.5 7.8-13 11.2-19.6 100.3-108.1 128.9-190.3 136.3-236.9 20 10.8 34.5 16.6 34.5 16.6 10.1 9.7 22.5 16.9 37.4 21.8 9.3001 3 18.2 7.5 27 11.8 36.2 18 72.2 36.7 108.6 54.3 38.6 18.6 77.9 35.1 119.4 46.7 88.1 24.6 177.6 36.9 269.1 35.1 57.4-1.1001 114.1-8 170.3-19.1 66-13.1 129.8-33.3 190.7-62.4 29.2-14 58.6-27.5 88-41.3 25.2-11.9 51.1-21.1 78.9-25.5 27.6-4.3001 29.4-4.5 47 17.3 2.8999 3.6001 5.3 7.6001 7.8 11.5 16.1 24.7 24 52.5 30.9 80.6 11 44.6 14.1 90.3 14.7 136 0.8 54.4 1 108.8-0.1001 163.2-0.3999 20-2.8999 40.6-8.3001 59.8-8.1001 28.9-19.4 56.8-29.7 85-8 21.7-9.6001 112.3-9.6001 128.7 0 30.9 4.8 61 10.8 91.1 2.3999 12.3 4.3001 25.2 3.7 37.7-0.8999 17.3-3.7 34.5-7.1001 51.5-10.6 53.9-22.9 107.4-32.7 161.4-8.5 47-16 94.2-35.2 138.4-1 2.2998-2.5 6.2002-3.2 8.6001-4.3999 14-4.3 16.2 7.8001 22.5 9.6999 5.1001 20.2 8.7002 29.9 13.7 17.6 9.2002 31.4 21.6 32.6 43.3 0.5 9.2002 1.6999 18.4 2.8 27.6 3.6001 29.7 12.4 56.6 40.1 73.2 0.8999 0.6001 1 2.7002 1.5 4.2998-43.7 0.2002-51.3 11.7-76.5 40.3-7.5 8.5-11 21.6-13.5 33.2-3.5 16.3 3.3999 29.3 17.9 38.1 14.9 9 31.3 11.6 48.2 12.5 62 3.2002 123.7-0.3999 185.4-5.2998 9.1001-0.7002 18.3-3.2002 26.9-6.3999 14.1-5.2002 21.4-18.5 18-33.2-2.6001-11.2-6.5-22.2-11.1-32.7-6.2-14.3-14.8-27.6-20.3-42.1-4-10.5-8.6-23.1-6.1999-33.2 6-25.3-0.8001-45.4-16.9-64.1-24-28.1-34.4-60.5-32.8-97.7 1.6001-38.1 0.1001-76.4 1.2-114.6 1.3999-50.3 3.1001-100.6 6.6001-150.8 1.8-27 8.1999-53.6 18.5-79.1 11.9-29.5 24-58.9 33.9-89.1 6.6001-20.2 10.6-41.4 13.9-62.5 5.1001-33.1 7.8999-66.6 13.1-99.8 6-38.8 14.2-77.3 20-116.2 4-27.2 12.3-52.7 24-77.5 33.4-71.2 69.1-141.5 91.4-217.3 0.7-2.3 2.3-4.3 4.8999-9.1001 1.3999 17.7 2.1001 32 3.8999 46.2 4.3999 35.6 10.8 70.9 13.7 106.6 4.1001 50.9 15.1 100.5 24.9 150.4 4.1999 21.4 5.3999 42.2-0.1001 63.4-5.5 21.2-11.2 42.4-16.1 63.8-6.8001 29.8-8 59.6 1.8999 89.1 5.8999 17.5 12 35 18.1 52.5 17.8 51 22.9 103.6 20 157.3-3.3999 61.8-7 123.6-8.7 185.5-1 35.2 1.7 70.6 2.8001 105.9 0.6999 21.4 0.6001 42.9 3 64.1 1.1999 10.4 6.1001 21 11.5 30.3 7.3 12.4 20.6 16.8 34.6 13 10.3-2.7998 20.4-6.7002 32.3-10.6 5.8999 11.8 12.3 24.6 18.6 37.5 16.4 33.1 35 64.7 64.6 89.5-3.5 3.2002-7.1999 6-10.3 9.2998-30.4 33-22.4 75.1 18.4 94.1 10.3 4.7998 21.8 8.1001 33.1 10 34.8 5.7002 69.6 11.4 104.6 15.2 22.4 2.3999 45.1 3.1001 67.6 1.8999 32.9-1.7998 45.9-22.9 35.1-53.5-1-2.7002-2.1001-5.3999-3.3-8-10.1-21.4-20.2-42.9-30.4-64.3-18.3-38.1-47.7-68-74.9-99.4-20.1-23.3-40.1-46.9-50.9-76-12.3-33-24.8-66.2-33.4-100.3-16.1-63.9-29.9-128.3-43.5-192.7-4.2-20.2-7.6001-42.2 0.1999-61.8 13.9-34.6 21.6-70.7 30.2-106.6 6.6001-27.5 13-54.9 13.4-83.7 0.6001-46.1-9.6001-90.8-14.9-136.1-2.2-18.4-6.2-36.6-6.7-55-0.8999-37.5-1.5-75.2 0.7-112.7 2.3999-42.1 6.8999-84.3 19.9-124.7 11.3-35.2 23.8-70.1 37.2-104.5 17.6-45.4 33.9-91.1 40.5-139.5 5.3001-38.3 19.9-71.7 45.2-101.2 26.7-31.2 53.2-62.7 77.1-96 31.2-43.3 56.2-89.9 69.4-142.6 11-43.7 33.3-82.2 64.5-115.4 41.9-44.7 83.1-90.2 124.6-135.3 23.5-25.5 47.3-50.8 70.5-76.6 39.5-43.8 78.8-87.8 118-131.8 21.9-24.6 43.3-49.6 65.7-73.8 9.7-10.4 21.3-18.9 32.7-28.8 19.2 29.1 51 45.2 86.1 54.8 36.7 10.1 73.9 18.8 111.2 26.7 11.7 2.5 20.5 7.1001 27.2 16.4 3.6999 5.1001 7.6001 10.2 11.2 15.5 13.2 19.5 31.1 32.5 53.7 38.9 21.1 6 42.1 12.7 63.5 17.3 16.5 3.5 28.3 11.3 37.2 25.6 19.8 32 42 62.2 67.8 89.8 59.9 64 132.9 102.9 219.2 116.9 6.2998 1 13.1 0.3999 19.5-0.5 18.2-2.7 34.9-11.5 47.7-24.6 24.3-24.9 48.1-50.5 76.9-70.4 4.7002-3.2 8.7002-7.7 12.3-12.1 12.8-15.7 25.6-31.4 37.8-47.5 13.7-17.9 20.6-38.8 23-60.9 2.1021-27.698-1.7983-54.198-9.6982-79.698z" clip-path="url(#clipPath31)" fill="#555049"/>
 <path d="m67.344 196.5c-0.55995-0.22517-1.2175-0.93427-1.4611-1.5758-0.72079-1.8976-0.50939-7.2197 0.51333-12.923l0.95637-5.3332-1.1824-2.7884c-0.65035-1.5336-1.1819-3.4187-1.1812-4.189 7.1e-4 -0.77033-0.57273-2.7953-1.2743-4.5-3.7004-8.9911-4.2582-12.129-3.4702-19.524 0.27715-2.601 0.20802-3.7362-0.30144-4.95-0.76195-1.8153-2.7635-4.3174-3.9714-4.9644-1.311-0.70226-2.5014 0.94457-2.804 3.8789-0.37147 3.6026-1.8304 6.2711-4.4899 8.2129-1.2412 0.90621-7.3966 6.8114-13.679 13.123l-11.422 11.475-0.86152 3.0986c-0.47383 1.7042-1.192 3.6034-1.5958 4.2203-0.53527 0.81769-0.65417 1.6245-0.4386 2.9764 0.41454 2.5998 1.3198 3.7697 3.3375 4.3135 2.1866 0.58934 4.1061 2.0728 4.1061 3.1733 0 1.4448-1.742 2.2428-4.8962 2.2428-3.4354 0-8.5703-0.81362-9.4159-1.492-0.32994-0.26468-1.2882-1.8494-2.1295-3.5215-1.7891-3.556-3.0616-4.8865-4.6734-4.8865-0.64017 0-1.61-0.31276-2.1553-0.69502-1.2458-0.87341-3.7045-4.4129-3.7045-5.3329 0-1.2356 2.5705-3.6603 5.0223-4.7376 9.6998-4.262 11.039-5.3824 13.952-11.674 6.0011-12.96 6.4842-13.62 12.729-17.402 4.4518-2.6959 6.5108-4.6135 6.5108-6.0635 0-1.6038-1.322-6.9981-2.6455-10.795-0.73335-2.1038-1.4791-4.8375-1.6572-6.075-0.1781-1.2375-1.0227-3.87-1.8768-5.85-3.7729-8.7461-4.6158-10.949-5.0808-13.275-0.27207-1.3612-0.63939-3.0825-0.81626-3.825l-0.32158-1.35-1.102 2.25c-1.3926 2.8433-1.7152 8.1459-0.74887 12.311 0.55269 2.3825 0.56546 3.0603 0.0763 4.05-0.32313 0.65377-0.80602 1.7531-1.0731 2.443-0.40649 1.0501-0.62438 1.18-1.3378 0.79783-0.67888-0.36366-1.1949-0.18399-2.5365 0.88312-0.9263 0.73682-1.9307 1.3397-2.2321 1.3397-0.30134 0-1.4581-0.69566-2.5706-1.5459-1.9001-1.4522-3.5015-3.8737-3.5015-5.2946 0-0.34622-0.20982-0.83952-0.46628-1.0962-0.67601-0.67664 0.15183-2.5535 1.5229-3.4527 1.4291-0.93726 3.6042-4.09 4.2502-6.1606 0.27026-0.86625 0.69702-4.0862 0.94834-7.1555l0.45694-5.5805-1.7693-1.7187c-2.3668-2.299-4.0872-5.9076-5.6275-11.804-1.4052-5.3791-1.4984-5.4826-5.9389-6.5952-1.1549-0.28939-2.1066-0.85756-2.4208-1.4452-0.76908-1.4384-0.30418-19.96 0.54529-21.725 0.45014-0.93495 1.2588-1.5359 2.8151-2.0922 1.201-0.42924 2.2994-0.89633 2.4409-1.038 0.14152-0.14165-0.069-0.94256-0.46791-1.7798-0.69221-1.4529-0.68052-1.5825 0.25661-2.8458 0.54001-0.72794 3.3196-3.7967 6.1768-6.8195 3.992-4.2234 5.6576-5.6677 7.1933-6.2377 1.6239-0.60273 4.1018-0.76212 13.224-0.85065 10.099-0.098 11.284-0.18805 11.801-0.89689 1.097-1.5017 0.39601-3.3159-1.2812-3.3159-0.66391 0-0.71641-0.21424-0.35839-1.4625 0.2307-0.80438 0.40003-3.3318 0.37629-5.6165-0.0364-3.5019 0.10727-4.3977 0.91512-5.706 1.2112-1.9616 3.5606-4.0361 5.9565-5.2595 3.9464-2.0152 11.851-0.53778 16.052 3 1.4052 1.1835 1.805 1.2151 4.6541 0.36788 0.56572-0.16823 0.78676 0.02 0.78676 0.66981 0 0.49707-0.22543 1.0432-0.50096 1.2137-0.29576 0.18296-0.40795 1.0039-0.2739 2.0043 0.15647 1.1677 0.0128 1.9089-0.46228 2.3844-0.52486 0.52535-0.66797 1.577-0.59981 4.4077 0.0492 2.0448 0.2581 4.0193 0.46414 4.3878 0.25081 0.44858 0.0904 0.9037-0.48532 1.377-0.51832 0.42614-1.027 1.6902-1.2803 3.182-0.84568 4.9787-1.2349 5.7862-2.9438 6.1071-0.85458 0.16047-1.8605 0.17395-2.2354 0.03-0.37492-0.144-1.2068-0.062-1.8488 0.18232-1.5253 0.58046-1.2757 1.5985 1.4934 6.0896l2.0982 3.4031 0.16784 5.6636c0.16408 5.5367-0.70133 14.92-1.7265 18.72-0.57759 2.1407-0.28492 2.5318 3.0934 4.1328 2.4966 1.1832 8.449 2.9219 10.003 2.9219 1.224 0 7.045-5.664 7.6232-7.4176 0.55751-1.6908 1.5576-2.2235 3.336-1.7768 1.3155 0.33048 1.3634 0.60322 0.64954 3.6987-0.47432 2.0568-0.42186 2.4087 0.70184 4.7076 0.70363 1.4395 1.2254 3.2807 1.2406 4.3772 0.0225 1.6299-0.23235 2.1562-1.8358 3.7914-1.7686 1.8038-1.8835 2.089-2.2948 5.6966-0.797 6.9916-2.6564 31.514-3.8194 50.373-1.1241 18.227-1.9178 28.638-2.9863 39.172-0.28993 2.8583-0.39111 5.7395-0.22485 6.4025 0.16626 0.66307 1.5021 2.4894 2.9686 4.0585 2.6093 2.792 2.7459 2.8701 6.3933 3.6546 4.1709 0.89711 6.8552 2.0907 7.2977 3.2448 0.38486 1.0038-0.0647 1.263-4.9052 2.8274-5.6091 1.8129-7.5908 2.0277-10.565 1.1452-4.1677-1.2366-5.5194-1.2811-7.4504-0.2452-1.8682 1.0022-5.8139 1.2441-7.7295 0.47382zm12.907-53.309c0.98561-13.86 2.1991-32.085 2.6966-40.5 0.49752-8.415 1.0015-16.552 1.1199-18.082l0.21528-2.7819-1.9429-0.94141c-3.0269-1.4666-7.662-2.2537-13.303-2.2588l-5.1702-5e-3 -1.1239 1.6464c-2.0726 3.0362-2.3453 4.2136-2.7434 11.847-0.21296 4.0838-0.51078 8.366-0.66181 9.516-0.31366 2.3883 0.69538 5.1701 2.8863 7.9572 1.8709 2.3801 3.2031 5.2052 2.9362 6.2266-0.13948 0.53386 0.40261 1.9468 1.3714 3.5747 0.88114 1.4806 2.2212 4.3899 2.9779 6.4653 0.75669 2.0754 1.9686 4.4491 2.693 5.275 1.6534 1.8849 1.6838 2.0484 1.9466 10.485 0.13517 4.3396 0.82289 11.396 1.8202 18.675 0.88161 6.435 1.6289 12.004 1.6606 12.375 0.19313 2.261 1.0489-7.3614 2.6215-29.475z" stroke="#fff" stroke-width="2.3"/>
 <g stroke="#fff" stroke-width="2">
  <path d="m255 138.99c-0.0264-0.0231-0.39231-1.0077-0.81315-2.1879-4.7537-13.332-9.3474-21.348-16.208-28.286-7.6364-7.7221-18.953-13.094-32.808-15.574-1.4896-0.2666-2.7128-0.51897-2.7182-0.56081-5e-3 -0.0418 4.0936-1.7087 9.1089-3.7042 28.379-11.291 57.851-23.034 59.714-23.792 1.1784-0.47952 2.1704-0.84827 2.2046-0.81944 0.0342 0.02883-4.099 16.908-9.1849 37.509-5.0858 20.601-9.2686 37.438-9.295 37.415z" fill="#e0ff69"/>
  <path d="m179.19 186.89c-1.9155-13.233-4.8143-22.147-9.7071-29.85-6.0197-9.4774-15.983-17.089-29.424-22.476-1.522-0.61014-2.7482-1.1239-2.7248-1.1418 0.0234-0.0178 5.3166-0.98194 11.763-2.1425 6.4461-1.1605 23.308-4.2037 37.47-6.7625s25.818-4.6604 25.901-4.6702c0.11629-0.0137-32.32 68.742-32.79 69.506-0.0587 0.0954-0.27852-1.0126-0.48837-2.4624z" fill="#b8d846"/>
  <path d="m88.274 211.4c-0.0045-0.0232 0.39128-1.2625 0.87955-2.754 1.9444-5.9396 3.5664-12.597 4.206-17.264 0.84809-6.188 0.72991-11.572-0.37995-17.309-1.1339-5.8614-2.7649-10.25-5.8521-15.747-2.7052-4.8165-5.8846-9.1999-10.022-13.817-1.0594-1.1823-1.8892-2.1568-1.8441-2.1656 0.04516-9e-3 13.543 3.8541 29.994 8.5841 42.682 12.272 43.219 12.427 43.364 12.526 0.11092 0.0763-10.046 8.1582-54.488 43.357-3.2168 2.5477-5.8524 4.6132-5.8569 4.5901z" fill="#4b7041"/>
 </g>
</svg>
