<svg xmlns="http://www.w3.org/2000/svg" width="270.067" height="375.412" viewBox="0 0 270.067 375.412"><path d="M.25 129.544V.251h269.46v258.587H.25Z" style="display:inline;fill:#0061ae;fill-opacity:1;stroke:#fff;stroke-width:.501006;stroke-dasharray:none;stroke-opacity:1"/><path d="M.274 316.269v-58.893h269.543V375.16H.275Z" style="display:inline;fill:#009fa0;fill-opacity:1;stroke:#fff;stroke-width:.501082;stroke-dasharray:none;stroke-opacity:1"/><path d="M142.632 345.874c4.295-1.1 8.766-4.247 11.264-7.927 2.008-2.96 4.216-8.529 4.92-12.405l.176-.975-6.367-2.477c-3.502-1.362-6.467-2.477-6.59-2.477-.122 0-.38.883-.573 1.962-.94 5.266-2.976 8.955-5.729 10.38-1.36.703-3.945.813-5.668.24-1.733-.576-4.14-2.833-5.056-4.74-2.839-5.91-2.887-19.88-.09-25.863 2.62-5.603 8.807-7.24 13.243-3.504 1.156.974 2.629 4.048 3.038 6.342.189 1.053.37 1.915.403 1.915.219 0 13.218-3.809 13.308-3.9.182-.181-1.19-5.093-1.935-6.929-1.327-3.268-2.62-5.228-5.027-7.626-1.96-1.95-2.781-2.55-4.897-3.578-1.399-.68-3.395-1.439-4.437-1.687-2.543-.608-8-.61-10.517-.005-9.615 2.31-16.018 10.205-18.36 22.636-.802 4.259-.857 14.147-.101 18.283 2.05 11.22 8.067 19.346 16.263 21.96 1.19.38 2.895.796 3.787.924 2.281.327 6.544.065 8.945-.55zM61.56 314.668c4.97-17.013 9.092-31.087 9.161-31.275.1-.273-1.361-.329-7.106-.271l-7.232.072-5.094 18.782c-2.802 10.33-5.133 18.82-5.18 18.867-.046.046-2.327-7.857-5.07-17.564a9510 9510 0 0 0-5.36-18.934l-.375-1.286H20.944l.12.609c.067.335 4.187 14.408 9.157 31.274l9.036 30.665 6.634-.004 6.634-.004zm15.453 24.305 1.974-6.634h16.306l.714 2.234a2263 2263 0 0 1 2.102 6.634l1.387 4.4h14.612l-.192-.609c-.106-.335-4.68-14.347-10.164-31.137s-9.97-30.592-9.97-30.67-3.006-.11-6.678-.07l-6.678.073-9.81 30.868c-5.396 16.978-9.817 31.02-9.826 31.207-.012.262 1.584.338 7.117.338h7.132zm6.216-20.646c0-.429 3.66-12.52 3.794-12.521.077-.001.718 1.917 1.425 4.262.706 2.346 1.577 5.21 1.935 6.363l.65 2.099h-3.901c-2.146 0-3.903-.091-3.903-.203m88.988 26.283a738 738 0 0 1 1.955-6.634l1.68-5.637h16.334l.87 2.776a5396 5396 0 0 0 2.087 6.634l1.216 3.858h14.602l-.187-.609c-.104-.335-4.56-14.012-9.904-30.394a48098 48098 0 0 1-9.998-30.67l-.282-.885-6.648.073-6.648.072-9.832 30.998c-5.408 17.049-9.833 31.092-9.833 31.207 0 .114 3.22.208 7.156.208h7.157zm7.929-26.554c.69-2.616 3.622-12.251 3.73-12.252.076 0 .855 2.345 1.731 5.212l1.945 6.363.352 1.15h-3.942c-3.62 0-3.931-.038-3.816-.473m44.848 15.096v-12.456h20.29v-13.809h-20.29v-10.019h23.266V283.06h-36.794v62.548h13.528zM207.556 242.375c4.161-1.55 6.584-5.163 5.732-8.549-.397-1.578-1.513-2.65-4.555-4.373-2.825-1.599-3.272-2.239-2.701-3.857.573-1.626 1.537-2.248 3.497-2.26 1.307-.008 1.715.105 2.27.626.371.349.749.928.839 1.286s.32.651.514.651c.431 0 1.94-3.079 1.7-3.468-.353-.57-2.995-1.215-4.901-1.195-4.87.05-8.516 3.412-8.522 7.858 0 2.13 1.077 3.41 4.267 5.065 2.478 1.285 3.417 2.329 3.215 3.574-.412 2.542-3.406 4.023-5.968 2.952-1.046-.437-1.786-1.372-1.786-2.255q-.002-.615-.473-.612c-.33.003-.729.609-1.318 2.005l-.845 2 1.074.485c2.243 1.013 5.351 1.039 7.961.067m-157.05-4.697c.563-2.681 1.028-4.923 1.033-4.983s1.58-.038 3.5.047l3.49.155.178-.946c.098-.52.249-1.132.336-1.36.14-.363-.267-.39-3.398-.216-2.936.162-3.556.132-3.556-.177 0-.205.262-1.69.582-3.299l.582-2.925 2.191.16c1.205.087 2.813.222 3.574.3l1.382.14.163-.894c.089-.492.243-1.171.341-1.51l.179-.614-6.18.073-6.18.073-1.952 9.613a2556 2556 0 0 0-2.118 10.502l-.167.89 2.498-.077 2.5-.078zm12.699 1.895 1.713-3.114h7.375l.33 2.37a103 103 0 0 0 .47 3.113l.141.745h2.825c2.79 0 2.822-.007 2.682-.61-.078-.334-.993-4.569-2.033-9.409s-2.02-9.353-2.176-10.029l-.285-1.228-1.23.048c-.675.027-1.337.159-1.47.292-.28.279-13.235 20.67-13.235 20.83 0 .058.715.106 1.59.106h1.59zm3.559-5.89a289 289 0 0 0 1.962-3.13c.86-1.386 1.652-2.422 1.76-2.301.107.12.402 1.316.654 2.656.253 1.34.522 2.65.597 2.911.125.43-.12.474-2.617.474h-2.754zm17.008 6.838c.719-2.881 3.28-10.831 3.489-10.831.096 0 1.067 2.9 2.158 6.445l1.983 6.446.757-.111c.442-.065.948-.41 1.215-.827.965-1.51 8.844-12.506 8.91-12.434.093.1-.622 7.7-.958 10.18-.483 3.568-.68 3.298 2.395 3.298h2.664l.182-3.994c.1-2.197.423-6.857.717-10.357s.536-6.424.536-6.499-.655-.135-1.456-.135h-1.456l-1.893 2.725c-1.04 1.5-3.332 4.666-5.092 7.037l-3.2 4.312-.776-2.434c-.427-1.339-1.41-4.49-2.184-7.002l-1.408-4.568-1.4-.035-1.4-.035-1.682 4.874a692 692 0 0 1-3.665 10.28c-1.09 2.975-1.982 5.509-1.982 5.633s.683.188 1.52.144l1.52-.081zm31.353 2.052c0-.063.913-4.618 2.03-10.122 1.115-5.504 2.028-10.174 2.028-10.378 0-.287-.553-.371-2.43-.371h-2.429l-.277 1.354-2.139 10.492-1.862 9.139h2.54c1.396 0 2.54-.051 2.54-.114m17.636-1.367c.106-.74.164-1.373.13-1.407s-1.58.036-3.435.157c-1.856.12-3.425.174-3.488.12-.063-.055.702-4.15 1.7-9.102.998-4.95 1.81-9.062 1.805-9.137 0-.074-1.11-.135-2.456-.135-2.224 0-2.458.05-2.573.542-.814 3.47-4.074 20.186-3.96 20.3.084.085 2.837.12 6.119.08l5.966-.072zm10.75-8.47c1.105-5.473 2.057-10.195 2.116-10.492.101-.513-.029-.54-2.402-.507l-2.509.035-2.1 10.254c-1.154 5.64-2.103 10.346-2.108 10.458 0 .112 1.116.203 2.493.202h2.502zm4.65 9.206c.23-.41 1.016-1.813 1.75-3.118l1.332-2.375 3.652.073 3.652.073.356 2.437c.6 4.101.18 3.655 3.442 3.655 2.809 0 2.84-.007 2.696-.61-.164-.687-4.465-20.556-4.465-20.624 0-.239-2.576.147-2.828.423-.393.431-13.134 20.495-13.134 20.683 0 .07.705.128 1.565.128 1.426 0 1.602-.066 1.982-.745m4.893-8.258c.213-.335 1.098-1.742 1.968-3.126s1.667-2.42 1.771-2.301c.105.118.397 1.311.65 2.651.252 1.34.521 2.65.597 2.911.125.43-.121.474-2.617.474h-2.755zm27.255 7.61c.164-.767.26-1.432.214-1.478s-1.662.02-3.59.146c-1.928.127-3.521.213-3.54.192-.017-.022.802-4.121 1.823-9.11 1.02-4.99 1.857-9.132 1.86-9.207 0-.074-1.121-.12-2.495-.1l-2.5.035-2.08 10.245c-1.144 5.634-2.021 10.34-1.95 10.457.073.117 2.793.213 6.046.213h5.913zm15.545 1.055c.05-.187.207-.84.35-1.454l.26-1.114-3.605.137c-2.325.09-3.605.041-3.605-.134 0-.15.304-1.768.676-3.596s.676-3.386.676-3.462 1.644-.07 3.653.015l3.652.153v-.722c0-.397.08-1.008.174-1.358l.17-.636-3.594.199-3.594.199.154-.646c.085-.356.362-1.743.617-3.083s.56-2.545.68-2.678c.125-.14 1.609-.12 3.546.048 1.832.158 3.407.205 3.499.105s.242-.762.333-1.47l.165-1.285h-12.153l-.142.609c-.822 3.55-4.087 20.26-3.98 20.369.079.078 2.805.142 6.059.142 4.503 0 5.936-.08 6.005-.338zm-104.13-30.307c6.549-1.368 11.662-7.683 11.143-13.762-.19-2.22-.734-3.516-2.098-4.997-1.95-2.118-5.664-3.11-9.734-2.6-5.502.691-9.482 3.35-11.69 7.807-1.028 2.077-1.135 2.495-1.236 4.796-.184 4.227.95 6.437 4.101 7.99 2.572 1.267 5.852 1.53 9.514.766m-5.029-1.82c-3.11-1.015-4.158-4.703-2.7-9.507.834-2.748 1.734-4.437 3.078-5.781 3.625-3.624 9.01-2.927 10.169 1.315 1.217 4.462-1.691 11.38-5.631 13.392-1.221.623-3.838.933-4.916.581m30.324 2.006c.67-.084 1.777-.336 2.46-.56 1.083-.354 1.323-.579 1.872-1.751.346-.74.557-1.418.469-1.507-.09-.088-1.053.276-2.143.81-3.57 1.748-6.446 1.588-8.505-.475-1.46-1.462-1.91-3.333-1.476-6.13.536-3.457 1.772-5.865 4.074-7.937 2.876-2.588 6.552-2.776 8.872-.454.592.593 1.19 1.078 1.33 1.078.26 0 1.434-2.602 1.434-3.18 0-.361-2.954-1.294-4.925-1.555-1.645-.218-5.287.285-7.22.998-3.496 1.288-6.537 4.032-7.909 7.134-1.56 3.529-1.734 6.418-.541 8.943 1.265 2.676 3.715 4.217 7.474 4.703 1.598.206 2.322.188 4.734-.117m72.1-.325c3.328-.823 6.565-3.074 8.544-5.943 1.197-1.734 1.911-3.831 2.068-6.069.417-5.936-3.112-9.278-9.801-9.283-2.945-.002-4.795.4-7.314 1.591-4.778 2.26-7.701 6.824-7.701 12.023 0 4.597 2.864 7.574 7.806 8.114 2.187.24 4.24.1 6.397-.433m-5.657-1.704c-1.079-.345-2.522-1.805-2.89-2.924-.79-2.394.102-7.397 1.83-10.277 1.221-2.033 1.732-2.557 3.354-3.441 2.634-1.435 5.87-1.133 7.402.69 3.042 3.618.192 12.9-4.733 15.414-1.29.66-3.75.926-4.963.538m49.212 1.835c4.9-1.232 7.998-6.217 6.135-9.872-.567-1.113-1.275-1.666-4.573-3.579-2.65-1.535-3.077-2.478-1.96-4.313 1.436-2.357 5.715-2.087 6.338.4.24.958.63.694 1.599-1.082.834-1.53.84-1.564.316-1.958-1.494-1.124-5.544-1.353-7.913-.447-2.085.798-3.44 2.002-4.388 3.901-1.039 2.08-1.133 4.182-.252 5.628.71 1.166 1.038 1.43 3.076 2.479 3.52 1.811 4.255 2.805 3.514 4.748-.505 1.324-1.624 2.141-3.296 2.409-2.069.33-4.14-.916-4.14-2.492 0-.433-.156-.64-.482-.64-.44 0-.64.35-2.161 3.792-.134.302 1.95 1.146 3.319 1.344 1.48.215 3.192.103 4.868-.318m-205.207-3.061 1.756-3.111h7.369l.331 2.504c.546 4.12.18 3.724 3.432 3.724 2.783 0 2.815-.007 2.674-.61-.142-.604-4.467-20.59-4.467-20.641 0-.227-2.587.175-2.828.44-.394.43-13.134 20.494-13.134 20.683 0 .07.7.126 1.556.125l1.555-.003zm3.827-6.293c2.896-4.73 3.44-5.494 3.575-5.025.077.27.34 1.525.582 2.791.243 1.266.502 2.515.577 2.776.123.429-.124.474-2.61.474h-2.746zm96.57 6.296 1.713-3.114h7.4l.314 2.234c.173 1.228.383 2.63.467 3.114l.153.88h2.81c1.546 0 2.811-.051 2.811-.113 0-.098-4.116-19.149-4.453-20.609-.106-.461-.333-.545-1.421-.528l-1.295.02-6.696 10.5c-3.683 5.776-6.696 10.552-6.696 10.615s.716.115 1.59.115h1.59zm3.559-5.89c.219-.335 1.097-1.736 1.952-3.114s1.642-2.504 1.748-2.504.409 1.188.672 2.64.537 2.853.609 3.114c.118.429-.131.474-2.624.474h-2.755zm23.876 8.394c.12-.503 2.316-11.243 3.41-16.671l.29-1.441 1.803.168c.992.092 2.243.23 2.78.307.957.137.98.119 1.12-.893.08-.568.188-1.216.242-1.44.084-.352-.975-.415-8.095-.477-6.417-.056-8.213.002-8.296.27-.058.189-.18.871-.27 1.517-.164 1.166-.16 1.173.585 1.03.413-.08 1.734-.223 2.935-.318l2.184-.174-1.704 8.35c-.938 4.593-1.784 8.808-1.88 9.366l-.176 1.016h2.464c2.332 0 2.472-.033 2.608-.61m13.935.489c0-.066.913-4.594 2.029-10.06s2.029-10.135 2.028-10.372c0-.364-.385-.432-2.43-.432h-2.429l-.273 1.353c-.15.745-1.11 5.467-2.134 10.493l-1.861 9.139h2.535c1.394 0 2.535-.055 2.535-.121m35.971-7.23 1.478-7.215 2.27 2.883c1.248 1.585 3.734 4.862 5.524 7.282l3.255 4.4h1.452c.799 0 1.453-.09 1.453-.203 0-.111.914-4.687 2.03-10.168 1.115-5.482 2.027-10.117 2.027-10.3 0-.226-.416-.319-1.275-.284-1.537.06-1.269-.633-2.947 7.611l-1.28 6.287-.821-1.142c-.452-.628-2.876-3.792-5.387-7.031l-4.565-5.89h-3.165l-.327 1.557c-2.114 10.066-3.92 19.2-3.831 19.374.06.12.678.18 1.37.136l1.262-.082zm-147.067 6.606c.073-.26.21-.86.305-1.332l.173-.858-3.623.152-3.622.152 1.843-9.042c1.013-4.973 1.845-9.103 1.847-9.177.002-.075-1.118-.117-2.49-.095l-2.496.04-1.922 9.437c-1.058 5.19-2.001 9.833-2.098 10.317l-.175.88h6.063c5.542 0 6.073-.04 6.195-.474m15.942-.406c.08-.484.228-1.084.326-1.332.164-.414-.138-.439-3.533-.297l-3.713.156.19-.762c.177-.703 3.345-16.32 3.482-17.158.047-.29-.458-.372-2.316-.375-1.306-.003-2.434.054-2.505.126-.13.129-4.182 19.768-4.182 20.264 0 .155 2.401.258 6.052.258h6.051z" style="fill:#fff;fill-opacity:1"/><path d="M68.162 127.934c-6.485-3.977-9.343-5.794-10.106-6.424-.49-.403-1.307-1.504-1.817-2.446-.886-1.636-.928-1.838-.925-4.488v-2.775H17.026v17.059l26.31-.007 26.31-.006zm55.731.572c0-.194.37-.856.822-1.47l.821-1.119-1.295-.183c-1.915-.27-3.467-1.274-4.343-2.81l-.746-1.307-7.166 3.607-7.166 3.606 9.536.015c7.664.011 9.537-.055 9.537-.339m40.581-.665c-.967-.55-3.703-2.169-6.079-3.598l-4.32-2.598-.685 1.013c-1.304 1.931-3.175 2.952-5.41 2.952-.749 0-1.362.089-1.362.198s.266.84.591 1.624l.591 1.427 9.216-.009 9.217-.009zm88.944-7.579-.07-8.597H220.34l.088 1.01c.119 1.356-.57 3.592-1.567 5.081-2.025 3.03-3.78 4.275-12.183 8.637l-4.735 2.457 51.546.01z" style="fill:#bccae9;fill-opacity:1"/><path d="m124.369 173.07 4.99-2.564 4.324 2.57c3.566 2.12 4.518 2.57 5.426 2.57 1.232-.001 2.662-.748 3.139-1.64.172-.322.97-4.977 1.772-10.344.802-5.368 1.49-9.791 1.53-9.83.039-.039 3.237-1.774 7.105-3.857 4.1-2.207 7.586-4.273 8.358-4.954 2.488-2.195 3.583-6.049 2.474-8.706-1.338-3.204-5.03-4.845-8.751-3.89-1.42.363-10.67 5.095-19.697 10.073l-1.655.913-8.594-5.397c-9.219-5.79-10.157-6.216-12.816-5.832-2.916.42-5.97 2.58-7.269 5.14-.996 1.964-1.137 4.462-.354 6.284.326.76.92 1.679 1.317 2.044.399.366 3.281 2.289 6.406 4.274s5.768 3.682 5.875 3.771c.106.09-.412 4.344-1.15 9.456-.739 5.112-1.343 9.716-1.343 10.23 0 1.423.982 2.268 2.625 2.259 1.1-.006 2.059-.398 6.288-2.57m51.736-26.642 5.233-2.684 4.191 2.539c2.305 1.396 4.582 2.616 5.06 2.712 1.034.206 2.993-.637 3.543-1.523.195-.314 1.02-5.033 1.834-10.486.814-5.452 1.506-9.93 1.54-9.951.032-.02 3.335-1.794 7.34-3.94 4.763-2.553 7.667-4.278 8.4-4.99q2.343-2.28 2.535-5.595c.178-3.074-1.267-5.4-4.086-6.579-1.283-.536-4.387-.535-5.912.003-.651.23-5.527 2.736-10.836 5.57l-9.652 5.151-8.068-5.07c-4.438-2.789-8.556-5.293-9.15-5.564-.739-.336-1.738-.494-3.143-.498-1.826-.005-2.28.103-3.98.954-4.009 2.008-6.019 6.082-4.879 9.892.54 1.805 1.704 2.804 7.868 6.756 3.315 2.125 6.06 3.888 6.1 3.919.04.03-.538 4.23-1.285 9.331-1.514 10.343-1.571 11.105-.88 11.732.595.538 1.634.964 2.408.987.322.01 2.941-1.19 5.82-2.666m-96.499-.253 5.258-2.665 4.269 2.54c2.348 1.398 4.549 2.612 4.892 2.698.765.193 2.8-.553 3.44-1.26.357-.396.838-2.949 1.994-10.59l1.523-10.066 7.17-3.86c3.942-2.124 7.72-4.347 8.395-4.942 3.383-2.98 3.808-8.18.895-10.94-1.854-1.758-5.31-2.363-8.093-1.417-.691.235-5.592 2.745-10.892 5.578-7.241 3.872-9.738 5.087-10.048 4.891-11.399-7.182-16.58-10.34-17.412-10.613-1.682-.552-4.653-.272-6.447.608-5.034 2.466-6.898 8.621-3.684 12.162.488.538 3.435 2.603 6.548 4.59s5.782 3.693 5.93 3.791c.17.114-.254 3.79-1.166 10.103-1.155 7.997-1.374 10.055-1.127 10.598.325.713 1.653 1.431 2.681 1.449.339.006 2.982-1.189 5.874-2.655m58.76-7.76c3.308-1.632 5.257-4.42 5.453-7.798.135-2.34-.444-3.94-1.983-5.48-1.52-1.523-3.3-2.106-6.04-1.98-3.68.17-6.626 2.098-8.287 5.42-.814 1.63-.96 2.197-.955 3.715.02 5.993 5.9 9.041 11.813 6.123m-6.317-18.996 5.234-2.615 3.628 2.175c4.572 2.742 5.194 3.055 6.076 3.055.988 0 2.516-.768 3-1.508.244-.373.98-4.487 1.87-10.452 1-6.702 1.588-9.924 1.845-10.108.207-.15 3.446-1.916 7.198-3.926s7.35-4.116 7.996-4.68c.665-.578 1.535-1.743 2.004-2.682 1.398-2.801 1.05-6.087-.86-8.117-1.823-1.94-5.267-2.623-8.186-1.624-.893.305-5.867 2.824-11.054 5.597-5.465 2.923-9.6 4.977-9.836 4.887-.224-.086-4.077-2.456-8.561-5.266-4.485-2.81-8.628-5.261-9.207-5.447-2.709-.865-6.606.264-8.928 2.587-3.056 3.059-3.489 7.756-.954 10.35.454.465 3.343 2.45 6.42 4.413 3.079 1.962 5.743 3.705 5.923 3.873.253.237.028 2.362-1.01 9.512-1.667 11.485-1.66 11.181-.27 12.133 1.24.849 2.19.582 7.672-2.157m57.88-7.476c1.927-.883 3.934-2.746 4.928-4.574s1.25-4.778.569-6.563c-.543-1.423-1.94-2.925-3.49-3.751-.931-.497-1.57-.606-3.57-.607-2.077-.002-2.66.104-3.981.723-1.946.913-3.953 2.776-4.933 4.579-.918 1.687-1.203 4.232-.683 6.09.507 1.815 2.428 3.802 4.322 4.475 2.05.727 4.761.58 6.838-.372m-96.302-.406c2.188-1.025 3.902-2.694 4.934-4.807.642-1.313.781-1.943.774-3.505-.014-2.962-1.215-4.982-3.764-6.33-1.172-.62-1.677-.715-3.787-.715s-2.639.1-3.957.745c-2.229 1.093-3.873 2.667-4.84 4.634-2.32 4.717-.532 9.158 4.333 10.76 1.426.47 4.428.098 6.307-.782m-6.02-19.161 5.151-2.58 3.571 2.14c1.964 1.178 3.96 2.34 4.437 2.58 1.742.885 4.025.345 4.788-1.131.213-.413 1.026-5.071 1.808-10.353.78-5.281 1.552-9.74 1.713-9.91s3.456-1.996 7.321-4.061c7.602-4.061 8.974-5.082 10.118-7.527 1.718-3.675.633-7.39-2.692-9.218-1.28-.703-1.745-.807-3.635-.813-2.587-.007-2.784.08-15.386 6.834l-8.084 4.332-8.58-5.388c-9.575-6.014-10.274-6.317-13.163-5.711-4.171.876-7.18 3.896-7.808 7.837-.241 1.52.455 3.87 1.498 5.06.445.507 3.523 2.657 6.84 4.777l6.03 3.856-1.43 9.777c-.787 5.378-1.433 9.94-1.436 10.137 0 .198.35.716.785 1.15 1.363 1.365 2.247 1.17 8.154-1.788m96.82-.012 5.052-2.592 4.314 2.592c4.587 2.757 5.501 3.042 7.1 2.214 1.611-.834 1.619-.861 3.189-11.424.815-5.482 1.508-9.992 1.54-10.023s3.346-1.839 7.363-4.017c7.722-4.188 9.018-5.133 10.166-7.413.845-1.68 1.03-4.492.403-6.135-.897-2.35-3.838-4.204-6.67-4.204-1.927 0-4.22 1.022-13.637 6.077-5.208 2.796-9.591 5.09-9.74 5.098s-4.064-2.367-8.7-5.277c-6.062-3.804-8.82-5.384-9.819-5.624-3.826-.919-8.303 1.326-10.335 5.182-.496.941-.622 1.617-.628 3.364-.01 1.966.075 2.32.81 3.509.72 1.168 1.543 1.791 7.033 5.328 6.096 3.928 6.217 4.023 6.172 4.885-.025.484-.625 4.9-1.333 9.815-.758 5.267-1.21 9.239-1.1 9.674.23.91 1.33 1.538 2.719 1.553.808.008 2.215-.587 6.102-2.582m-38.341-7.529c6.6-3.16 7.637-11.686 1.785-14.675-1.775-.907-3.767-1.09-5.903-.542-4.457 1.143-7.574 4.892-7.574 9.11 0 2.894 1.235 4.885 3.851 6.209 1.587.803 1.841.85 3.994.748 1.797-.085 2.639-.271 3.847-.85m-5.999-19.233 5.017-2.566 4.265 2.54c2.346 1.395 4.617 2.615 5.048 2.71 1.204.265 3.143-.703 3.63-1.812.217-.493 1.025-5.222 1.796-10.509.77-5.287 1.416-9.623 1.435-9.635s3.32-1.78 7.337-3.927c8-4.275 9.148-5.136 10.348-7.76 1.719-3.758.334-7.722-3.246-9.29-1.71-.749-4.316-.806-6.153-.136-.67.245-5.55 2.758-10.844 5.586l-9.627 5.14-8.229-5.187c-4.526-2.853-8.655-5.372-9.176-5.598-.55-.238-1.766-.413-2.9-.416-1.713-.005-2.202.117-3.976.994-4.898 2.423-6.765 7.906-3.985 11.707.55.754 2.472 2.138 6.696 4.823 3.258 2.07 6.026 3.855 6.152 3.964.125.11-.412 4.61-1.193 10.003-1.028 7.095-1.352 10.001-1.172 10.521.318.919 1.868 1.733 2.949 1.55.446-.075 3.069-1.291 5.828-2.702m-39.484-7.34c4.118-1.44 7.107-5.762 6.65-9.62-.5-4.23-4.556-7.005-9.038-6.184-5.516 1.011-9.445 6.459-8.07 11.19 1.213 4.179 5.85 6.224 10.458 4.614m97.82-.55c7.637-3.714 7.269-14.03-.546-15.279-4.021-.642-8.383 1.652-10.366 5.453-.652 1.249-.755 1.76-.761 3.767-.01 2.116.066 2.438.812 3.647 2.195 3.557 6.53 4.52 10.861 2.413M153.98 31.088c4.583-2.26 6.819-7.259 5.058-11.306-.7-1.608-1.562-2.504-3.27-3.392-1.013-.527-1.627-.634-3.653-.634-2.075 0-2.663.107-3.982.726-2.047.96-4.088 2.912-5.01 4.791-.629 1.282-.746 1.866-.743 3.69.01 2.397.516 3.73 1.932 5.046 1.69 1.568 3.435 2.15 6.016 2.006 1.524-.085 2.394-.306 3.652-.927" style="fill:#fff;fill-opacity:1"/></svg>