<?xml version="1.0" encoding="UTF-8" standalone="no"?>
<!-- Created with Inkscape (http://www.inkscape.org/) -->

<svg
   version="1.1"
   id="svg1"
   width="629.68054"
   height="413.3483"
   viewBox="0 0 629.68055 413.34829"
   sodipodi:docname="logo-feader.svg"
   inkscape:version="1.4 (e7c3feb100, 2024-10-09)"
   xmlns:inkscape="http://www.inkscape.org/namespaces/inkscape"
   xmlns:sodipodi="http://sodipodi.sourceforge.net/DTD/sodipodi-0.dtd"
   xmlns="http://www.w3.org/2000/svg"
   xmlns:svg="http://www.w3.org/2000/svg">
  <defs
     id="defs1" />
  <sodipodi:namedview
     id="namedview1"
     pagecolor="#ffffff"
     bordercolor="#000000"
     borderopacity="0.25"
     inkscape:showpageshadow="2"
     inkscape:pageopacity="0.0"
     inkscape:pagecheckerboard="0"
     inkscape:deskcolor="#d1d1d1"
     inkscape:zoom="0.8790775"
     inkscape:cx="202.48499"
     inkscape:cy="255.95013"
     inkscape:window-width="1920"
     inkscape:window-height="1008"
     inkscape:window-x="0"
     inkscape:window-y="0"
     inkscape:window-maximized="1"
     inkscape:current-layer="g1">
    <inkscape:page
       x="0"
       y="0"
       inkscape:label="1"
       id="page1"
       width="629.68054"
       height="413.3483"
       margin="0"
       bleed="0" />
  </sodipodi:namedview>
  <g
     id="g1"
     inkscape:groupmode="layer"
     inkscape:label="1"
     transform="translate(126.62669,47.680443)">
    <g
       id="g117">
      <g
         id="g110"
         transform="translate(-141.05696,-8.5316712)">
        <path
           id="path2"
           d="m 14.430266,336.58654 v -19.08787 h 12.8776 v 2.252 h -10.3516 v 5.912 h 8.958267 v 2.252 h -8.958267 v 8.67187 h -2.526"
           style="fill:#254aa5;fill-opacity:1;fill-rule:nonzero;stroke:none;stroke-width:0.133333" />
        <path
           id="path3"
           d="m 31.825999,329.6736 c 0,1.77027 0.385467,3.0968 1.158934,3.97707 0.772399,0.8812 1.744799,1.32133 2.916666,1.32133 1.162933,0 2.130133,-0.44266 2.9036,-1.32813 0.771867,-0.88547 1.1588,-2.2344 1.1588,-4.04893 0,-1.71094 -0.388933,-3.00574 -1.165067,-3.88707 -0.7776,-0.8812 -1.743733,-1.32133 -2.897333,-1.32133 -1.171867,0 -2.144267,0.43853 -2.916666,1.31466 -0.773467,0.8776 -1.158934,2.20147 -1.158934,3.9724 z m -2.4088,0 c 0,-2.56146 0.710934,-4.45893 2.135467,-5.69066 1.189067,-1.02454 2.638,-1.53627 4.348933,-1.53627 1.901067,0 3.454667,0.62267 4.661467,1.868 1.205733,1.24533 1.809866,2.96667 1.809866,5.16253 0,1.78014 -0.266666,3.18014 -0.800533,4.2 -0.5344,1.02027 -1.311467,1.812 -2.330667,2.376 -1.020933,0.56414 -2.1344,0.84694 -3.340133,0.84694 -1.936,0 -3.501066,-0.62134 -4.693733,-1.86307 -1.194267,-1.24107 -1.790667,-3.0292 -1.790667,-5.36347"
           style="fill:#254aa5;fill-opacity:1;fill-rule:nonzero;stroke:none;stroke-width:0.133333" />
        <path
           id="path4"
           d="m 45.120266,336.58654 v -13.82787 h 2.109466 v 1.9664 c 1.0156,-1.51813 2.481733,-2.2784 4.400933,-2.2784 0.833334,0 1.599067,0.14933 2.298534,0.44933 0.697866,0.29894 1.221333,0.69214 1.568666,1.17854 0.3464,0.48546 0.590134,1.06253 0.7292,1.7308 0.086,0.43493 0.130267,1.1932 0.130267,2.27866 v 8.50254 h -2.343733 v -8.4104 c 0,-0.95627 -0.0912,-1.6692 -0.273467,-2.14267 -0.182267,-0.47347 -0.506267,-0.85107 -0.969867,-1.13227 -0.465066,-0.2824 -1.009333,-0.424 -1.634266,-0.424 -0.998534,0 -1.860534,0.31774 -2.5844,0.95107 -0.7256,0.63333 -1.0876,1.83587 -1.0876,3.60627 v 7.552 h -2.343733"
           style="fill:#254aa5;fill-opacity:1;fill-rule:nonzero;stroke:none;stroke-width:0.133333" />
        <path
           id="path5"
           d="m 61.513598,329.68654 c 0,1.7708 0.3724,3.0932 1.119734,3.9708 0.7464,0.8772 1.6276,1.31466 2.6432,1.31466 1.023466,0 1.8948,-0.4188 2.610933,-1.25626 0.716133,-0.83694 1.074,-2.1156 1.074,-3.8344 0,-1.89214 -0.364533,-3.2812 -1.093733,-4.16667 -0.7292,-0.88533 -1.6276,-1.32813 -2.695334,-1.32813 -1.041733,0 -1.912533,0.4256 -2.6104,1.27613 -0.699466,0.8504 -1.0484,2.19213 -1.0484,4.02387 z m 7.4088,6.9 v -1.74374 c -0.8776,1.37187 -2.166666,2.05734 -3.8672,2.05734 -1.102533,0 -2.1156,-0.30414 -3.040133,-0.912 -0.9244,-0.6068 -1.640533,-1.45627 -2.148933,-2.54534 -0.507333,-1.0896 -0.761467,-2.3416 -0.761467,-3.75626 0,-1.3812 0.2292,-2.63334 0.690134,-3.7572 0.459866,-1.124 1.149999,-1.98547 2.070266,-2.58387 0.919333,-0.60013 1.948,-0.8988 3.086,-0.8988 0.833333,0 1.575467,0.176 2.226533,0.52693 0.651067,0.35147 1.179734,0.8088 1.588534,1.3744 v -6.84933 h 2.3308 v 19.08787 h -2.174534"
           style="fill:#254aa5;fill-opacity:1;fill-rule:nonzero;stroke:none;stroke-width:0.133333" />
        <path
           id="path6"
           d="m 73.844265,332.46 2.317733,-0.36506 c 0.130133,0.92906 0.492133,1.64106 1.087467,2.13586 0.593733,0.49427 1.4256,0.7412 2.4932,0.7412 1.0756,0 1.875066,-0.2188 2.395866,-0.65733 0.5208,-0.43747 0.7812,-0.952 0.7812,-1.54267 0,-0.5292 -0.230133,-0.94693 -0.69,-1.25053 -0.321333,-0.2084 -1.119866,-0.47347 -2.395866,-0.7932 -1.7188,-0.43493 -2.909867,-0.80947 -3.574,-1.12707 -0.664,-0.3172 -1.168134,-0.7548 -1.5104,-1.31466 -0.343734,-0.55987 -0.514534,-1.17867 -0.514534,-1.85574 0,-0.61613 0.140534,-1.18693 0.423467,-1.712 0.2812,-0.52546 0.665067,-0.96146 1.152,-1.30933 0.364667,-0.26827 0.860933,-0.4964 1.4912,-0.6828 0.628667,-0.18667 1.303067,-0.28 2.0244,-0.28 1.0844,0 2.038,0.156 2.8584,0.468 0.820267,0.3136 1.425467,0.736 1.816133,1.2708 0.390667,0.53333 0.6588,1.248 0.807334,2.1412 l -2.291734,0.312 c -0.104133,-0.7104 -0.406266,-1.26667 -0.904666,-1.66667 -0.5,-0.3984 -1.204667,-0.5984 -2.116134,-0.5984 -1.076533,0 -1.8448,0.17707 -2.304666,0.53427 -0.460934,0.35627 -0.690134,0.77187 -0.690134,1.24947 0,0.30426 0.09533,0.5772 0.2864,0.81986 0.190134,0.25214 0.4896,0.45987 0.898534,0.62547 0.234266,0.0865 0.9244,0.28653 2.070266,0.59853 1.657867,0.44267 2.814,0.80574 3.470267,1.088 0.654667,0.2812 1.169333,0.69214 1.5428,1.23067 0.3724,0.53747 0.559867,1.2052 0.559867,2.00413 0,0.78134 -0.2276,1.5172 -0.683334,2.20787 -0.455733,0.6896 -1.1136,1.224 -1.972933,1.6016 -0.859333,0.37707 -1.831733,0.56667 -2.916667,0.56667 -1.796933,0 -3.166666,-0.37347 -4.107866,-1.1204 -0.9432,-0.74627 -1.5432,-1.85307 -1.8036,-3.31974"
           style="fill:#254aa5;fill-opacity:1;fill-rule:nonzero;stroke:none;stroke-width:0.133333" />
        <path
           id="path7"
           d="m 97.294798,328.34547 h 7.721332 c -0.10413,-1.16413 -0.39947,-2.036 -0.88547,-2.6172 -0.74733,-0.9032 -1.71453,-1.35467 -2.9036,-1.35467 -1.07653,0 -1.981729,0.35987 -2.714529,1.0812 -0.7344,0.71974 -1.1396,1.68387 -1.217733,2.89067 z m 7.695332,3.788 2.42187,0.3 c -0.3828,1.41453 -1.0896,2.51293 -2.1224,3.2948 -1.03387,0.7812 -2.35267,1.17187 -3.9584,1.17187 -2.023336,0 -3.626536,-0.624 -4.810936,-1.86934 -1.1848,-1.24533 -1.7776,-2.99213 -1.7776,-5.24013 0,-2.32653 0.599067,-4.13227 1.796934,-5.41707 1.197866,-1.2844 2.7516,-1.92693 4.661462,-1.92693 1.84894,0 3.35934,0.62947 4.5312,1.88787 1.17187,1.2588 1.75787,3.0296 1.75787,5.31186 0,0.13907 -0.005,0.34694 -0.0131,0.6256 H 97.164531 c 0.086,1.51867 0.515733,2.6828 1.289067,3.4896 0.7724,0.80774 1.736002,1.2104 2.890662,1.2104 0.85934,0 1.59267,-0.2256 2.20054,-0.676 0.6068,-0.45213 1.08853,-1.172 1.44533,-2.16253"
           style="fill:#254aa5;fill-opacity:1;fill-rule:nonzero;stroke:none;stroke-width:0.133333" />
        <path
           id="path8"
           d="m 119.4172,336.58654 v -2.03067 c -1.07654,1.56293 -2.53907,2.34427 -4.388,2.34427 -0.81614,0 -1.57814,-0.15734 -2.28547,-0.46934 -0.70773,-0.312 -1.2328,-0.70573 -1.57493,-1.17866 -0.34374,-0.47334 -0.58494,-1.052 -0.72294,-1.73747 -0.0964,-0.46147 -0.1432,-1.1896 -0.1432,-2.188 v -8.568 h 2.34374 v 7.6696 c 0,1.22387 0.0468,2.04893 0.1432,2.4744 0.14733,0.61613 0.45986,1.1 0.93746,1.45053 0.47654,0.35214 1.06774,0.52814 1.7708,0.52814 0.7032,0 1.362,-0.18014 1.9792,-0.54014 0.61614,-0.35986 1.05214,-0.85053 1.30894,-1.47186 0.2552,-0.62027 0.38373,-1.52134 0.38373,-2.70147 v -7.4092 h 2.34387 v 13.82787 h -2.0964"
           style="fill:#254aa5;fill-opacity:1;fill-rule:nonzero;stroke:none;stroke-width:0.133333" />
        <path
           id="path9"
           d="m 125.15933,336.58654 v -13.82787 h 2.10947 v 2.09613 c 0.538,-0.98026 1.03533,-1.62653 1.49106,-1.94013 0.45574,-0.312 0.9568,-0.468 1.50374,-0.468 0.78906,0 1.59266,0.252 2.4088,0.75453 l -0.80734,2.17494 c -0.57293,-0.33907 -1.14573,-0.50827 -1.71866,-0.50827 -0.51307,0 -0.9724,0.15467 -1.38027,0.46293 -0.4088,0.30787 -0.69893,0.736 -0.8724,1.28227 -0.2604,0.83333 -0.39067,1.74427 -0.39067,2.73493 v 7.23854 h -2.34373"
           style="fill:#254aa5;fill-opacity:1;fill-rule:nonzero;stroke:none;stroke-width:0.133333" />
        <path
           id="path10"
           d="m 135.60266,329.6736 c 0,1.77027 0.38534,3.0968 1.15867,3.97707 0.772,0.8812 1.744,1.32133 2.916,1.32133 1.16267,0 2.13067,-0.44266 2.904,-1.32813 0.772,-0.88547 1.15867,-2.2344 1.15867,-4.04893 0,-1.71094 -0.38934,-3.00574 -1.16534,-3.88707 -0.77733,-0.8812 -1.744,-1.32133 -2.89733,-1.32133 -1.172,0 -2.144,0.43853 -2.916,1.31466 -0.77333,0.8776 -1.15867,2.20147 -1.15867,3.9724 z m -2.40946,0 c 0,-2.56146 0.7108,-4.45893 2.13613,-5.69066 1.188,-1.02454 2.63733,-1.53627 4.348,-1.53627 1.90133,0 3.45467,0.62267 4.66133,1.868 1.20667,1.24533 1.81067,2.96667 1.81067,5.16253 0,1.78014 -0.26667,3.18014 -0.80133,4.2 -0.53334,1.02027 -1.31067,1.812 -2.33067,2.376 -1.02133,0.56414 -2.13333,0.84694 -3.34,0.84694 -1.936,0 -3.50133,-0.62134 -4.69333,-1.86307 -1.19467,-1.24107 -1.7908,-3.0292 -1.7908,-5.36347"
           style="fill:#254aa5;fill-opacity:1;fill-rule:nonzero;stroke:none;stroke-width:0.133333" />
        <path
           id="path11"
           d="m 151.01866,329.75067 c 0,1.78013 0.36,3.0948 1.08134,3.94533 0.72,0.852 1.592,1.276 2.61733,1.276 1.04133,0 1.93333,-0.44013 2.67467,-1.32133 0.74266,-0.88027 1.11333,-2.24533 1.11333,-4.0948 0,-1.76253 -0.36267,-3.08133 -1.08667,-3.9584 -0.72533,-0.8776 -1.59066,-1.31507 -2.59733,-1.31507 -0.99867,0 -1.88133,0.46667 -2.65067,1.4 -0.768,0.93227 -1.152,2.2896 -1.152,4.06827 z m -2.12266,12.13587 v -19.12787 h 2.136 v 1.7972 c 0.50266,-0.70267 1.072,-1.2308 1.70533,-1.58227 0.63333,-0.35093 1.40133,-0.52693 2.30533,-0.52693 1.17867,0 2.22134,0.304 3.124,0.91067 0.90267,0.60786 1.584,1.4652 2.04534,2.572 0.45866,1.10666 0.68933,2.31973 0.68933,3.64 0,1.41466 -0.25333,2.688 -0.76133,3.82133 -0.508,1.13187 -1.24667,2 -2.21334,2.60427 -0.96933,0.6036 -1.98533,0.9052 -3.05333,0.9052 -0.78133,0 -1.484,-0.1656 -2.10267,-0.4948 -0.62133,-0.3308 -1.132,-0.74694 -1.53066,-1.25054 v 6.73174 h -2.344"
           style="fill:#254aa5;fill-opacity:1;fill-rule:nonzero;stroke:none;stroke-width:0.133333" />
        <path
           id="path12"
           d="m 168.024,321.04 1.732,-3.64533 h 3.07333 L 169.964,321.04 Z m -2.52667,7.30547 h 7.72133 c -0.104,-1.16413 -0.39866,-2.036 -0.88533,-2.6172 -0.74667,-0.9032 -1.71467,-1.35467 -2.90267,-1.35467 -1.07733,0 -1.98266,0.35987 -2.71466,1.0812 -0.73467,0.71974 -1.14,1.68387 -1.21867,2.89067 z m 7.696,3.788 2.42133,0.3 c -0.38266,1.41453 -1.08933,2.51293 -2.12133,3.2948 -1.03467,0.7812 -2.35333,1.17187 -3.95867,1.17187 -2.024,0 -3.62666,-0.624 -4.812,-1.86934 -1.184,-1.24533 -1.77733,-2.99213 -1.77733,-5.24013 0,-2.32653 0.6,-4.13227 1.79733,-5.41707 1.19867,-1.2844 2.752,-1.92693 4.66134,-1.92693 1.84933,0 3.36,0.62947 4.532,1.88787 1.172,1.2588 1.75733,3.0296 1.75733,5.31186 0,0.13907 -0.005,0.34694 -0.0133,0.6256 h -10.312 c 0.0853,1.51867 0.516,2.6828 1.28933,3.4896 0.772,0.80774 1.73467,1.2104 2.89067,1.2104 0.85866,0 1.592,-0.2256 2.2,-0.676 0.60666,-0.45213 1.088,-1.172 1.44533,-2.16253"
           style="fill:#254aa5;fill-opacity:1;fill-rule:nonzero;stroke:none;stroke-width:0.133333" />
        <path
           id="path13"
           d="m 180.32933,328.34547 h 7.72133 c -0.10533,-1.16413 -0.4,-2.036 -0.88666,-2.6172 -0.74667,-0.9032 -1.71467,-1.35467 -2.90267,-1.35467 -1.07733,0 -1.98267,0.35987 -2.71467,1.0812 -0.73466,0.71974 -1.14,1.68387 -1.21733,2.89067 z m 7.69467,3.788 2.42133,0.3 c -0.38267,1.41453 -1.08933,2.51293 -2.12133,3.2948 -1.03467,0.7812 -2.35334,1.17187 -3.95867,1.17187 -2.024,0 -3.62667,-0.624 -4.812,-1.86934 -1.184,-1.24533 -1.77733,-2.99213 -1.77733,-5.24013 0,-2.32653 0.6,-4.13227 1.79733,-5.41707 1.19867,-1.2844 2.752,-1.92693 4.66133,-1.92693 1.84934,0 3.36,0.62947 4.532,1.88787 1.172,1.2588 1.75734,3.0296 1.75734,5.31186 0,0.13907 -0.005,0.34694 -0.0133,0.6256 h -10.312 c 0.0853,1.51867 0.516,2.6828 1.28934,3.4896 0.772,0.80774 1.73466,1.2104 2.89066,1.2104 0.85867,0 1.592,-0.2256 2.2,-0.676 0.60667,-0.45213 1.088,-1.172 1.44534,-2.16253"
           style="fill:#254aa5;fill-opacity:1;fill-rule:nonzero;stroke:none;stroke-width:0.133333" />
        <path
           id="path14"
           d="m 193.388,336.58654 v -13.82787 h 2.10933 v 1.9664 c 1.016,-1.51813 2.48267,-2.2784 4.40133,-2.2784 0.83333,0 1.59867,0.14933 2.29867,0.44933 0.69733,0.29894 1.22133,0.69214 1.56933,1.17854 0.34533,0.48546 0.58933,1.06253 0.72933,1.7308 0.0853,0.43493 0.12934,1.1932 0.12934,2.27866 v 8.50254 h -2.344 v -8.4104 c 0,-0.95627 -0.0907,-1.6692 -0.27334,-2.14267 -0.18133,-0.47347 -0.50666,-0.85107 -0.96933,-1.13227 -0.46533,-0.2824 -1.00933,-0.424 -1.63466,-0.424 -0.99867,0 -1.86,0.31774 -2.584,0.95107 -0.72534,0.63333 -1.088,1.83587 -1.088,3.60627 v 7.552 h -2.344"
           style="fill:#254aa5;fill-opacity:1;fill-rule:nonzero;stroke:none;stroke-width:0.133333" />
        <path
           id="path15"
           d="m 224.45599,329.6464 c -0.85066,0.34694 -2.12666,0.6428 -3.828,0.88547 -0.964,0.13853 -1.64533,0.2948 -2.044,0.46933 -0.4,0.17334 -0.708,0.42814 -0.924,0.76147 -0.21866,0.3348 -0.32666,0.7052 -0.32666,1.11347 0,0.62506 0.236,1.14533 0.71066,1.56253 0.472,0.41613 1.16534,0.62547 2.076,0.62547 0.90267,0 1.70667,-0.19734 2.40934,-0.59374 0.70266,-0.39426 1.21866,-0.9344 1.54933,-1.61973 0.25067,-0.5292 0.37733,-1.3104 0.37733,-2.34373 z m 0.196,5.23494 c -0.86933,0.73746 -1.70533,1.25893 -2.50666,1.56253 -0.804,0.30413 -1.66534,0.45627 -2.58534,0.45627 -1.51866,0 -2.68666,-0.37187 -3.50266,-1.1136 -0.816,-0.74267 -1.224,-1.69054 -1.224,-2.84534 0,-0.67706 0.15466,-1.29573 0.46266,-1.85573 0.308,-0.5604 0.71067,-1.00933 1.21067,-1.3468 0.49867,-0.33853 1.06133,-0.5948 1.68667,-0.76933 0.46,-0.12134 1.15333,-0.23854 2.08266,-0.35054 1.892,-0.22706 3.28534,-0.4948 4.18,-0.80826 0.008,-0.31987 0.0133,-0.52507 0.0133,-0.612 0,-0.95467 -0.22134,-1.62654 -0.664,-2.0172 -0.59867,-0.5292 -1.48934,-0.7948 -2.66934,-0.7948 -1.10266,0 -1.91733,0.1932 -2.44133,0.57866 -0.52667,0.38694 -0.91467,1.0708 -1.16533,2.05214 l -2.292,-0.3136 c 0.208,-0.9812 0.55066,-1.77187 1.02933,-2.37547 0.476,-0.60427 1.16667,-1.06827 2.06933,-1.39373 0.90267,-0.3252 1.948,-0.48787 3.13867,-0.48787 1.18,0 2.13867,0.13867 2.87733,0.416 0.73734,0.27853 1.28,0.628 1.628,1.04787 0.34667,0.42133 0.58934,0.9536 0.72934,1.5964 0.0773,0.3984 0.11733,1.11973 0.11733,2.16093 v 3.12547 c 0,2.17866 0.0493,3.55573 0.14933,4.13333 0.0987,0.57707 0.29734,1.13067 0.592,1.65987 h -2.448 c -0.24266,-0.48534 -0.4,-1.05467 -0.468,-1.7052"
           style="fill:#254aa5;fill-opacity:1;fill-rule:nonzero;stroke:none;stroke-width:0.133333" />
        <path
           id="path16"
           d="m 231.96933,329.42507 c 0,1.8152 0.36,3.13907 1.08133,3.9724 0.72,0.83333 1.62133,1.24893 2.708,1.24893 1.07467,0 1.97867,-0.41453 2.708,-1.24266 0.72933,-0.8292 1.09333,-2.1292 1.09333,-3.9 0,-1.6932 -0.376,-2.9692 -1.12533,-3.8276 -0.752,-0.85987 -1.65733,-1.2896 -2.716,-1.2896 -1.04133,0 -1.92667,0.42293 -2.656,1.26933 -0.72933,0.8468 -1.09333,2.10253 -1.09333,3.7692 z m -1.94,8.3084 2.27866,0.33853 c 0.0947,0.70254 0.35867,1.21454 0.79467,1.53587 0.58,0.43493 1.37467,0.65053 2.38267,0.65053 1.084,0 1.92133,-0.2156 2.512,-0.65053 0.59066,-0.43427 0.99066,-1.04107 1.19866,-1.8224 0.12134,-0.4776 0.17734,-1.48013 0.16934,-3.00827 -1.02534,1.2068 -2.30134,1.80934 -3.828,1.80934 -1.90134,0 -3.37334,-0.68534 -4.41467,-2.0572 -1.04133,-1.37094 -1.56267,-3.01627 -1.56267,-4.9344 0,-1.3204 0.23867,-2.5376 0.716,-3.65214 0.47734,-1.11613 1.16934,-1.9776 2.07734,-2.58546 0.90666,-0.60667 1.97333,-0.91067 3.19733,-0.91067 1.63067,0 2.976,0.65867 4.036,1.9784 v -1.6664 h 2.16133 v 11.95347 c 0,2.15306 -0.22,3.67853 -0.65733,4.57706 -0.43867,0.89734 -1.13333,1.60827 -2.084,2.12814 -0.95067,0.52133 -2.12133,0.7812 -3.50933,0.7812 -1.64934,0 -2.98134,-0.37027 -3.99734,-1.11307 -1.01466,-0.7416 -1.50533,-1.8604 -1.47066,-3.352"
           style="fill:#254aa5;fill-opacity:1;fill-rule:nonzero;stroke:none;stroke-width:0.133333" />
        <path
           id="path17"
           d="m 245.26399,336.58654 v -13.82787 h 2.10934 v 2.09613 c 0.53733,-0.98026 1.03466,-1.62653 1.49066,-1.94013 0.456,-0.312 0.95734,-0.468 1.504,-0.468 0.78934,0 1.592,0.252 2.408,0.75453 l -0.80666,2.17494 c -0.57334,-0.33907 -1.14534,-0.50827 -1.71867,-0.50827 -0.51333,0 -0.97333,0.15467 -1.38,0.46293 -0.40933,0.30787 -0.7,0.736 -0.87333,1.28227 -0.26,0.83333 -0.38934,1.74427 -0.38934,2.73493 v 7.23854 h -2.344"
           style="fill:#254aa5;fill-opacity:1;fill-rule:nonzero;stroke:none;stroke-width:0.133333" />
        <path
           id="path18"
           d="m 254.18266,336.58654 v -13.82787 h 2.344 v 13.82787 z m 0,-16.3932 v -2.69467 h 2.344 v 2.69467 h -2.344"
           style="fill:#254aa5;fill-opacity:1;fill-rule:nonzero;stroke:none;stroke-width:0.133333" />
        <path
           id="path19"
           d="m 269.11733,331.52147 2.30533,0.3 c -0.25333,1.588 -0.89733,2.83173 -1.93333,3.73067 -1.03867,0.89853 -2.312,1.348 -3.82267,1.348 -1.892,0 -3.41333,-0.6188 -4.56267,-1.85627 -1.152,-1.23693 -1.72533,-3.00933 -1.72533,-5.3188 0,-1.4932 0.24667,-2.8 0.74133,-3.91973 0.49467,-1.1188 1.248,-1.95894 2.26,-2.5188 1.00934,-0.55987 2.11067,-0.83987 3.3,-0.83987 1.50134,0 2.72934,0.37867 3.68534,1.1388 0.95466,0.76 1.56666,1.83853 1.836,3.236 l -2.27867,0.35213 c -0.21733,-0.92973 -0.60133,-1.62813 -1.152,-2.09746 -0.552,-0.46827 -1.21867,-0.70254 -1.99867,-0.70254 -1.18133,0 -2.14133,0.42387 -2.87866,1.2692 -0.73734,0.8464 -1.10667,2.18547 -1.10667,4.0172 0,1.85734 0.356,3.20787 1.068,4.04947 0.71067,0.8412 1.64133,1.26253 2.78667,1.26253 0.91866,0 1.688,-0.28133 2.304,-0.84533 0.616,-0.56507 1.00666,-1.43333 1.172,-2.6052"
           style="fill:#254aa5;fill-opacity:1;fill-rule:nonzero;stroke:none;stroke-width:0.133333" />
        <path
           id="path20"
           d="m 274.96399,329.6736 c 0,1.77027 0.38534,3.0968 1.15867,3.97707 0.772,0.8812 1.74533,1.32133 2.91733,1.32133 1.16267,0 2.12934,-0.44266 2.90267,-1.32813 0.77333,-0.88547 1.16,-2.2344 1.16,-4.04893 0,-1.71094 -0.38933,-3.00574 -1.16533,-3.88707 -0.77734,-0.8812 -1.744,-1.32133 -2.89734,-1.32133 -1.172,0 -2.14533,0.43853 -2.91733,1.31466 -0.77333,0.8776 -1.15867,2.20147 -1.15867,3.9724 z m -2.40933,0 c 0,-2.56146 0.712,-4.45893 2.136,-5.69066 1.18933,-1.02454 2.63867,-1.53627 4.34933,-1.53627 1.90134,0 3.45467,0.62267 4.66134,1.868 1.20533,1.24533 1.80933,2.96667 1.80933,5.16253 0,1.78014 -0.26667,3.18014 -0.8,4.2 -0.53467,1.02027 -1.312,1.812 -2.33067,2.376 -1.02133,0.56414 -2.13466,0.84694 -3.34,0.84694 -1.936,0 -3.50133,-0.62134 -4.69466,-1.86307 -1.19334,-1.24107 -1.79067,-3.0292 -1.79067,-5.36347"
           style="fill:#254aa5;fill-opacity:1;fill-rule:nonzero;stroke:none;stroke-width:0.133333" />
        <path
           id="path21"
           d="m 288.20666,336.58654 v -19.08787 h 2.344 v 19.08787 h -2.344"
           style="fill:#254aa5;fill-opacity:1;fill-rule:nonzero;stroke:none;stroke-width:0.133333" />
        <path
           id="path22"
           d="m 295.95333,328.34547 h 7.72133 c -0.104,-1.16413 -0.4,-2.036 -0.88533,-2.6172 -0.74667,-0.9032 -1.71467,-1.35467 -2.904,-1.35467 -1.076,0 -1.98134,0.35987 -2.71467,1.0812 -0.73333,0.71974 -1.13867,1.68387 -1.21733,2.89067 z m 7.696,3.788 2.42133,0.3 c -0.38267,1.41453 -1.08933,2.51293 -2.12267,3.2948 -1.03333,0.7812 -2.352,1.17187 -3.95733,1.17187 -2.024,0 -3.62667,-0.624 -4.812,-1.86934 -1.184,-1.24533 -1.77733,-2.99213 -1.77733,-5.24013 0,-2.32653 0.59866,-4.13227 1.79733,-5.41707 1.19733,-1.2844 2.75067,-1.92693 4.66133,-1.92693 1.84934,0 3.35867,0.62947 4.53067,1.88787 1.172,1.2588 1.75867,3.0296 1.75867,5.31186 0,0.13907 -0.005,0.34694 -0.0133,0.6256 h -10.312 c 0.0853,1.51867 0.51467,2.6828 1.288,3.4896 0.77334,0.80774 1.736,1.2104 2.89067,1.2104 0.86,0 1.59333,-0.2256 2.20133,-0.676 0.60667,-0.45213 1.088,-1.172 1.44534,-2.16253"
           style="fill:#254aa5;fill-opacity:1;fill-rule:nonzero;stroke:none;stroke-width:0.133333" />
        <path
           id="path23"
           d="m 318.54533,329.75067 c 0,1.78013 0.35866,3.0948 1.08,3.94533 0.72,0.852 1.59333,1.276 2.61733,1.276 1.04133,0 1.93333,-0.44013 2.676,-1.32133 0.74267,-0.88027 1.11333,-2.24533 1.11333,-4.0948 0,-1.76253 -0.364,-3.08133 -1.088,-3.9584 -0.72533,-0.8776 -1.59066,-1.31507 -2.59733,-1.31507 -0.99867,0 -1.88133,0.46667 -2.64933,1.4 -0.768,0.93227 -1.152,2.2896 -1.152,4.06827 z m -2.12267,12.13587 v -19.12787 h 2.13467 v 1.7972 c 0.50266,-0.70267 1.072,-1.2308 1.70666,-1.58227 0.632,-0.35093 1.4,-0.52693 2.304,-0.52693 1.18,0 2.22134,0.304 3.12534,0.91067 0.90266,0.60786 1.58266,1.4652 2.044,2.572 0.46,1.10666 0.69066,2.31973 0.69066,3.64 0,1.41466 -0.25466,2.688 -0.76266,3.82133 -0.50667,1.13187 -1.24534,2 -2.21334,2.60427 -0.968,0.6036 -1.98533,0.9052 -3.05333,0.9052 -0.78133,0 -1.48267,-0.1656 -2.10267,-0.4948 -0.62133,-0.3308 -1.132,-0.74694 -1.52933,-1.25054 v 6.73174 h -2.344"
           style="fill:#254aa5;fill-opacity:1;fill-rule:nonzero;stroke:none;stroke-width:0.133333" />
        <path
           id="path24"
           d="m 332.78933,329.6736 c 0,1.77027 0.38533,3.0968 1.15866,3.97707 0.772,0.8812 1.74533,1.32133 2.91733,1.32133 1.16267,0 2.13067,-0.44266 2.904,-1.32813 0.772,-0.88547 1.15867,-2.2344 1.15867,-4.04893 0,-1.71094 -0.38933,-3.00574 -1.16533,-3.88707 -0.77734,-0.8812 -1.744,-1.32133 -2.89734,-1.32133 -1.172,0 -2.14533,0.43853 -2.91733,1.31466 -0.77333,0.8776 -1.15866,2.20147 -1.15866,3.9724 z m -2.408,0 c 0,-2.56146 0.71066,-4.45893 2.13466,-5.69066 1.18933,-1.02454 2.63867,-1.53627 4.34933,-1.53627 1.90134,0 3.45467,0.62267 4.66134,1.868 1.20533,1.24533 1.80933,2.96667 1.80933,5.16253 0,1.78014 -0.26667,3.18014 -0.8,4.2 -0.53467,1.02027 -1.312,1.812 -2.33067,2.376 -1.02133,0.56414 -2.13466,0.84694 -3.34,0.84694 -1.936,0 -3.50133,-0.62134 -4.69466,-1.86307 -1.19333,-1.24107 -1.78933,-3.0292 -1.78933,-5.36347"
           style="fill:#254aa5;fill-opacity:1;fill-rule:nonzero;stroke:none;stroke-width:0.133333" />
        <path
           id="path25"
           d="m 355.14666,336.58654 v -2.03067 c -1.07734,1.56293 -2.53867,2.34427 -4.388,2.34427 -0.81734,0 -1.57867,-0.15734 -2.28534,-0.46934 -0.708,-0.312 -1.23333,-0.70573 -1.576,-1.17866 -0.344,-0.47334 -0.584,-1.052 -0.72266,-1.73747 -0.096,-0.46147 -0.14267,-1.1896 -0.14267,-2.188 v -8.568 h 2.344 v 7.6696 c 0,1.22387 0.0467,2.04893 0.14267,2.4744 0.14666,0.61613 0.46,1.1 0.93733,1.45053 0.47733,0.35214 1.068,0.52814 1.77067,0.52814 0.704,0 1.36266,-0.18014 1.98,-0.54014 0.616,-0.35986 1.052,-0.85053 1.308,-1.47186 0.256,-0.62027 0.384,-1.52134 0.384,-2.70147 v -7.4092 h 2.344 v 13.82787 h -2.096"
           style="fill:#254aa5;fill-opacity:1;fill-rule:nonzero;stroke:none;stroke-width:0.133333" />
        <path
           id="path26"
           d="m 360.88799,336.58654 v -13.82787 h 2.10933 v 2.09613 c 0.53867,-0.98026 1.036,-1.62653 1.492,-1.94013 0.45467,-0.312 0.956,-0.468 1.504,-0.468 0.788,0 1.592,0.252 2.408,0.75453 l -0.80666,2.17494 c -0.57334,-0.33907 -1.14667,-0.50827 -1.71867,-0.50827 -0.51333,0 -0.97333,0.15467 -1.38,0.46293 -0.40933,0.30787 -0.7,0.736 -0.87333,1.28227 -0.26,0.83333 -0.39067,1.74427 -0.39067,2.73493 v 7.23854 h -2.344"
           style="fill:#254aa5;fill-opacity:1;fill-rule:nonzero;stroke:none;stroke-width:0.133333" />
      </g>
      <path
         id="path27"
         d="m 235.35814,328.21073 v -19.088 h 2.34373 v 19.088 h -2.34373"
         style="fill:#254aa5;fill-opacity:1;fill-rule:nonzero;stroke:none;stroke-width:0.133333" />
      <path
         id="path28"
         d="m 243.10561,319.96966 h 7.72133 c -0.10413,-1.16413 -0.4,-2.036 -0.88547,-2.6172 -0.74733,-0.9032 -1.71506,-1.35467 -2.90359,-1.35467 -1.07707,0 -1.98174,0.35987 -2.71507,1.0812 -0.7344,0.71974 -1.13907,1.68387 -1.2172,2.89067 z m 7.69533,3.788 2.42187,0.3 c -0.38294,1.41453 -1.09014,2.51293 -2.1224,3.2948 -1.03387,0.7812 -2.3532,1.17187 -3.9584,1.17187 -2.02347,0 -3.62654,-0.624 -4.81147,-1.86934 -1.18493,-1.24533 -1.7776,-2.99213 -1.7776,-5.24013 0,-2.32653 0.59947,-4.13227 1.79747,-5.41707 1.19786,-1.2844 2.75093,-1.9272 4.66146,-1.9272 1.84894,0 3.35934,0.62974 4.5312,1.88814 1.17187,1.2588 1.75787,3.0296 1.75787,5.31186 0,0.13907 -0.005,0.34694 -0.0131,0.6256 h -10.31253 c 0.086,1.51867 0.5156,2.6828 1.28854,3.4896 0.77239,0.80774 1.73599,1.2104 2.89119,1.2104 0.85881,0 1.59214,-0.2256 2.20054,-0.676 0.60666,-0.45213 1.08853,-1.172 1.44533,-2.16253"
         style="fill:#254aa5;fill-opacity:1;fill-rule:nonzero;stroke:none;stroke-width:0.133333" />
      <path
         id="path29"
         d="m 265.13627,321.31073 c 0,1.7708 0.37241,3.0932 1.12027,3.9708 0.74587,0.8772 1.62773,1.31466 2.64333,1.31466 1.02334,0 1.89427,-0.4188 2.6104,-1.25573 0.71614,-0.83747 1.0744,-2.11613 1.0744,-3.83493 0,-1.89214 -0.36506,-3.2812 -1.09373,-4.16667 -0.72906,-0.88533 -1.6276,-1.32813 -2.69533,-1.32813 -1.0416,0 -1.91294,0.4256 -2.61094,1.27613 -0.69893,0.8504 -1.0484,2.19213 -1.0484,4.02387 z m 7.40934,6.9 v -1.74374 c -0.8776,1.37187 -2.16667,2.05734 -3.86707,2.05734 -1.1032,0 -2.11627,-0.30414 -3.04067,-0.912 -0.92453,-0.6068 -1.64066,-1.45627 -2.14839,-2.54534 -0.50787,-1.0896 -0.76147,-2.3416 -0.76147,-3.75626 0,-1.3812 0.22907,-2.63334 0.69,-3.7572 0.45946,-1.124 1.1496,-1.98547 2.0704,-2.58387 0.9192,-0.6 1.94787,-0.89907 3.08586,-0.89907 0.83334,0 1.5756,0.17614 2.22667,0.5272 0.65094,0.35147 1.1796,0.8088 1.58853,1.3744 v -6.84946 h 2.33014 v 19.088 h -2.174"
         style="fill:#254aa5;fill-opacity:1;fill-rule:nonzero;stroke:none;stroke-width:0.133333" />
      <path
         id="path30"
         d="m 282.70187,312.66446 1.73187,-3.64533 h 3.0728 l -2.86453,3.64533 z m -2.526,7.3052 h 7.72134 c -0.10414,-1.16413 -0.4,-2.036 -0.88534,-2.6172 -0.748,-0.9032 -1.7152,-1.35467 -2.90373,-1.35467 -1.07707,0 -1.98173,0.35987 -2.71507,1.0812 -0.7344,0.71974 -1.13906,1.68387 -1.2172,2.89067 z m 7.69534,3.788 2.42186,0.3 c -0.3828,1.41453 -1.09013,2.51293 -2.1224,3.2948 -1.0344,0.7812 -2.35306,1.17187 -3.9584,1.17187 -2.02333,0 -3.62653,-0.624 -4.81133,-1.86934 -1.18493,-1.24533 -1.7772,-2.99213 -1.7772,-5.24013 0,-2.32653 0.59907,-4.13227 1.79693,-5.41707 1.19787,-1.2844 2.75107,-1.9272 4.66147,-1.9272 1.8484,0 3.35933,0.62974 4.5312,1.88814 1.17187,1.2588 1.75787,3.0296 1.75787,5.31186 0,0.13907 -0.005,0.34694 -0.0131,0.6256 h -10.3125 c 0.086,1.51867 0.51573,2.6828 1.28906,3.4896 0.77187,0.80774 1.73547,1.2104 2.89067,1.2104 0.85933,0 1.59227,-0.2256 2.20053,-0.676 0.6068,-0.45213 1.088,-1.172 1.44534,-2.16253"
         style="fill:#254aa5;fill-opacity:1;fill-rule:nonzero;stroke:none;stroke-width:0.133333" />
      <path
         id="path31"
         d="m 297.07694,328.21073 -5.2604,-13.82814 h 2.47387 l 2.9688,8.28187 c 0.32026,0.89427 0.6156,1.8224 0.88546,2.7864 0.20827,-0.7292 0.4984,-1.6068 0.8724,-2.63067 l 3.0728,-8.4376 h 2.40894 l -5.23494,13.82814 h -2.18693"
         style="fill:#254aa5;fill-opacity:1;fill-rule:nonzero;stroke:none;stroke-width:0.133333" />
      <path
         id="path32"
         d="m 308.33987,319.96966 h 7.72147 c -0.10427,-1.16413 -0.4,-2.036 -0.88547,-2.6172 -0.74733,-0.9032 -1.71506,-1.35467 -2.9036,-1.35467 -1.07706,0 -1.98186,0.35987 -2.7152,1.0812 -0.73426,0.71974 -1.13906,1.68387 -1.2172,2.89067 z m 7.69534,3.788 2.42186,0.3 c -0.3828,1.41453 -1.09,2.51293 -2.1224,3.2948 -1.03373,0.7812 -2.35306,1.17187 -3.95826,1.17187 -2.02347,0 -3.62654,-0.624 -4.81147,-1.86934 -1.18493,-1.24533 -1.77707,-2.99213 -1.77707,-5.24013 0,-2.32653 0.5984,-4.13227 1.7968,-5.41707 1.198,-1.2844 2.75107,-1.9272 4.66147,-1.9272 1.84907,0 3.35947,0.62974 4.53133,1.88814 1.17187,1.2588 1.75774,3.0296 1.75774,5.31186 0,0.13907 -0.005,0.34694 -0.0129,0.6256 h -10.31253 c 0.0859,1.51867 0.5156,2.6828 1.28907,3.4896 0.77186,0.80774 1.73546,1.2104 2.89066,1.2104 0.85934,0 1.59214,-0.2256 2.2004,-0.676 0.6068,-0.45213 1.08867,-1.172 1.44534,-2.16253"
         style="fill:#254aa5;fill-opacity:1;fill-rule:nonzero;stroke:none;stroke-width:0.133333" />
      <path
         id="path33"
         d="m 321.34721,328.21073 v -19.088 h 2.344 v 19.088 h -2.344"
         style="fill:#254aa5;fill-opacity:1;fill-rule:nonzero;stroke:none;stroke-width:0.133333" />
      <path
         id="path34"
         d="m 328.86054,321.29779 c 0,1.77027 0.38533,3.0968 1.15867,3.97707 0.772,0.8812 1.74533,1.32133 2.91733,1.32133 1.16267,0 2.12933,-0.44266 2.90267,-1.32813 0.772,-0.88547 1.16,-2.2344 1.16,-4.04893 0,-1.71094 -0.38934,-3.00574 -1.16534,-3.88707 -0.77866,-0.8812 -1.744,-1.32133 -2.89733,-1.32133 -1.172,0 -2.14533,0.43853 -2.91733,1.31466 -0.77334,0.8776 -1.15867,2.20147 -1.15867,3.9724 z m -2.40933,0 c 0,-2.56146 0.712,-4.45893 2.136,-5.6912 1.18933,-1.024 2.63733,-1.536 4.34933,-1.536 1.9,0 3.45333,0.62294 4.66133,1.86827 1.20534,1.24533 1.80934,2.96667 1.80934,5.16253 0,1.78014 -0.26667,3.18014 -0.8,4.2 -0.53467,1.02027 -1.312,1.812 -2.33067,2.376 -1.02133,0.56414 -2.13467,0.84694 -3.34,0.84694 -1.936,0 -3.50133,-0.62134 -4.69467,-1.86307 -1.19333,-1.24107 -1.79066,-3.0292 -1.79066,-5.36347"
         style="fill:#254aa5;fill-opacity:1;fill-rule:nonzero;stroke:none;stroke-width:0.133333" />
      <path
         id="path35"
         d="m 344.27787,321.37486 c 0,1.78013 0.35867,3.0948 1.08,3.94533 0.72,0.852 1.592,1.276 2.61734,1.276 1.04133,0 1.93333,-0.44013 2.676,-1.32133 0.74133,-0.88027 1.11333,-2.24533 1.11333,-4.0948 0,-1.76253 -0.364,-3.08133 -1.088,-3.9584 -0.72533,-0.8776 -1.59067,-1.31507 -2.59733,-1.31507 -0.99867,0 -1.88134,0.46667 -2.64934,1.40054 -0.768,0.93173 -1.152,2.28906 -1.152,4.06773 z m -2.12266,12.13587 v -19.12814 h 2.13466 v 1.79747 c 0.50267,-0.70267 1.072,-1.2308 1.70667,-1.58227 0.632,-0.35106 1.4,-0.5272 2.304,-0.5272 1.18,0 2.22133,0.30427 3.12533,0.91094 0.90267,0.60786 1.58267,1.4652 2.044,2.572 0.46,1.10666 0.69067,2.31973 0.69067,3.64 0,1.41466 -0.25467,2.688 -0.76267,3.82133 -0.508,1.13187 -1.24533,2 -2.21333,2.60427 -0.968,0.6036 -1.98533,0.9052 -3.05333,0.9052 -0.78134,0 -1.48267,-0.1656 -2.10267,-0.4948 -0.62133,-0.3308 -1.132,-0.74694 -1.52933,-1.25054 v 6.73174 h -2.344"
         style="fill:#254aa5;fill-opacity:1;fill-rule:nonzero;stroke:none;stroke-width:0.133333" />
      <path
         id="path36"
         d="m 359.10854,321.37486 c 0,1.78013 0.35867,3.0948 1.08,3.94533 0.72,0.852 1.592,1.276 2.61733,1.276 1.04134,0 1.93334,-0.44013 2.676,-1.32133 0.74134,-0.88027 1.11334,-2.24533 1.11334,-4.0948 0,-1.76253 -0.364,-3.08133 -1.088,-3.9584 -0.72534,-0.8776 -1.59067,-1.31507 -2.59734,-1.31507 -0.99866,0 -1.88133,0.46667 -2.64933,1.40054 -0.768,0.93173 -1.152,2.28906 -1.152,4.06773 z m -2.12267,12.13587 v -19.12814 h 2.13467 v 1.79747 c 0.50267,-0.70267 1.072,-1.2308 1.70667,-1.58227 0.632,-0.35106 1.4,-0.5272 2.304,-0.5272 1.18,0 2.22133,0.30427 3.12533,0.91094 0.90267,0.60786 1.58267,1.4652 2.044,2.572 0.46,1.10666 0.69067,2.31973 0.69067,3.64 0,1.41466 -0.25467,2.688 -0.76267,3.82133 -0.50667,1.13187 -1.24533,2 -2.21333,2.60427 -0.968,0.6036 -1.98534,0.9052 -3.05334,0.9052 -0.78133,0 -1.48266,-0.1656 -2.10266,-0.4948 -0.62134,-0.3308 -1.132,-0.74694 -1.52934,-1.25054 v 6.73174 h -2.344"
         style="fill:#254aa5;fill-opacity:1;fill-rule:nonzero;stroke:none;stroke-width:0.133333" />
      <path
         id="path37"
         d="m 373.58721,319.96966 h 7.72133 c -0.104,-1.16413 -0.4,-2.036 -0.88533,-2.6172 -0.748,-0.9032 -1.71467,-1.35467 -2.904,-1.35467 -1.076,0 -1.98134,0.35987 -2.71467,1.0812 -0.73467,0.71974 -1.13867,1.68387 -1.21733,2.89067 z m 7.69466,3.788 2.42267,0.3 c -0.38267,1.41453 -1.09067,2.51293 -2.12267,3.2948 -1.03333,0.7812 -2.35333,1.17187 -3.95866,1.17187 -2.02267,0 -3.62534,-0.624 -4.81067,-1.86934 -1.18533,-1.24533 -1.77733,-2.99213 -1.77733,-5.24013 0,-2.32653 0.59866,-4.13227 1.79733,-5.41707 1.19733,-1.2844 2.75067,-1.9272 4.66133,-1.9272 1.848,0 3.35867,0.62974 4.53067,1.88814 1.172,1.2588 1.75733,3.0296 1.75733,5.31186 0,0.13907 -0.004,0.34694 -0.012,0.6256 h -10.31333 c 0.0867,1.51867 0.516,2.6828 1.28933,3.4896 0.772,0.80774 1.736,1.2104 2.89067,1.2104 0.86,0 1.592,-0.2256 2.2,-0.676 0.608,-0.45213 1.08933,-1.172 1.44533,-2.16253"
         style="fill:#254aa5;fill-opacity:1;fill-rule:nonzero;stroke:none;stroke-width:0.133333" />
      <path
         id="path38"
         d="m 386.6472,328.21073 v -13.82814 h 2.096 v 1.94014 c 0.43334,-0.67707 1.01067,-1.22134 1.732,-1.63334 0.72,-0.412 1.54,-0.6188 2.46134,-0.6188 1.02266,0 1.86266,0.212 2.51866,0.6376 0.656,0.42547 1.11734,1.01974 1.38667,1.78387 1.09467,-1.61467 2.51733,-2.42147 4.27067,-2.42147 1.372,0 2.42666,0.37867 3.16533,1.13907 0.736,0.76 1.10667,1.9292 1.10667,3.50947 v 9.4916 h -2.33067 v -8.7104 c 0,-0.93747 -0.0773,-1.612 -0.228,-2.024 -0.15333,-0.41347 -0.42933,-0.7452 -0.82667,-0.99734 -0.4,-0.25106 -0.86933,-0.3776 -1.40666,-0.3776 -0.97334,0 -1.78,0.324 -2.42267,0.9708 -0.64267,0.64694 -0.96267,1.68134 -0.96267,3.1052 v 8.03334 h -2.344 v -8.98387 c 0,-1.04107 -0.192,-1.82293 -0.57333,-2.34427 -0.38267,-0.51973 -1.008,-0.7812 -1.87467,-0.7812 -0.66,0 -1.26933,0.17494 -1.82933,0.52134 -0.56,0.34693 -0.96667,0.85466 -1.21733,1.52293 -0.25334,0.6692 -0.37734,1.63333 -0.37734,2.89067 v 7.1744 h -2.344"
         style="fill:#254aa5;fill-opacity:1;fill-rule:nonzero;stroke:none;stroke-width:0.133333" />
      <path
         id="path39"
         d="m 410.6312,319.96966 h 7.72134 c -0.104,-1.16413 -0.4,-2.036 -0.88534,-2.6172 -0.74666,-0.9032 -1.71466,-1.35467 -2.904,-1.35467 -1.076,0 -1.98133,0.35987 -2.71466,1.0812 -0.73467,0.71974 -1.13867,1.68387 -1.21734,2.89067 z m 7.696,3.788 2.42134,0.3 c -0.38267,1.41453 -1.08934,2.51293 -2.12267,3.2948 -1.03333,0.7812 -2.352,1.17187 -3.95867,1.17187 -2.02266,0 -3.62533,-0.624 -4.81066,-1.86934 -1.18534,-1.24533 -1.77734,-2.99213 -1.77734,-5.24013 0,-2.32653 0.59867,-4.13227 1.79734,-5.41707 1.19733,-1.2844 2.75066,-1.9272 4.66133,-1.9272 1.84933,0 3.35867,0.62974 4.53067,1.88814 1.172,1.2588 1.75866,3.0296 1.75866,5.31186 0,0.13907 -0.005,0.34694 -0.0133,0.6256 h -10.31333 c 0.0867,1.51867 0.516,2.6828 1.28933,3.4896 0.772,0.80774 1.736,1.2104 2.89067,1.2104 0.86,0 1.59333,-0.2256 2.20133,-0.676 0.60667,-0.45213 1.088,-1.172 1.44533,-2.16253"
         style="fill:#254aa5;fill-opacity:1;fill-rule:nonzero;stroke:none;stroke-width:0.133333" />
      <path
         id="path40"
         d="m 423.6912,328.21073 v -13.82814 h 2.10934 v 1.96667 c 1.016,-1.51813 2.48133,-2.27867 4.40133,-2.27867 0.83333,0 1.59867,0.1496 2.29867,0.4496 0.69733,0.2984 1.22133,0.69214 1.568,1.17854 0.34666,0.48546 0.59066,1.06253 0.72933,1.7308 0.0867,0.43493 0.13067,1.1932 0.13067,2.27866 v 8.50254 h -2.344 v -8.4104 c 0,-0.95627 -0.0907,-1.6692 -0.27334,-2.14267 -0.18266,-0.47347 -0.50666,-0.85053 -0.97066,-1.13227 -0.464,-0.2824 -1.008,-0.424 -1.63334,-0.424 -0.99866,0 -1.86133,0.31774 -2.58533,0.95107 -0.72533,0.63333 -1.08667,1.83587 -1.08667,3.60627 v 7.552 h -2.344"
         style="fill:#254aa5;fill-opacity:1;fill-rule:nonzero;stroke:none;stroke-width:0.133333" />
      <path
         id="path41"
         d="m 443.6392,326.11486 0.33867,2.07093 c -0.66,0.13854 -1.25067,0.20774 -1.77067,0.20774 -0.852,0 -1.51066,-0.1348 -1.98,-0.40414 -0.468,-0.26773 -0.79866,-0.6224 -0.98933,-1.06146 -0.19067,-0.43694 -0.28667,-1.35987 -0.28667,-2.76667 v -7.95573 h -1.71866 v -1.82294 h 1.71866 v -3.42386 l 2.33067,-1.40627 v 4.83013 h 2.35733 v 1.82294 h -2.35733 v 8.08653 c 0,0.66813 0.0413,1.09893 0.124,1.28947 0.0827,0.19066 0.216,0.3428 0.404,0.4548 0.18667,0.11293 0.45333,0.1692 0.80133,0.1692 0.26,0 0.60267,-0.0307 1.028,-0.0907"
         style="fill:#254aa5;fill-opacity:1;fill-rule:nonzero;stroke:none;stroke-width:0.133333" />
      <path
         id="path42"
         d="m 453.31387,328.21073 v -13.82814 h 2.10933 v 2.0964 c 0.53734,-0.98026 1.03467,-1.62653 1.49067,-1.94013 0.456,-0.312 0.95733,-0.46827 1.504,-0.46827 0.78933,0 1.592,0.25214 2.40933,0.7548 l -0.808,2.17494 c -0.57333,-0.33907 -1.14533,-0.50827 -1.71866,-0.50827 -0.51334,0 -0.972,0.15467 -1.38,0.46293 -0.40934,0.30787 -0.69867,0.736 -0.872,1.28227 -0.26134,0.83333 -0.39067,1.74427 -0.39067,2.73493 v 7.23854 h -2.344"
         style="fill:#254aa5;fill-opacity:1;fill-rule:nonzero;stroke:none;stroke-width:0.133333" />
      <path
         id="path43"
         d="m 471.28187,328.21073 v -2.03067 c -1.076,1.56293 -2.53867,2.34427 -4.388,2.34427 -0.816,0 -1.57733,-0.15734 -2.284,-0.46934 -0.70933,-0.312 -1.23333,-0.70573 -1.576,-1.17866 -0.344,-0.47334 -0.58533,-1.052 -0.72267,-1.73747 -0.096,-0.46147 -0.144,-1.1896 -0.144,-2.188 v -8.56827 h 2.344 v 7.66987 c 0,1.22387 0.0467,2.04893 0.144,2.4744 0.14667,0.61613 0.45867,1.1 0.93734,1.45053 0.476,0.35214 1.068,0.52814 1.77066,0.52814 0.70267,0 1.36134,-0.18014 1.97867,-0.54014 0.616,-0.35986 1.052,-0.85053 1.30933,-1.47186 0.25467,-0.62027 0.384,-1.52134 0.384,-2.70147 v -7.40947 h 2.344 v 13.82814 h -2.09733"
         style="fill:#254aa5;fill-opacity:1;fill-rule:nonzero;stroke:none;stroke-width:0.133333" />
      <path
         id="path44"
         d="m 477.02454,328.21073 v -13.82814 h 2.10933 v 2.0964 c 0.53733,-0.98026 1.03467,-1.62653 1.49067,-1.94013 0.456,-0.312 0.95733,-0.46827 1.504,-0.46827 0.78933,0 1.59333,0.25214 2.40933,0.7548 l -0.808,2.17494 c -0.572,-0.33907 -1.14533,-0.50827 -1.71867,-0.50827 -0.512,0 -0.972,0.15467 -1.38,0.46293 -0.40933,0.30787 -0.69866,0.736 -0.872,1.28227 -0.26,0.83333 -0.39066,1.74427 -0.39066,2.73493 v 7.23854 h -2.344"
         style="fill:#254aa5;fill-opacity:1;fill-rule:nonzero;stroke:none;stroke-width:0.133333" />
      <path
         id="path45"
         d="m 494.7592,321.27059 c -0.852,0.34694 -2.128,0.6428 -3.828,0.88547 -0.964,0.13853 -1.64666,0.2948 -2.044,0.46933 -0.4,0.17334 -0.70933,0.42814 -0.92533,0.76147 -0.21733,0.3348 -0.32533,0.7052 -0.32533,1.11347 0,0.62506 0.236,1.14533 0.70933,1.56253 0.47333,0.41613 1.16533,0.62547 2.07733,0.62547 0.90267,0 1.70534,-0.19734 2.40934,-0.59374 0.70266,-0.39426 1.21866,-0.9344 1.54933,-1.61973 0.25067,-0.5292 0.37733,-1.3104 0.37733,-2.34373 z m 0.19467,5.23494 c -0.868,0.73746 -1.704,1.25893 -2.50667,1.56253 -0.80266,0.30413 -1.66533,0.45627 -2.584,0.45627 -1.52,0 -2.688,-0.3724 -3.50266,-1.1136 -0.816,-0.74267 -1.224,-1.69054 -1.224,-2.84534 0,-0.67706 0.15333,-1.29573 0.46266,-1.85573 0.30667,-0.5604 0.71067,-1.00933 1.21067,-1.3468 0.49867,-0.33853 1.06133,-0.5948 1.68667,-0.76933 0.45866,-0.12134 1.15333,-0.23854 2.08266,-0.35054 1.892,-0.22706 3.28534,-0.4948 4.18,-0.80826 0.008,-0.31987 0.0133,-0.52507 0.0133,-0.612 0,-0.95467 -0.22134,-1.62654 -0.664,-2.0172 -0.6,-0.5292 -1.49067,-0.7948 -2.66934,-0.7948 -1.104,0 -1.91733,0.1932 -2.44133,0.57866 -0.52667,0.38694 -0.91467,1.0708 -1.16533,2.05214 l -2.292,-0.3136 c 0.208,-0.9812 0.55066,-1.77187 1.028,-2.37547 0.47733,-0.60427 1.16666,-1.06827 2.07066,-1.39373 0.90267,-0.32507 1.948,-0.48814 3.13867,-0.48814 1.17867,0 2.13867,0.13907 2.87733,0.41627 0.736,0.27853 1.28,0.628 1.62667,1.04787 0.34667,0.42133 0.59067,0.9536 0.72933,1.5964 0.0787,0.3984 0.11734,1.11973 0.11734,2.16093 v 3.12547 c 0,2.17866 0.0493,3.55626 0.14933,4.13333 0.1,0.57707 0.29733,1.13067 0.59333,1.65987 h -2.448 c -0.244,-0.48534 -0.4,-1.05467 -0.46933,-1.7052"
         style="fill:#254aa5;fill-opacity:1;fill-rule:nonzero;stroke:none;stroke-width:0.133333" />
      <path
         id="path46"
         d="m 500.70987,328.21073 v -19.088 h 2.344 v 19.088 h -2.344"
         style="fill:#254aa5;fill-opacity:1;fill-rule:nonzero;stroke:none;stroke-width:0.133333" />
    </g>
    <g
       id="g114"
       transform="translate(-2.3389515)">
      <g
         id="g113"
         transform="translate(-83.65486,-40.218683)">
        <path
           id="path48"
           d="m 44.358799,400.58653 v -19.08799 h 2.343866 v 19.08799 h -2.343866"
           style="fill:#254aa5;fill-opacity:1;fill-rule:nonzero;stroke:none;stroke-width:0.133333" />
        <path
           id="path49"
           d="m 50.192132,384.024 v -2.72133 h 2.512533 v 2.14947 c 0,1.16253 -0.134933,2 -0.403066,2.51306 -0.374,0.70267 -0.955734,1.23227 -1.7448,1.588 l -0.572934,-0.92386 c 0.4688,-0.19227 0.817734,-0.49334 1.047867,-0.90534 0.2292,-0.41186 0.3584,-0.97853 0.3844,-1.7 h -1.224"
           style="fill:#254aa5;fill-opacity:1;fill-rule:nonzero;stroke:none;stroke-width:0.133333" />
        <path
           id="path50"
           d="m 56.611465,400.58653 v -19.08799 h 13.802133 v 2.25213 H 59.137465 v 5.8468 h 10.559867 v 2.2396 H 59.137465 v 6.49746 h 11.7188 v 2.252 h -14.2448"
           style="fill:#254aa5;fill-opacity:1;fill-rule:nonzero;stroke:none;stroke-width:0.133333" />
        <path
           id="path51"
           d="m 83.108798,400.58653 v -2.03066 c -1.077067,1.56293 -2.539067,2.34426 -4.388,2.34426 -0.816667,0 -1.578133,-0.15733 -2.285333,-0.46933 -0.7084,-0.312 -1.2328,-0.70573 -1.5756,-1.17867 -0.343734,-0.47333 -0.5844,-1.052 -0.7224,-1.73746 -0.09627,-0.46147 -0.143734,-1.1896 -0.143734,-2.188 v -8.56827 h 2.344267 v 7.66987 c 0,1.22386 0.04693,2.04893 0.1432,2.4744 0.146933,0.61613 0.459467,1.1 0.9376,1.45053 0.476533,0.35213 1.0676,0.52813 1.7708,0.52813 0.703067,0 1.362,-0.18013 1.9792,-0.54013 0.6156,-0.35987 1.052,-0.85053 1.308267,-1.47187 0.2552,-0.62026 0.3844,-1.52133 0.3844,-2.70146 v -7.40947 h 2.3432 v 13.82813 h -2.095867"
           style="fill:#254aa5;fill-opacity:1;fill-rule:nonzero;stroke:none;stroke-width:0.133333" />
        <path
           id="path52"
           d="M 88.851064,400.58653 V 386.7584 h 2.109334 v 2.0964 c 0.537466,-0.98026 1.034933,-1.62653 1.490666,-1.94013 0.455734,-0.312 0.957334,-0.46827 1.5036,-0.46827 0.789067,0 1.592667,0.25214 2.409334,0.7548 l -0.8072,2.17494 c -0.572934,-0.33907 -1.1464,-0.50827 -1.7188,-0.50827 -0.512934,0 -0.972934,0.15467 -1.380134,0.46293 -0.408933,0.30787 -0.699466,0.736 -0.8724,1.28227 -0.2604,0.83333 -0.390666,1.74426 -0.390666,2.73493 v 7.23853 h -2.343734"
           style="fill:#254aa5;fill-opacity:1;fill-rule:nonzero;stroke:none;stroke-width:0.133333" />
        <path
           id="path53"
           d="m 99.293731,393.6736 c 0,1.77027 0.385467,3.0968 1.158929,3.97707 0.77187,0.8812 1.74467,1.32133 2.91667,1.32133 1.1624,0 2.13013,-0.44267 2.9036,-1.32813 0.77187,-0.88547 1.1588,-2.2344 1.1588,-4.04894 0,-1.71093 -0.3896,-3.00573 -1.1656,-3.88706 -0.77707,-0.8812 -1.7432,-1.32133 -2.8968,-1.32133 -1.172,0 -2.1448,0.43853 -2.91667,1.31466 -0.773462,0.8776 -1.158929,2.20147 -1.158929,3.9724 z m -2.4088,0 c 0,-2.56147 0.710933,-4.45893 2.135333,-5.6912 1.188536,-1.024 2.638136,-1.536 4.349066,-1.536 1.90093,0 3.45413,0.62294 4.66133,1.86827 1.20574,1.24533 1.81,2.96666 1.81,5.16253 0,1.78013 -0.2672,3.18013 -0.80106,4.2 -0.53387,1.02027 -1.31094,1.812 -2.3308,2.376 -1.0208,0.56413 -2.13374,0.84693 -3.33947,0.84693 -1.93653,0 -3.501599,-0.62133 -4.694266,-1.86306 -1.193866,-1.24107 -1.790133,-3.0292 -1.790133,-5.36347"
           style="fill:#254aa5;fill-opacity:1;fill-rule:nonzero;stroke:none;stroke-width:0.133333" />
        <path
           id="path54"
           d="m 114.7104,393.75067 c 0,1.78013 0.35933,3.0948 1.0808,3.94533 0.71973,0.852 1.59213,1.276 2.6172,1.276 1.0416,0 1.93333,-0.44013 2.67546,-1.32133 0.74214,-0.88027 1.11347,-2.24534 1.11347,-4.0948 0,-1.76254 -0.36347,-3.08134 -1.08747,-3.9584 -0.72493,-0.8776 -1.59106,-1.31507 -2.59733,-1.31507 -0.99893,0 -1.88187,0.46667 -2.65,1.40053 -0.76827,0.93174 -1.15213,2.28907 -1.15213,4.06774 z m -2.1224,12.13586 V 386.7584 h 2.13546 v 1.79747 c 0.50254,-0.70267 1.07134,-1.2308 1.70574,-1.58227 0.6328,-0.35106 1.40106,-0.5272 2.30466,-0.5272 1.17974,0 2.2208,0.30427 3.12494,0.91094 0.90213,0.60786 1.58333,1.4652 2.04426,2.57199 0.45947,1.10667 0.69014,2.31974 0.69014,3.64 0,1.41467 -0.25414,2.688 -0.762,3.82134 -0.50774,1.13186 -1.24574,2 -2.21347,2.60426 -0.9688,0.6036 -1.98547,0.9052 -3.0532,0.9052 -0.7812,0 -1.48333,-0.1656 -2.10307,-0.4948 -0.6208,-0.3308 -1.1312,-0.74693 -1.52973,-1.25053 v 6.73173 H 112.588"
           style="fill:#254aa5;fill-opacity:1;fill-rule:nonzero;stroke:none;stroke-width:0.133333" />
        <path
           id="path55"
           d="m 129.1896,392.34547 h 7.72106 c -0.104,-1.16414 -0.4,-2.036 -0.88533,-2.6172 -0.748,-0.9032 -1.71467,-1.35467 -2.904,-1.35467 -1.07653,0 -1.9812,0.35987 -2.71453,1.0812 -0.7344,0.71973 -1.13907,1.68387 -1.2172,2.89067 z m 7.69573,3.788 2.42133,0.3 c -0.38266,1.41453 -1.08933,2.51293 -2.12266,3.2948 -1.03334,0.7812 -2.35334,1.17186 -3.958,1.17186 -2.02334,0 -3.62654,-0.624 -4.81147,-1.86933 -1.1848,-1.24533 -1.77707,-2.99213 -1.77707,-5.24013 0,-2.32654 0.59894,-4.13227 1.79694,-5.41707 1.19786,-1.2844 2.75106,-1.9272 4.66146,-1.9272 1.84814,0 3.3588,0.62974 4.5308,1.88814 1.172,1.25879 1.75867,3.02959 1.75867,5.31186 0,0.13907 -0.005,0.34693 -0.0133,0.6256 h -10.31267 c 0.086,1.51867 0.51573,2.6828 1.28907,3.4896 0.77186,0.80773 1.73546,1.2104 2.89066,1.2104 0.8596,0 1.5916,-0.2256 2.20094,-0.676 0.60666,-0.45213 1.088,-1.172 1.44533,-2.16253"
           style="fill:#254aa5;fill-opacity:1;fill-rule:nonzero;stroke:none;stroke-width:0.133333" />
        <path
           id="path56"
           d="M 149.67066,400.58653 V 386.7584 h 2.344 v 13.82813 z m 0,-16.39319 v -2.6948 h 2.344 v 2.6948 h -2.344"
           style="fill:#254aa5;fill-opacity:1;fill-rule:nonzero;stroke:none;stroke-width:0.133333" />
        <path
           id="path57"
           d="M 155.58266,400.58653 V 386.7584 h 2.10934 v 1.96667 c 1.016,-1.51813 2.48133,-2.27867 4.40133,-2.27867 0.83333,0 1.59867,0.1496 2.29733,0.4496 0.69867,0.2984 1.22134,0.69214 1.56934,1.17854 0.34666,0.48546 0.59066,1.06253 0.72933,1.73079 0.0853,0.43494 0.13067,1.1932 0.13067,2.27867 v 8.50253 h -2.344 v -8.4104 c 0,-0.95626 -0.0907,-1.6692 -0.27334,-2.14266 C 164.02,389.56 163.696,389.18294 163.232,388.9012 c -0.464,-0.2824 -1.00934,-0.424 -1.63334,-0.424 -0.99866,0 -1.86133,0.31774 -2.58533,0.95107 -0.72533,0.63333 -1.08667,1.83586 -1.08667,3.60626 v 7.552 h -2.344"
           style="fill:#254aa5;fill-opacity:1;fill-rule:nonzero;stroke:none;stroke-width:0.133333" />
        <path
           id="path58"
           d="m 174.25466,400.58653 -5.26,-13.82813 h 2.47334 l 2.96933,8.28187 c 0.32,0.89426 0.61467,1.8224 0.88533,2.7864 0.208,-0.7292 0.49867,-1.6068 0.872,-2.63067 l 3.07334,-8.4376 h 2.408 l -5.23467,13.82813 h -2.18667"
           style="fill:#254aa5;fill-opacity:1;fill-rule:nonzero;stroke:none;stroke-width:0.133333" />
        <path
           id="path59"
           d="m 185.51733,392.34547 h 7.72133 c -0.104,-1.16414 -0.4,-2.036 -0.88533,-2.6172 -0.74667,-0.9032 -1.71467,-1.35467 -2.904,-1.35467 -1.076,0 -1.98133,0.35987 -2.71467,1.0812 -0.73466,0.71973 -1.13866,1.68387 -1.21733,2.89067 z m 7.696,3.788 2.42133,0.3 c -0.38266,1.41453 -1.08933,2.51293 -2.12266,3.2948 -1.03334,0.7812 -2.352,1.17186 -3.95867,1.17186 -2.02267,0 -3.62533,-0.624 -4.81067,-1.86933 -1.18533,-1.24533 -1.77733,-2.99213 -1.77733,-5.24013 0,-2.32654 0.59867,-4.13227 1.79733,-5.41707 1.19734,-1.2844 2.75067,-1.9272 4.66134,-1.9272 1.84933,0 3.35866,0.62974 4.53066,1.88814 1.172,1.25879 1.75867,3.02959 1.75867,5.31186 0,0.13907 -0.005,0.34693 -0.0133,0.6256 h -10.31334 c 0.0867,1.51867 0.516,2.6828 1.28934,3.4896 0.772,0.80773 1.736,1.2104 2.89066,1.2104 0.86,0 1.59334,-0.2256 2.20134,-0.676 0.60666,-0.45213 1.088,-1.172 1.44533,-2.16253"
           style="fill:#254aa5;fill-opacity:1;fill-rule:nonzero;stroke:none;stroke-width:0.133333" />
        <path
           id="path60"
           d="m 197.64,396.46 2.31733,-0.36507 c 0.13066,0.92907 0.492,1.64107 1.088,2.13587 0.59333,0.49427 1.42533,0.7412 2.49333,0.7412 1.07467,0 1.87467,-0.2188 2.396,-0.65733 0.52,-0.43747 0.78133,-0.952 0.78133,-1.54267 0,-0.5292 -0.23066,-0.94693 -0.69066,-1.25053 -0.32134,-0.2084 -1.12,-0.47347 -2.396,-0.7932 -1.71867,-0.43494 -2.91067,-0.80947 -3.57467,-1.12707 -0.664,-0.3172 -1.168,-0.7548 -1.50933,-1.31467 -0.344,-0.55986 -0.51467,-1.17866 -0.51467,-1.85573 0,-0.61613 0.14,-1.18693 0.42267,-1.712 0.28133,-0.52546 0.66533,-0.96146 1.15333,-1.30933 0.364,-0.26827 0.86,-0.4964 1.49067,-0.6828 0.628,-0.1864 1.30266,-0.28027 2.024,-0.28027 1.08533,0 2.03866,0.15627 2.85866,0.46827 0.82,0.3136 1.42534,0.736 1.816,1.2708 0.39067,0.53333 0.65867,1.248 0.808,2.1412 l -2.292,0.312 c -0.104,-0.7104 -0.40666,-1.26667 -0.90533,-1.66667 -0.5,-0.3984 -1.204,-0.5984 -2.116,-0.5984 -1.076,0 -1.84533,0.17707 -2.304,0.53427 -0.46133,0.35627 -0.69067,0.77186 -0.69067,1.24946 0,0.30427 0.0947,0.5772 0.28667,0.81987 0.19067,0.25213 0.48933,0.45987 0.89867,0.62547 0.23466,0.0865 0.924,0.28653 2.07066,0.59853 1.65734,0.44267 2.81334,0.80573 3.46934,1.088 0.65466,0.2812 1.16933,0.69213 1.54266,1.23067 0.37334,0.53746 0.56,1.2052 0.56,2.00413 0,0.78133 -0.228,1.5172 -0.68266,2.20787 -0.456,0.6896 -1.11334,1.224 -1.97334,1.6016 -0.86,0.37706 -1.832,0.56666 -2.916,0.56666 -1.79733,0 -3.16666,-0.37346 -4.10933,-1.1204 C 198.5,399.03347 197.9,397.92667 197.64,396.46"
           style="fill:#254aa5;fill-opacity:1;fill-rule:nonzero;stroke:none;stroke-width:0.133333" />
        <path
           id="path61"
           d="m 217.02799,398.49067 0.33867,2.07093 c -0.66,0.13853 -1.25067,0.20773 -1.77067,0.20773 -0.852,0 -1.51066,-0.1348 -1.98,-0.40413 -0.468,-0.26773 -0.79866,-0.6224 -0.98933,-1.06147 -0.19067,-0.43693 -0.28667,-1.35986 -0.28667,-2.76666 v -7.95573 h -1.71866 v -1.82294 h 1.71866 v -3.42386 l 2.33067,-1.40627 v 4.83013 h 2.35733 v 1.82294 h -2.35733 v 8.08653 c 0,0.66813 0.0413,1.09893 0.124,1.28946 0.0827,0.19067 0.216,0.3428 0.404,0.4548 0.18667,0.11294 0.45333,0.1692 0.8,0.1692 0.26133,0 0.604,-0.0307 1.02933,-0.0907"
           style="fill:#254aa5;fill-opacity:1;fill-rule:nonzero;stroke:none;stroke-width:0.133333" />
        <path
           id="path62"
           d="M 219.33199,400.58653 V 386.7584 h 2.344 v 13.82813 z m 0,-16.39319 v -2.6948 h 2.344 v 2.6948 h -2.344"
           style="fill:#254aa5;fill-opacity:1;fill-rule:nonzero;stroke:none;stroke-width:0.133333" />
        <path
           id="path63"
           d="m 230.36133,398.49067 0.33866,2.07093 c -0.66,0.13853 -1.25066,0.20773 -1.77066,0.20773 -0.852,0 -1.51067,-0.1348 -1.98,-0.40413 -0.468,-0.26773 -0.79867,-0.6224 -0.98934,-1.06147 -0.19066,-0.43693 -0.28666,-1.35986 -0.28666,-2.76666 v -7.95573 h -1.71867 v -1.82294 h 1.71867 v -3.42386 l 2.33066,-1.40627 v 4.83013 h 2.35734 v 1.82294 h -2.35734 v 8.08653 c 0,0.66813 0.0413,1.09893 0.124,1.28946 0.0827,0.19067 0.216,0.3428 0.404,0.4548 0.18667,0.11294 0.45334,0.1692 0.8,0.1692 0.26134,0 0.604,-0.0307 1.02934,-0.0907"
           style="fill:#254aa5;fill-opacity:1;fill-rule:nonzero;stroke:none;stroke-width:0.133333" />
        <path
           id="path64"
           d="m 241.62399,393.68653 c 0,1.7708 0.372,3.0932 1.12,3.9708 0.74667,0.8772 1.628,1.31467 2.64267,1.31467 1.024,0 1.89467,-0.4188 2.61067,-1.25573 0.71733,-0.83747 1.07466,-2.11614 1.07466,-3.83494 0,-1.89213 -0.364,-3.2812 -1.09333,-4.16666 -0.72933,-0.88533 -1.628,-1.32813 -2.696,-1.32813 -1.04133,0 -1.912,0.4256 -2.61067,1.27613 -0.69866,0.8504 -1.048,2.19213 -1.048,4.02386 z m 7.40934,6.9 v -1.74373 c -0.87734,1.37187 -2.16667,2.05733 -3.868,2.05733 -1.10267,0 -2.11467,-0.30413 -3.04,-0.912 -0.924,-0.6068 -1.64,-1.45626 -2.148,-2.54533 -0.508,-1.0896 -0.76134,-2.3416 -0.76134,-3.75627 0,-1.3812 0.228,-2.63333 0.68934,-3.7572 0.46,-1.12399 1.14933,-1.98546 2.07066,-2.58386 0.91867,-0.6 1.948,-0.89907 3.08534,-0.89907 0.83333,0 1.576,0.17614 2.22666,0.5272 0.652,0.35147 1.18,0.8088 1.58934,1.3744 v -6.84946 h 2.33066 v 19.08799 h -2.17466"
           style="fill:#254aa5;fill-opacity:1;fill-rule:nonzero;stroke:none;stroke-width:0.133333" />
        <path
           id="path65"
           d="m 263.71999,393.6464 c -0.85066,0.34693 -2.12666,0.6428 -3.828,0.88547 -0.96266,0.13853 -1.64533,0.2948 -2.044,0.46933 -0.4,0.17333 -0.708,0.42813 -0.924,0.76147 -0.21733,0.3348 -0.32533,0.7052 -0.32533,1.11346 0,0.62507 0.23467,1.14534 0.70933,1.56254 0.472,0.41613 1.16534,0.62546 2.07734,0.62546 0.90133,0 1.70533,-0.19733 2.408,-0.59373 0.70266,-0.39427 1.21866,-0.9344 1.54933,-1.61973 0.252,-0.5292 0.37733,-1.3104 0.37733,-2.34374 z m 0.196,5.23493 c -0.868,0.73747 -1.704,1.25894 -2.50666,1.56254 -0.80267,0.30413 -1.66534,0.45626 -2.584,0.45626 -1.52,0 -2.688,-0.3724 -3.50267,-1.1136 -0.81733,-0.74266 -1.224,-1.69053 -1.224,-2.84533 0,-0.67707 0.15333,-1.29573 0.46133,-1.85573 0.308,-0.5604 0.712,-1.00934 1.212,-1.3468 0.49867,-0.33854 1.06,-0.5948 1.68534,-0.76934 0.46,-0.12133 1.15333,-0.23853 2.084,-0.35053 1.892,-0.22707 3.28533,-0.4948 4.17866,-0.80827 0.008,-0.31986 0.0133,-0.52506 0.0133,-0.612 0,-0.95466 -0.22134,-1.62653 -0.664,-2.01719 -0.59867,-0.5292 -1.48934,-0.7948 -2.66934,-0.7948 -1.10266,0 -1.916,0.1932 -2.44133,0.57866 -0.52533,0.38694 -0.91333,1.0708 -1.16533,2.05213 l -2.292,-0.3136 c 0.20933,-0.9812 0.55066,-1.77186 1.02933,-2.37546 0.476,-0.60427 1.16667,-1.06827 2.07067,-1.39373 0.90133,-0.32507 1.948,-0.48814 3.13733,-0.48814 1.18,0 2.14,0.13907 2.87733,0.41627 0.73734,0.27853 1.28,0.628 1.628,1.04787 0.34667,0.42133 0.58934,0.9536 0.72934,1.59639 0.0787,0.3984 0.11733,1.11974 0.11733,2.16094 v 3.12546 c 0,2.17867 0.0493,3.55627 0.14933,4.13334 0.0987,0.57706 0.29734,1.13066 0.592,1.65986 h -2.44666 c -0.244,-0.48533 -0.4,-1.05466 -0.46934,-1.7052"
           style="fill:#254aa5;fill-opacity:1;fill-rule:nonzero;stroke:none;stroke-width:0.133333" />
        <path
           id="path66"
           d="M 269.72266,400.58653 V 386.7584 h 2.10933 v 1.96667 c 1.016,-1.51813 2.48267,-2.27867 4.40134,-2.27867 0.83333,0 1.59866,0.1496 2.29866,0.4496 0.69734,0.2984 1.22134,0.69214 1.56934,1.17854 0.34533,0.48546 0.58933,1.06253 0.728,1.73079 0.0867,0.43494 0.13066,1.1932 0.13066,2.27867 v 8.50253 h -2.344 v -8.4104 c 0,-0.95626 -0.0907,-1.6692 -0.27333,-2.14266 -0.18133,-0.47347 -0.50667,-0.85053 -0.96933,-1.13227 -0.46534,-0.2824 -1.00934,-0.424 -1.63467,-0.424 -0.99867,0 -1.86,0.31774 -2.584,0.95107 -0.72533,0.63333 -1.088,1.83586 -1.088,3.60626 v 7.552 h -2.344"
           style="fill:#254aa5;fill-opacity:1;fill-rule:nonzero;stroke:none;stroke-width:0.133333" />
        <path
           id="path67"
           d="m 283.61599,396.46 2.31867,-0.36507 c 0.12933,0.92907 0.492,1.64107 1.08667,2.13587 0.59333,0.49427 1.42533,0.7412 2.49333,0.7412 1.076,0 1.87467,-0.2188 2.396,-0.65733 0.52133,-0.43747 0.78133,-0.952 0.78133,-1.54267 0,-0.5292 -0.23066,-0.94693 -0.69066,-1.25053 -0.32134,-0.2084 -1.11867,-0.47347 -2.39467,-0.7932 -1.72,-0.43494 -2.91067,-0.80947 -3.57467,-1.12707 -0.664,-0.3172 -1.168,-0.7548 -1.51066,-1.31467 -0.344,-0.55986 -0.51467,-1.17866 -0.51467,-1.85573 0,-0.61613 0.14133,-1.18693 0.424,-1.712 0.28133,-0.52546 0.66533,-0.96146 1.152,-1.30933 0.364,-0.26827 0.86,-0.4964 1.49067,-0.6828 0.62933,-0.1864 1.304,-0.28027 2.02533,-0.28027 1.084,0 2.03733,0.15627 2.85733,0.46827 0.82,0.3136 1.42667,0.736 1.81734,1.2708 0.38933,0.53333 0.65866,1.248 0.80666,2.1412 l -2.292,0.312 c -0.104,-0.7104 -0.40533,-1.26667 -0.904,-1.66667 -0.5,-0.3984 -1.20533,-0.5984 -2.116,-0.5984 -1.07733,0 -1.84533,0.17707 -2.30533,0.53427 -0.46133,0.35627 -0.68933,0.77186 -0.68933,1.24946 0,0.30427 0.0947,0.5772 0.28533,0.81987 0.19067,0.25213 0.49067,0.45987 0.89867,0.62547 0.23466,0.0865 0.92533,0.28653 2.07066,0.59853 1.65734,0.44267 2.81334,0.80573 3.46934,1.088 0.656,0.2812 1.16933,0.69213 1.544,1.23067 0.372,0.53746 0.56,1.2052 0.56,2.00413 0,0.78133 -0.228,1.5172 -0.684,2.20787 -0.456,0.6896 -1.11334,1.224 -1.97334,1.6016 -0.85866,0.37706 -1.832,0.56666 -2.916,0.56666 -1.79733,0 -3.16666,-0.37346 -4.108,-1.1204 -0.94266,-0.74626 -1.54266,-1.85306 -1.804,-3.31973"
           style="fill:#254aa5;fill-opacity:1;fill-rule:nonzero;stroke:none;stroke-width:0.133333" />
        <path
           id="path68"
           d="m 305.24399,400.58653 v -19.08799 h 2.344 v 19.08799 h -2.344"
           style="fill:#254aa5;fill-opacity:1;fill-rule:nonzero;stroke:none;stroke-width:0.133333" />
        <path
           id="path69"
           d="m 312.99199,392.34547 h 7.72134 c -0.10534,-1.16414 -0.4,-2.036 -0.88534,-2.6172 -0.748,-0.9032 -1.716,-1.35467 -2.904,-1.35467 -1.07733,0 -1.98266,0.35987 -2.71466,1.0812 -0.73467,0.71973 -1.14,1.68387 -1.21734,2.89067 z m 7.69467,3.788 2.42133,0.3 c -0.38266,1.41453 -1.08933,2.51293 -2.12133,3.2948 -1.03467,0.7812 -2.35333,1.17186 -3.95867,1.17186 -2.024,0 -3.62666,-0.624 -4.81066,-1.86933 -1.18534,-1.24533 -1.77734,-2.99213 -1.77734,-5.24013 0,-2.32654 0.59867,-4.13227 1.796,-5.41707 1.19867,-1.2844 2.752,-1.9272 4.66134,-1.9272 1.84933,0 3.36,0.62974 4.532,1.88814 1.172,1.25879 1.75733,3.02959 1.75733,5.31186 0,0.13907 -0.005,0.34693 -0.0133,0.6256 h -10.312 c 0.0853,1.51867 0.516,2.6828 1.28933,3.4896 0.772,0.80773 1.73467,1.2104 2.89067,1.2104 0.85866,0 1.592,-0.2256 2.2,-0.676 0.60666,-0.45213 1.088,-1.172 1.44533,-2.16253"
           style="fill:#254aa5;fill-opacity:1;fill-rule:nonzero;stroke:none;stroke-width:0.133333" />
        <path
           id="path70"
           d="m 325.11333,396.46 2.31866,-0.36507 c 0.12934,0.92907 0.492,1.64107 1.08667,2.13587 0.59333,0.49427 1.42533,0.7412 2.49333,0.7412 1.076,0 1.87467,-0.2188 2.396,-0.65733 0.52133,-0.43747 0.78133,-0.952 0.78133,-1.54267 0,-0.5292 -0.23066,-0.94693 -0.69066,-1.25053 -0.32133,-0.2084 -1.11867,-0.47347 -2.39467,-0.7932 -1.71866,-0.43494 -2.91066,-0.80947 -3.57466,-1.12707 -0.664,-0.3172 -1.168,-0.7548 -1.51067,-1.31467 -0.344,-0.55986 -0.51467,-1.17866 -0.51467,-1.85573 0,-0.61613 0.14134,-1.18693 0.424,-1.712 0.28134,-0.52546 0.66534,-0.96146 1.152,-1.30933 0.364,-0.26827 0.86134,-0.4964 1.49067,-0.6828 0.62933,-0.1864 1.304,-0.28027 2.02533,-0.28027 1.084,0 2.03734,0.15627 2.85733,0.46827 0.82134,0.3136 1.42667,0.736 1.81734,1.2708 0.39066,0.53333 0.65866,1.248 0.80666,2.1412 l -2.292,0.312 c -0.104,-0.7104 -0.40533,-1.26667 -0.90399,-1.66667 -0.5,-0.3984 -1.20534,-0.5984 -2.116,-0.5984 -1.07734,0 -1.84534,0.17707 -2.30534,0.53427 -0.46133,0.35627 -0.68933,0.77186 -0.68933,1.24946 0,0.30427 0.0947,0.5772 0.28533,0.81987 0.19067,0.25213 0.49067,0.45987 0.89867,0.62547 0.23467,0.0865 0.92533,0.28653 2.07067,0.59853 1.65733,0.44267 2.81333,0.80573 3.47066,1.088 0.65467,0.2812 1.168,0.69213 1.54267,1.23067 0.372,0.53746 0.56,1.2052 0.56,2.00413 0,0.78133 -0.228,1.5172 -0.684,2.20787 -0.456,0.6896 -1.11334,1.224 -1.97334,1.6016 -0.85866,0.37706 -1.83199,0.56666 -2.91599,0.56666 -1.79734,0 -3.16667,-0.37346 -4.108,-1.1204 -0.94267,-0.74626 -1.54267,-1.85306 -1.804,-3.31973"
           style="fill:#254aa5;fill-opacity:1;fill-rule:nonzero;stroke:none;stroke-width:0.133333" />
      </g>
      <g
         id="g112"
         transform="translate(151.25048,-71.823413)">
        <path
           id="path71"
           d="m 110.62133,432.58653 v -1.9 l 8.80267,-10.1052 c -0.99894,0.0521 -1.88027,0.0787 -2.64334,0.0787 h -5.638 v -1.9016 h 11.30214 v 1.54947 l -7.48694,8.77613 -1.44533,1.60253 c 1.04947,-0.0787 2.0348,-0.1172 2.95573,-0.1172 h 6.3932 v 2.0172 h -12.24013"
           style="fill:#254aa5;fill-opacity:1;fill-rule:nonzero;stroke:none;stroke-width:0.133333" />
        <path
           id="path72"
           d="m 126.72866,425.6736 c 0,1.77027 0.38534,3.0968 1.1588,3.97707 0.77187,0.8812 1.7448,1.32133 2.91667,1.32133 1.16253,0 2.13027,-0.44267 2.90387,-1.32813 0.772,-0.88547 1.15866,-2.2344 1.15866,-4.04894 0,-1.71093 -0.38933,-3.00573 -1.16533,-3.88706 -0.77733,-0.8812 -1.74347,-1.32134 -2.8972,-1.32134 -1.17187,0 -2.1448,0.43854 -2.91667,1.31467 -0.77346,0.8776 -1.1588,2.20147 -1.1588,3.9724 z m -2.40893,0 c 0,-2.56147 0.71093,-4.45893 2.13493,-5.6912 1.18907,-1.024 2.63854,-1.536 4.34947,-1.536 1.90053,0 3.45453,0.62293 4.6612,1.86827 1.20533,1.24533 1.80933,2.96666 1.80933,5.16253 0,1.78013 -0.26666,3.18013 -0.8,4.2 -0.53333,1.02027 -1.312,1.812 -2.33066,2.376 -1.02107,0.56413 -2.13414,0.84693 -3.33987,0.84693 -1.9364,0 -3.50147,-0.62133 -4.69427,-1.86306 -1.19373,-1.24107 -1.79013,-3.0292 -1.79013,-5.36347"
           style="fill:#254aa5;fill-opacity:1;fill-rule:nonzero;stroke:none;stroke-width:0.133333" />
        <path
           id="path73"
           d="M 140.02266,432.58653 V 418.7584 h 2.10934 v 1.96667 c 1.016,-1.51814 2.48133,-2.27867 4.40133,-2.27867 0.83333,0 1.59867,0.1496 2.29733,0.4496 0.69867,0.2984 1.22134,0.69213 1.56934,1.17853 0.34666,0.48547 0.59066,1.06254 0.72933,1.7308 0.0867,0.43494 0.13067,1.1932 0.13067,2.27867 v 8.50253 h -2.344 v -8.4104 c 0,-0.95626 -0.0907,-1.6692 -0.27334,-2.14266 C 148.46,421.56 148.136,421.18293 147.672,420.9012 c -0.464,-0.2824 -1.00934,-0.424 -1.63334,-0.424 -0.99866,0 -1.86133,0.31773 -2.58533,0.95107 -0.72533,0.63333 -1.08667,1.83586 -1.08667,3.60626 v 7.552 h -2.344"
           style="fill:#254aa5;fill-opacity:1;fill-rule:nonzero;stroke:none;stroke-width:0.133333" />
        <path
           id="path74"
           d="m 156.624,424.34547 h 7.72133 c -0.104,-1.16414 -0.4,-2.036 -0.88533,-2.6172 -0.74667,-0.9032 -1.71467,-1.35467 -2.904,-1.35467 -1.076,0 -1.98134,0.35987 -2.71467,1.0812 -0.73333,0.71973 -1.13867,1.68387 -1.21733,2.89067 z m 7.696,3.788 2.42133,0.3 c -0.38267,1.41453 -1.08933,2.51293 -2.12267,3.2948 -1.03333,0.7812 -2.352,1.17186 -3.95733,1.17186 -2.024,0 -3.62667,-0.624 -4.812,-1.86933 -1.18533,-1.24533 -1.77733,-2.99213 -1.77733,-5.24013 0,-2.32654 0.59866,-4.13227 1.79733,-5.41707 1.19733,-1.2844 2.75067,-1.9272 4.66133,-1.9272 1.84934,0 3.35867,0.62973 4.53067,1.88813 1.172,1.2588 1.75867,3.0296 1.75867,5.31187 0,0.13907 -0.005,0.34693 -0.0133,0.6256 h -10.312 c 0.0853,1.51867 0.51467,2.6828 1.288,3.4896 0.772,0.80773 1.736,1.2104 2.89067,1.2104 0.86,0 1.59333,-0.2256 2.20133,-0.676 0.60667,-0.45213 1.088,-1.172 1.44534,-2.16253"
           style="fill:#254aa5;fill-opacity:1;fill-rule:nonzero;stroke:none;stroke-width:0.133333" />
        <path
           id="path75"
           d="m 168.74666,428.46 2.31734,-0.36507 c 0.13066,0.92907 0.492,1.64107 1.088,2.13587 0.59333,0.49427 1.42533,0.7412 2.49333,0.7412 1.07467,0 1.87467,-0.2188 2.396,-0.65733 0.52,-0.43747 0.78133,-0.952 0.78133,-1.54267 0,-0.5292 -0.23066,-0.94693 -0.69066,-1.25053 -0.32134,-0.2084 -1.12,-0.47347 -2.396,-0.7932 -1.71867,-0.43494 -2.90934,-0.80947 -3.57334,-1.12707 -0.66533,-0.3172 -1.168,-0.7548 -1.51066,-1.31467 -0.344,-0.55986 -0.51467,-1.17866 -0.51467,-1.85573 0,-0.61613 0.14,-1.18693 0.42267,-1.712 0.28133,-0.52547 0.66533,-0.96147 1.15333,-1.30933 0.364,-0.26827 0.86,-0.4964 1.49067,-0.6828 0.628,-0.1864 1.30266,-0.28027 2.024,-0.28027 1.08533,0 2.03866,0.15627 2.85866,0.46827 0.82,0.3136 1.42534,0.736 1.816,1.2708 0.39067,0.53333 0.65867,1.248 0.808,2.1412 l -2.292,0.312 c -0.104,-0.7104 -0.40666,-1.26667 -0.90533,-1.66667 -0.5,-0.3984 -1.204,-0.5984 -2.116,-0.5984 -1.076,0 -1.84533,0.17707 -2.304,0.53427 -0.46133,0.35626 -0.69067,0.77186 -0.69067,1.24946 0,0.30427 0.0947,0.5772 0.28667,0.81987 0.19067,0.25213 0.48933,0.45987 0.89867,0.62547 0.23466,0.0865 0.924,0.28653 2.07066,0.59853 1.65734,0.44267 2.81334,0.80573 3.46934,1.088 0.65466,0.2812 1.16933,0.69213 1.54266,1.23067 0.37334,0.53746 0.56,1.2052 0.56,2.00413 0,0.78133 -0.228,1.5172 -0.68266,2.20787 -0.456,0.6896 -1.11334,1.224 -1.97334,1.6016 -0.85866,0.37706 -1.832,0.56666 -2.916,0.56666 -1.79733,0 -3.16666,-0.37346 -4.108,-1.1204 -0.94266,-0.74626 -1.544,-1.85306 -1.804,-3.31973"
           style="fill:#254aa5;fill-opacity:1;fill-rule:nonzero;stroke:none;stroke-width:0.133333" />
        <path
           id="path76"
           d="M 190.4,432.58653 V 418.7584 h 2.10933 v 2.0964 c 0.53867,-0.98027 1.036,-1.62653 1.49067,-1.94013 0.456,-0.312 0.95733,-0.46827 1.504,-0.46827 0.78933,0 1.59333,0.25213 2.40933,0.7548 l -0.80667,2.17493 c -0.57333,-0.33906 -1.14666,-0.50826 -1.72,-0.50826 -0.512,0 -0.972,0.15466 -1.38,0.46293 -0.408,0.30787 -0.69866,0.736 -0.872,1.28227 -0.26,0.83333 -0.39066,1.74426 -0.39066,2.73493 v 7.23853 H 190.4"
           style="fill:#254aa5;fill-opacity:1;fill-rule:nonzero;stroke:none;stroke-width:0.133333" />
        <path
           id="path77"
           d="m 208.36933,432.58653 v -2.03066 c -1.07734,1.56293 -2.54,2.34426 -4.388,2.34426 -0.81734,0 -1.57867,-0.15733 -2.28534,-0.46933 -0.708,-0.312 -1.23333,-0.70573 -1.576,-1.17867 -0.34399,-0.47333 -0.58399,-1.052 -0.72266,-1.73746 -0.096,-0.46147 -0.14267,-1.1896 -0.14267,-2.188 v -8.56827 h 2.344 v 7.66987 c 0,1.22386 0.0467,2.04893 0.14267,2.4744 0.14666,0.61613 0.46,1.1 0.93733,1.45053 0.47733,0.35213 1.068,0.52813 1.77067,0.52813 0.704,0 1.36266,-0.18013 1.98,-0.54013 0.616,-0.35987 1.052,-0.85053 1.308,-1.47187 0.256,-0.62026 0.384,-1.52133 0.384,-2.70146 v -7.40947 h 2.344 v 13.82813 h -2.096"
           style="fill:#254aa5;fill-opacity:1;fill-rule:nonzero;stroke:none;stroke-width:0.133333" />
        <path
           id="path78"
           d="M 214.11066,432.58653 V 418.7584 h 2.10933 v 2.0964 c 0.53867,-0.98027 1.036,-1.62653 1.492,-1.94013 0.45467,-0.312 0.956,-0.46827 1.504,-0.46827 0.788,0 1.592,0.25213 2.408,0.7548 l -0.80666,2.17493 c -0.57334,-0.33906 -1.14667,-0.50826 -1.71867,-0.50826 -0.51333,0 -0.97333,0.15466 -1.38,0.46293 -0.40933,0.30787 -0.7,0.736 -0.87333,1.28227 -0.26,0.83333 -0.39067,1.74426 -0.39067,2.73493 v 7.23853 h -2.344"
           style="fill:#254aa5;fill-opacity:1;fill-rule:nonzero;stroke:none;stroke-width:0.133333" />
        <path
           id="path79"
           d="m 231.84533,425.6464 c -0.85067,0.34693 -2.12667,0.6428 -3.828,0.88547 -0.964,0.13853 -1.64534,0.2948 -2.044,0.46933 -0.4,0.17333 -0.708,0.42813 -0.924,0.76147 -0.21867,0.3348 -0.32667,0.7052 -0.32667,1.11346 0,0.62507 0.236,1.14534 0.71067,1.56254 0.472,0.41613 1.16533,0.62546 2.076,0.62546 0.90266,0 1.70666,-0.19733 2.40933,-0.59373 0.70267,-0.39427 1.21867,-0.9344 1.54933,-1.61973 0.25067,-0.5292 0.37734,-1.3104 0.37734,-2.34374 z m 0.196,5.23493 c -0.86934,0.73747 -1.70534,1.25894 -2.50667,1.56254 -0.804,0.30413 -1.66533,0.45626 -2.58533,0.45626 -1.51867,0 -2.68667,-0.3724 -3.50267,-1.1136 -0.816,-0.74266 -1.224,-1.69053 -1.224,-2.84533 0,-0.67707 0.15467,-1.29573 0.46267,-1.85573 0.308,-0.5604 0.71066,-1.00934 1.21066,-1.3468 0.49867,-0.33854 1.06134,-0.5948 1.68667,-0.76934 0.46,-0.12133 1.15333,-0.23853 2.08267,-0.35053 1.892,-0.22707 3.28533,-0.4948 4.18,-0.80827 0.008,-0.31986 0.0133,-0.52506 0.0133,-0.612 0,-0.95466 -0.22133,-1.62653 -0.664,-2.0172 -0.59867,-0.5292 -1.48933,-0.7948 -2.66933,-0.7948 -1.10267,0 -1.91734,0.1932 -2.44134,0.57867 -0.52666,0.38693 -0.91466,1.0708 -1.16533,2.05213 l -2.292,-0.3136 c 0.208,-0.9812 0.55067,-1.77186 1.02933,-2.37546 0.476,-0.60427 1.16667,-1.06827 2.06934,-1.39374 0.90266,-0.32506 1.948,-0.48813 3.13866,-0.48813 1.18,0 2.13867,0.13907 2.87734,0.41627 0.73733,0.27853 1.28,0.628 1.628,1.04786 0.34666,0.42134 0.58933,0.9536 0.72933,1.5964 0.0773,0.3984 0.11733,1.11974 0.11733,2.16094 v 3.12546 c 0,2.17867 0.0493,3.55627 0.14934,4.13334 0.0987,0.57706 0.29733,1.13066 0.592,1.65986 h -2.448 c -0.24267,-0.48533 -0.4,-1.05466 -0.468,-1.7052"
           style="fill:#254aa5;fill-opacity:1;fill-rule:nonzero;stroke:none;stroke-width:0.133333" />
        <path
           id="path80"
           d="m 237.79599,432.58653 v -19.088 h 2.344 v 19.088 h -2.344"
           style="fill:#254aa5;fill-opacity:1;fill-rule:nonzero;stroke:none;stroke-width:0.133333" />
        <path
           id="path81"
           d="m 245.54399,424.34547 h 7.72134 c -0.104,-1.16414 -0.4,-2.036 -0.88534,-2.6172 -0.748,-0.9032 -1.716,-1.35467 -2.904,-1.35467 -1.07733,0 -1.98133,0.35987 -2.71466,1.0812 -0.73467,0.71973 -1.14,1.68387 -1.21734,2.89067 z m 7.69467,3.788 2.42267,0.3 c -0.384,1.41453 -1.09067,2.51293 -2.12267,3.2948 -1.03467,0.7812 -2.35333,1.17186 -3.95867,1.17186 -2.024,0 -3.62666,-0.624 -4.81066,-1.86933 -1.18534,-1.24533 -1.77734,-2.99213 -1.77734,-5.24013 0,-2.32654 0.59867,-4.13227 1.796,-5.41707 1.19867,-1.2844 2.752,-1.9272 4.66134,-1.9272 1.84933,0 3.36,0.62973 4.532,1.88813 1.172,1.2588 1.75733,3.0296 1.75733,5.31187 0,0.13907 -0.005,0.34693 -0.0133,0.6256 h -10.312 c 0.0853,1.51867 0.516,2.6828 1.28933,3.4896 0.772,0.80773 1.736,1.2104 2.89067,1.2104 0.85866,0 1.592,-0.2256 2.2,-0.676 0.60666,-0.45213 1.08933,-1.172 1.44533,-2.16253"
           style="fill:#254aa5;fill-opacity:1;fill-rule:nonzero;stroke:none;stroke-width:0.133333" />
        <path
           id="path82"
           d="m 257.66533,428.46 2.31866,-0.36507 c 0.12934,0.92907 0.492,1.64107 1.08667,2.13587 0.59333,0.49427 1.42533,0.7412 2.49333,0.7412 1.076,0 1.876,-0.2188 2.396,-0.65733 0.52134,-0.43747 0.78134,-0.952 0.78134,-1.54267 0,-0.5292 -0.23067,-0.94693 -0.68934,-1.25053 -0.32266,-0.2084 -1.12,-0.47347 -2.396,-0.7932 -1.71866,-0.43494 -2.91066,-0.80947 -3.57466,-1.12707 -0.664,-0.3172 -1.168,-0.7548 -1.51067,-1.31467 -0.344,-0.55986 -0.51467,-1.17866 -0.51467,-1.85573 0,-0.61613 0.14134,-1.18693 0.424,-1.712 0.28134,-0.52547 0.66534,-0.96147 1.152,-1.30933 0.364,-0.26827 0.86134,-0.4964 1.49067,-0.6828 0.62933,-0.1864 1.304,-0.28027 2.02533,-0.28027 1.084,0 2.03734,0.15627 2.85734,0.46827 0.82133,0.3136 1.42666,0.736 1.81733,1.2708 0.39067,0.53333 0.65867,1.248 0.80667,2.1412 l -2.292,0.312 c -0.104,-0.7104 -0.40534,-1.26667 -0.904,-1.66667 -0.5,-0.3984 -1.20534,-0.5984 -2.116,-0.5984 -1.07734,0 -1.84534,0.17707 -2.30534,0.53427 -0.46,0.35626 -0.68933,0.77186 -0.68933,1.24946 0,0.30427 0.0947,0.5772 0.28533,0.81987 0.19067,0.25213 0.49067,0.45987 0.89867,0.62547 0.23467,0.0865 0.92533,0.28653 2.07067,0.59853 1.65733,0.44267 2.81333,0.80573 3.47066,1.088 0.65467,0.2812 1.16934,0.69213 1.54267,1.23067 0.372,0.53746 0.56,1.2052 0.56,2.00413 0,0.78133 -0.228,1.5172 -0.684,2.20787 -0.456,0.6896 -1.11333,1.224 -1.972,1.6016 -0.86,0.37706 -1.832,0.56666 -2.91733,0.56666 -1.79734,0 -3.16667,-0.37346 -4.108,-1.1204 -0.94267,-0.74626 -1.54267,-1.85306 -1.804,-3.31973"
           style="fill:#254aa5;fill-opacity:1;fill-rule:nonzero;stroke:none;stroke-width:0.133333" />
      </g>
    </g>
    <g
       id="g116"
       transform="matrix(1.354126,0,0,1.354126,-68.34589,-85.502101)">
      <path
         id="path83"
         d="m 17.395333,260.46534 h 4.7916 v 12.85333 c 0,2.04 0.0584,3.36267 0.178133,3.96667 0.204667,0.97066 0.6928,1.75066 1.4652,2.33866 0.7708,0.58934 1.826533,0.88267 3.163467,0.88267 1.360933,0 2.386,-0.27733 3.077066,-0.83333 0.690134,-0.556 1.105734,-1.23867 1.2464,-2.048 0.140667,-0.80934 0.210934,-2.15334 0.210934,-4.03067 v -13.12933 h 4.791599 v 12.46533 c 0,2.84933 -0.130133,4.86267 -0.388,6.03733 -0.259333,1.17734 -0.736933,2.16934 -1.433866,2.98 -0.6952,0.80934 -1.626533,1.45467 -2.7932,1.93334 -1.165067,0.48133 -2.685867,0.72133 -4.564533,0.72133 -2.2656,0 -3.984934,-0.26133 -5.156267,-0.78533 -1.1708,-0.52267 -2.0964,-1.204 -2.776,-2.04 -0.679733,-0.836 -1.1276,-1.71334 -1.343866,-2.63067 -0.3124,-1.36 -0.468667,-3.36667 -0.468667,-6.02133 v -12.66"
         style="fill:#2056ae;fill-opacity:1;fill-rule:nonzero;stroke:none;stroke-width:0.133333" />
      <path
         id="path84"
         d="m 41.418799,284.19734 v -23.732 h 4.6624 l 9.712533,15.848 v -15.848 h 4.4516 v 23.732 h -4.807333 l -9.567733,-15.476 v 15.476 h -4.451467"
         style="fill:#2056ae;fill-opacity:1;fill-rule:nonzero;stroke:none;stroke-width:0.133333" />
      <path
         id="path85"
         d="m 65.167198,284.19734 v -23.732 h 4.7916 v 23.732 h -4.7916"
         style="fill:#2056ae;fill-opacity:1;fill-rule:nonzero;stroke:none;stroke-width:0.133333" />
      <path
         id="path86"
         d="m 78.490131,272.31467 c 0,2.688 0.619734,4.72533 1.860934,6.112 1.240666,1.38667 2.817733,2.08 4.7276,2.08 1.910399,0 3.478133,-0.688 4.703066,-2.064 1.224,-1.376 1.8376,-3.44 1.8376,-6.192 0,-2.72 -0.5964,-4.74933 -1.789067,-6.088 -1.1928,-1.33733 -2.776133,-2.00667 -4.751599,-2.00667 -1.975067,0 -3.567734,0.67734 -4.776,2.03067 -1.2084,1.356 -1.812534,3.39733 -1.812534,6.128 z m -4.937466,0.16267 c 0,-2.41734 0.360933,-4.44667 1.0848,-6.088 0.539066,-1.208 1.276133,-2.292 2.209466,-3.25334 0.933734,-0.96 1.955734,-1.672 3.0676,-2.13733 1.478134,-0.62533 3.183867,-0.93867 5.116134,-0.93867 3.495866,0 6.294399,1.08534 8.393333,3.25467 2.098933,2.16933 3.1484,5.18533 3.1484,9.04933 0,3.83067 -1.041734,6.828 -3.124,8.992 -2.083334,2.164 -4.868134,3.24667 -8.354133,3.24667 -3.528667,0 -6.3344,-1.07733 -8.417734,-3.22933 -2.083333,-2.15334 -3.123866,-5.11867 -3.123866,-8.896"
         style="fill:#2056ae;fill-opacity:1;fill-rule:nonzero;stroke:none;stroke-width:0.133333" />
      <path
         id="path87"
         d="m 100.36146,284.19734 v -23.732 h 4.66254 l 9.7124,15.848 v -15.848 h 4.4516 v 23.732 h -4.80734 l -9.5676,-15.476 v 15.476 h -4.4516"
         style="fill:#2056ae;fill-opacity:1;fill-rule:nonzero;stroke:none;stroke-width:0.133333" />
      <path
         id="path88"
         d="m 133.46666,284.19734 v -23.732 h 17.596 V 264.48 h -12.804 v 5.26134 H 150.172 V 273.74 h -11.91334 v 6.45867 H 151.516 v 3.99867 h -18.04934"
         style="fill:#2056ae;fill-opacity:1;fill-rule:nonzero;stroke:none;stroke-width:0.133333" />
      <path
         id="path89"
         d="M 155.54933,260.46534 H 160.34 v 12.85333 c 0,2.04 0.0587,3.36267 0.17866,3.96667 0.204,0.97066 0.69334,1.75066 1.46534,2.33866 0.77066,0.58934 1.82666,0.88267 3.164,0.88267 1.36,0 2.38533,-0.27733 3.076,-0.83333 0.69066,-0.556 1.10533,-1.23867 1.24666,-2.048 0.14,-0.80934 0.21067,-2.15334 0.21067,-4.03067 v -13.12933 h 4.792 v 12.46533 c 0,2.84933 -0.13067,4.86267 -0.388,6.03733 -0.25867,1.17734 -0.73733,2.16934 -1.43333,2.98 -0.696,0.80934 -1.62667,1.45467 -2.79334,1.93334 -1.16533,0.48133 -2.68666,0.72133 -4.56533,0.72133 -2.26533,0 -3.984,-0.26133 -5.156,-0.78533 -1.17067,-0.52267 -2.096,-1.204 -2.776,-2.04 -0.68,-0.836 -1.128,-1.71334 -1.344,-2.63067 -0.312,-1.36 -0.468,-3.36667 -0.468,-6.02133 v -12.66"
         style="fill:#2056ae;fill-opacity:1;fill-rule:nonzero;stroke:none;stroke-width:0.133333" />
      <path
         id="path90"
         d="m 184.33066,270.50134 h 3.54667 c 2.29733,0 3.73333,-0.096 4.30533,-0.29067 0.572,-0.19467 1.02,-0.528 1.344,-1.004 0.324,-0.47467 0.48534,-1.068 0.48534,-1.78 0,-0.79867 -0.21334,-1.444 -0.63867,-1.93467 -0.428,-0.492 -1.028,-0.80266 -1.80533,-0.932 -0.38934,-0.0533 -1.55467,-0.08 -3.49734,-0.08 h -3.74 z m -4.79066,13.696 v -23.732 h 10.08533 c 2.536,0 4.37867,0.21333 5.52933,0.63866 1.148,0.42667 2.068,1.18534 2.75867,2.27467 0.692,1.09067 1.036,2.336 1.036,3.74 0,1.78133 -0.52267,3.25067 -1.56933,4.41067 -1.048,1.16 -2.612,1.892 -4.69467,2.19466 1.03467,0.604 1.89067,1.268 2.56533,1.99067 0.67467,0.72267 1.584,2.008 2.728,3.85333 l 2.89867,4.62934 h -5.732 l -3.464,-5.164 c -1.23067,-1.84534 -2.07333,-3.008 -2.52533,-3.488 -0.45334,-0.48 -0.93467,-0.80934 -1.44,-0.988 -0.508,-0.17734 -1.312,-0.26667 -2.41334,-0.26667 h -0.972 v 9.90667 H 179.54"
         style="fill:#2056ae;fill-opacity:1;fill-rule:nonzero;stroke:none;stroke-width:0.133333" />
      <path
         id="path91"
         d="m 207.43333,272.31467 c 0,2.688 0.61866,4.72533 1.86,6.112 1.24133,1.38667 2.81733,2.08 4.728,2.08 1.91066,0 3.47733,-0.688 4.70266,-2.064 1.224,-1.376 1.83734,-3.44 1.83734,-6.192 0,-2.72 -0.596,-4.74933 -1.788,-6.088 -1.19334,-1.33733 -2.77734,-2.00667 -4.752,-2.00667 -1.97467,0 -3.568,0.67734 -4.776,2.03067 -1.208,1.356 -1.812,3.39733 -1.812,6.128 z m -4.93734,0.16267 c 0,-2.41734 0.36,-4.44667 1.084,-6.088 0.53867,-1.208 1.276,-2.292 2.20934,-3.25334 0.93333,-0.96 1.956,-1.672 3.068,-2.13733 1.47733,-0.62533 3.184,-0.93867 5.116,-0.93867 3.496,0 6.29466,1.08534 8.39333,3.25467 2.09867,2.16933 3.148,5.18533 3.148,9.04933 0,3.83067 -1.04133,6.828 -3.124,8.992 -2.08267,2.164 -4.868,3.24667 -8.35333,3.24667 -3.52934,0 -6.33467,-1.07733 -8.41867,-3.22933 -2.08267,-2.15334 -3.12267,-5.11867 -3.12267,-8.896"
         style="fill:#2056ae;fill-opacity:1;fill-rule:nonzero;stroke:none;stroke-width:0.133333" />
      <path
         id="path92"
         d="m 234.04799,264.48 v 6.73467 h 2.62134 c 1.888,0 3.152,-0.124 3.788,-0.37333 0.63733,-0.248 1.136,-0.636 1.49733,-1.16534 0.36267,-0.528 0.54267,-1.144 0.54267,-1.84533 0,-0.864 -0.25334,-1.576 -0.76134,-2.13733 -0.50666,-0.56134 -1.148,-0.912 -1.92533,-1.052 -0.57333,-0.108 -1.72133,-0.16134 -3.448,-0.16134 z m -4.792,19.71734 v -23.732 h 7.688 c 2.91467,0 4.81467,0.11866 5.7,0.356 1.35867,0.356 2.49734,1.13066 3.41467,2.32266 0.91733,1.19334 1.37733,2.73334 1.37733,4.62267 0,1.456 -0.26533,2.68133 -0.79333,3.67467 -0.53067,0.99333 -1.20133,1.772 -2.016,2.33866 -0.81467,0.56667 -1.64267,0.94134 -2.48533,1.12534 -1.144,0.22666 -2.80134,0.34 -4.97067,0.34 h -3.12267 v 8.952 h -4.792"
         style="fill:#2056ae;fill-opacity:1;fill-rule:nonzero;stroke:none;stroke-width:0.133333" />
      <path
         id="path93"
         d="m 257.45599,259.10534 2.23467,-4.84 h 5.1 l -4.45333,4.84 z m -6.08533,25.092 v -23.732 h 17.596 V 264.48 h -12.804 v 5.26134 h 11.91333 V 273.74 h -11.91333 v 6.45867 h 13.25733 v 3.99867 h -18.04933"
         style="fill:#2056ae;fill-opacity:1;fill-rule:nonzero;stroke:none;stroke-width:0.133333" />
      <path
         id="path94"
         d="m 273.48533,284.19734 v -23.732 h 17.596 V 264.48 h -12.80534 v 5.26134 h 11.91467 V 273.74 h -11.91467 v 6.45867 h 13.25867 v 3.99867 h -18.04933"
         style="fill:#2056ae;fill-opacity:1;fill-rule:nonzero;stroke:none;stroke-width:0.133333" />
      <path
         id="path95"
         d="m 295.64799,284.19734 v -23.732 h 4.66267 l 9.712,15.848 v -15.848 h 4.452 v 23.732 h -4.808 l -9.56667,-15.476 v 15.476 h -4.452"
         style="fill:#2056ae;fill-opacity:1;fill-rule:nonzero;stroke:none;stroke-width:0.133333" />
      <path
         id="path96"
         d="m 319.59066,284.19734 v -23.732 h 4.66267 l 9.71199,15.848 v -15.848 h 4.452 v 23.732 h -4.808 l -9.56666,-15.476 v 15.476 h -4.452"
         style="fill:#2056ae;fill-opacity:1;fill-rule:nonzero;stroke:none;stroke-width:0.133333" />
      <path
         id="path97"
         d="m 343.48532,284.19734 v -23.732 h 17.596 V 264.48 h -12.80533 v 5.26134 h 11.91467 V 273.74 h -11.91467 v 6.45867 h 13.25867 v 3.99867 h -18.04934"
         style="fill:#2056ae;fill-opacity:1;fill-rule:nonzero;stroke:none;stroke-width:0.133333" />
    </g>
    <g
       id="g115"
       transform="matrix(1.354126,0,0,1.354126,-68.7561,-85.502101)">
      <path
         id="path98"
         d="M 361.80666,249.12267 V 27.930677 H 17.7292 V 249.12267 h 344.07746"
         style="fill:#254aa5;fill-opacity:1;fill-rule:nonzero;stroke:none;stroke-width:0.133333" />
      <path
         id="path99"
         d="m 192.62933,56.270677 h 8.88 v 0.06533 l -6.984,5.181333 3.224,8.849333 -0.068,0.06133 -8.05333,-5.561334 -7.80934,5.561334 -0.0613,-0.06133 3.06133,-8.849333 -7.36266,-5.181333 v -0.06533 h 9.104 l 3.03466,-8.565333 h 0.06 l 2.97467,8.565333"
         style="fill:#fff200;fill-opacity:1;fill-rule:nonzero;stroke:none;stroke-width:0.133333" />
      <path
         id="path100"
         d="m 192.62933,213.44267 h 8.88 v 0.0613 l -6.984,5.184 3.224,8.85066 -0.068,0.064 -8.05333,-5.564 -7.80934,5.564 -0.0613,-0.064 3.06133,-8.85066 -7.36266,-5.184 v -0.0613 h 9.104 l 3.03466,-8.56133 h 0.06 l 2.97467,8.56133"
         style="fill:#fff200;fill-opacity:1;fill-rule:nonzero;stroke:none;stroke-width:0.133333" />
      <path
         id="path101"
         d="m 271.41866,132.95867 h 8.888 v 0.068 l -6.984,5.18134 3.21733,8.84933 -0.0613,0.0613 -8.06,-5.564 -7.80267,5.564 -0.0613,-0.0613 3.06133,-8.84933 -7.36266,-5.18134 v -0.068 h 9.104 l 3.02666,-8.56133 h 0.068 l 2.96667,8.56133"
         style="fill:#fff200;fill-opacity:1;fill-rule:nonzero;stroke:none;stroke-width:0.133333" />
      <path
         id="path102"
         d="m 113.82973,132.95867 h 8.8796 v 0.068 l -6.98333,5.18134 3.2224,8.84933 -0.0624,0.0613 -8.05894,-5.564 -7.80466,5.564 -0.0645,-0.0613 3.06667,-8.84933 -7.364666,-5.18134 v -0.068 h 9.102666 l 3.0344,-8.56133 h 0.0624 l 2.9704,8.56133"
         style="fill:#fff200;fill-opacity:1;fill-rule:nonzero;stroke:none;stroke-width:0.133333" />
      <path
         id="path103"
         d="m 232.65999,64.701343 h 8.87334 v 0.06 l -6.98267,5.185333 3.224,8.846667 -0.0613,0.064 -8.06,-5.561333 -7.804,5.561333 -0.0667,-0.064 3.068,-8.846667 -7.36267,-5.185333 v -0.06 h 9.10267 l 3.03467,-8.565333 h 0.0613 l 2.97333,8.565333"
         style="fill:#fff200;fill-opacity:1;fill-rule:nonzero;stroke:none;stroke-width:0.133333" />
      <path
         id="path104"
         d="m 260.88666,93.773342 h 8.88 v 0.06133 l -6.984,5.185333 3.224,8.849335 -0.06,0.06 -8.06133,-5.56 -7.80267,5.56 -0.068,-0.06 3.068,-8.849335 -7.36267,-5.185333 v -0.06133 h 9.09734 l 3.03466,-8.565333 h 0.0667 l 2.968,8.565333"
         style="fill:#fff200;fill-opacity:1;fill-rule:nonzero;stroke:none;stroke-width:0.133333" />
      <path
         id="path105"
         d="m 260.88666,172.99067 h 8.88 v 0.064 l -6.984,5.18267 3.224,8.84933 -0.06,0.06 -8.06133,-5.56 -7.80267,5.56 -0.068,-0.06 3.068,-8.84933 -7.36267,-5.18267 v -0.064 h 9.09734 l 3.03466,-8.56533 h 0.0667 l 2.968,8.56533"
         style="fill:#fff200;fill-opacity:1;fill-rule:nonzero;stroke:none;stroke-width:0.133333" />
      <path
         id="path106"
         d="m 232.23333,199.96001 h 8.88 v 0.06 l -6.98267,5.18533 3.224,8.84667 -0.0613,0.064 -8.06,-5.56 -7.81067,5.56 -0.06,-0.064 3.068,-8.84667 -7.36267,-5.18533 v -0.06 h 9.104 l 3.028,-8.56534 h 0.0667 l 2.96667,8.56534"
         style="fill:#fff200;fill-opacity:1;fill-rule:nonzero;stroke:none;stroke-width:0.133333" />
      <path
         id="path107"
         d="m 152.596,64.701343 h 8.88 v 0.06 l -6.98267,5.185333 3.224,8.846667 -0.068,0.064 -8.05333,-5.561333 -7.808,5.561333 -0.0627,-0.064 3.064,-8.846667 -7.36267,-5.185333 v -0.06 h 9.10134 l 3.03466,-8.565333 h 0.06 l 2.97334,8.565333"
         style="fill:#fff200;fill-opacity:1;fill-rule:nonzero;stroke:none;stroke-width:0.133333" />
      <path
         id="path108"
         d="m 125.20733,93.773342 h 8.88067 v 0.06133 l -6.98534,5.185333 3.22387,8.849335 -0.0625,0.06 -8.0588,-5.56 -7.8068,5.56 -0.0624,-0.06 3.06506,-8.849335 -7.36306,-5.185333 v -0.06133 h 9.1 l 3.03493,-8.565333 h 0.0625 l 2.97187,8.565333"
         style="fill:#fff200;fill-opacity:1;fill-rule:nonzero;stroke:none;stroke-width:0.133333" />
      <path
         id="path109"
         d="m 124.78546,172.99067 h 8.8812 v 0.064 l -6.986,5.18267 3.224,8.84933 -0.0625,0.06 -8.0588,-5.56 -7.8068,5.56 -0.0625,-0.06 3.0652,-8.84933 -7.36307,-5.18267 v -0.064 h 9.10213 l 3.0328,-8.56533 h 0.0645 l 2.96986,8.56533"
         style="fill:#fff200;fill-opacity:1;fill-rule:nonzero;stroke:none;stroke-width:0.133333" />
      <path
         id="path110"
         d="m 153.86,199.96001 h 8.876 v 0.06 l -6.976,5.18533 3.21733,8.84667 -0.0613,0.064 -8.06,-5.56 -7.804,5.56 -0.064,-0.064 3.06533,-8.84667 -7.36267,-5.18533 v -0.06 h 9.10134 l 3.036,-8.56534 h 0.0613 l 2.97067,8.56534"
         style="fill:#fff200;fill-opacity:1;fill-rule:nonzero;stroke:none;stroke-width:0.133333" />
    </g>
  </g>
</svg>
