<?xml version="1.0" encoding="UTF-8"?>
<!-- Created with Inkscape (http://www.inkscape.org/) -->
<svg width="1440" height="670.05" version="1.1" viewBox="0 0 1440 670.05" xmlns="http://www.w3.org/2000/svg">
 <defs>
  <style><![CDATA[
.class1 {
  fill:#a5c235;
}
]]></style>
 </defs>
 <path d="m43 105.03h8.353v106.48h-8.353z"/>
 <path d="m110 175.01h-2.391c-14.453 0-31.69 1.572-31.69 17.465 0 9.513 6.3585 13.06 14.057 13.06 19.626 0 20.024-18.313 20.024-26.116zm0.793 24.845h-0.268c-3.71 8.665-13.129 13.353-21.482 13.353-19.236 0-22.281-13.919-22.281-20.45 0-24.271 24.141-25.406 41.645-25.406h1.593v-3.686c0-12.355-4.117-18.599-15.386-18.599-7.0331 0-13.66 1.705-19.89 5.962v-8.661c5.1693-2.698 13.924-4.969 19.89-4.969 16.71 0 23.738 8.094 23.738 26.973v31.941c0 5.814 0 10.218 0.66 15.193h-8.219z"/>
 <path d="m160.6 105.06h23.867v106.48h-23.867z"/>
 <path d="m228.75 125.52h-23.872v-18.74h23.872zm-23.872 12.063h23.872v73.969h-23.872z"/>
 <path d="m281 191.91c8.482 0 15.248-7.664 15.248-19.017 0-8.228-4.504-17.463-15.248-17.463-8.888 0-13.53 8.377-13.53 18.455 0 11.497 6.373 18.025 13.53 18.025m38.322 10.937c0 30.375-13.789 40.171-41.635 40.171-11.408 0-20.817-2.564-26.393-4.688l1.191-20.153c7.301 3.831 13.397 6.096 23.342 6.096 13.789 0 21.214-6.953 21.214-21.426v-3.977h-0.264c-5.699 8.665-13.654 12.642-23.206 12.642-18.962 0-30.763-15.337-30.763-37.2 0-22.002 9.677-38.47 31.164-38.47 10.208 0 18.432 5.967 23.472 15.049h0.266v-13.348h21.612z"/>
 <path d="m408 211.51h-21.754v-13.636h-0.264c-4.776 10.649-14.324 15.337-25.195 15.337-18.831 0-26.389-14.195-26.389-29.532v-46.138h23.867v35.771c0 13.913 4.509 18.596 11.007 18.596 9.815 0 14.85-7.232 14.85-23.138v-31.229h23.878z"/>
 <path d="m470 167.49c0-8.517-3.715-15.47-13.264-15.47-8.614 0-12.722 6.953-13.253 15.47zm-26.254 14.478c1.325 10.223 8.621 14.2 20.287 14.2 6.498 0 13.923-1.567 21.085-5.683v18.033c-7.689 3.264-16.438 4.688-25.326 4.688-22.806 0-40.181-14.343-40.181-38.762 0-24.408 15.515-38.609 36.996-38.609 25.595 0 34.874 19.447 34.874 41.451v4.682z"/>
 <path d="m555 205.54c14.856 0 20.022-17.033 20.022-30.231 0-13.204-5.166-30.237-20.022-30.237-15.912 0-20.023 16.18-20.023 30.237 0 14.051 4.111 30.231 20.023 30.231m28.381 5.972h-8.359v-11.503h-0.261c-4.509 9.227-11.404 13.204-21.09 13.204-18.561 0-27.846-16.467-27.846-37.904 0-22.008 7.961-37.905 27.846-37.905 13.263 0 19.894 10.367 21.09 13.913h0.261v-46.281h8.359z"/>
 <path d="m644 170.2c0-12.642-4.776-25.127-17.241-25.127-12.336 0-19.894 13.198-19.894 25.127zm4.107 39.035c-5.838 2.555-13.392 3.979-19.621 3.979-22.42 0-30.768-16.185-30.768-37.906 0-22.15 11.404-37.903 28.516-37.903 19.09 0 26.912 16.471 26.912 35.91v4.549h-46.281c0 15.321 7.698 27.676 22.285 27.676 6.096 0 14.979-2.693 18.957-5.391z"/>
 <path d="m43.007 247.03h8.3531v106.47h-8.3531z"/>
 <path d="m76.29 254.42h8.3531v30.941h-8.3531z"/>
 <path d="m153 309.47c0-8.517-3.715-15.466-13.257-15.466-8.621 0-12.733 6.949-13.258 15.466zm-26.253 14.473c1.324 10.228 8.611 14.201 20.286 14.201 6.498 0 13.928-1.563 21.085-5.68v18.029c-7.693 3.26-16.447 4.684-25.326 4.684-22.815 0-40.185-14.341-40.185-38.754s15.519-38.604 37.001-38.604c25.594 0 34.874 19.443 34.874 41.447v4.677z"/>
 <path d="m187 279.52h21.754v13.62h0.268c4.772-10.644 14.32-15.321 25.191-15.321 18.824 0 26.394 14.19 26.394 29.516v46.139h-23.872v-35.776c0-13.913-4.509-18.59-11.007-18.59-9.815 0-14.851 7.241-14.851 23.134v31.232h-23.877z"/>
 <path d="m274 333.03c5.569 2.559 13.789 5.113 22.414 5.113 4.901 0 9.672-0.853 9.672-5.956 0-12.499-33.946-3.696-33.946-30.38 0-17.038 15.649-23.988 29.442-23.988 8.22 0 16.573 0.998 24.27 4.256l-1.86 17.738c-5.04-3.263-12.594-4.966-18.566-4.966-5.172 0-11.007 0.993-11.007 5.114 0 11.499 35.545 2.411 35.545 30.52 0 19.726-16.577 24.695-32.23 24.695-10.738 0-18.03-1.131-25.063-3.55z"/>
 <path d="m389 309.47c0-8.517-3.711-15.466-13.258-15.466-8.625 0-12.732 6.949-13.264 15.466zm-26.254 14.473c1.325 10.228 8.616 14.201 20.287 14.201 6.492 0 13.927-1.563 21.08-5.68v18.029c-7.688 3.26-16.442 4.684-25.326 4.684-22.812 0-40.182-14.341-40.182-38.754s15.516-38.604 37.002-38.604c25.589 0 34.874 19.443 34.874 41.447v4.677z"/>
 <path d="m449.68 267.49h-23.867v-18.738h23.867zm-23.867 12.068h23.867v73.954h-23.867z"/>
 <path d="m502 333.89c8.488 0 15.248-7.673 15.248-19.017 0-8.244-4.508-17.465-15.248-17.465-8.888 0-13.53 8.373-13.53 18.452 0 11.497 6.368 18.03 13.53 18.03m38.316 10.932c0 30.37-13.783 40.165-41.633 40.165-11.404 0-20.822-2.553-26.389-4.686l1.191-20.158c7.292 3.84 13.397 6.11 23.342 6.11 13.789 0 21.219-6.958 21.219-21.431v-3.984h-0.268c-5.704 8.666-13.665 12.64-23.207 12.64-18.958 0-30.762-15.332-30.762-37.196 0-21.994 9.676-38.461 31.158-38.461 10.213 0 18.437 5.958 23.477 15.039h0.257v-13.337h21.615z"/>
 <path d="m556 279.52h21.754v13.62h0.259c4.776-10.644 14.325-15.321 25.196-15.321 18.835 0 26.388 14.19 26.388 29.516v46.139h-23.868v-35.776c0-13.913-4.503-18.59-11.006-18.59-9.81 0-14.85 7.241-14.85 23.134v31.232h-23.873z"/>
 <path d="m691 309.47c0-8.517-3.709-15.466-13.264-15.466-8.614 0-12.726 6.949-13.257 15.466zm-26.254 14.473c1.325 10.228 8.612 14.201 20.287 14.201 6.498 0 13.928-1.563 21.075-5.68v18.029c-7.683 3.26-16.437 4.684-25.321 4.684-22.812 0-40.18-14.341-40.18-38.754s15.519-38.604 37-38.604c25.595 0 34.884 19.443 34.884 41.447v4.677z"/>
 <path d="m725 279.52h21.754v13.62h0.269c4.771-10.644 14.315-15.321 25.197-15.321 9.801 0 17.896 4.533 21.605 14.19 5.566-9.934 14.732-14.19 24.534-14.19 19.9 0 24.413 12.057 24.413 32.076v43.579h-23.889v-39.744c0-8.377-2.777-14.622-9.533-14.622-8.501 0-13.541 7.241-13.541 23.134v31.232h-23.848v-39.744c0-8.377-2.797-14.622-9.562-14.622-8.492 0-13.521 7.241-13.521 23.134v31.232h-23.878z"/>
 <path d="m905 309.47c0-8.517-3.729-15.466-13.262-15.466-8.621 0-12.737 6.949-13.253 15.466zm-26.267 14.473c1.338 10.228 8.619 14.201 20.286 14.201 6.508 0 13.927-1.563 21.099-5.68v18.029c-7.697 3.26-16.457 4.684-25.335 4.684-22.806 0-40.176-14.341-40.176-38.754s15.505-38.604 36.981-38.604c25.604 0 34.889 19.443 34.889 41.447v4.677z"/>
 <path d="m939 279.52h21.745v13.62h0.257c4.772-10.644 14.334-15.321 25.197-15.321 18.841 0 26.401 14.19 26.401 29.516v46.139h-23.881v-35.776c0-13.913-4.504-18.59-11.001-18.59-9.821 0-14.851 7.241-14.851 23.134v31.232h-23.867z"/>
 <path d="m1021 279.52h14.06v-16.61l23.46-7.808v24.418h16.71v17.886h-16.71v27.245c0 8.948 1.99 13.492 9.54 13.492 2.4 0 4.92-0.57 7.31-0.992l0.8 16.6c-4.51 0.571-9.03 1.424-14.99 1.424-21.35 0-26.52-10.073-26.52-27.682v-30.087h-13.66z"/>
 <path d="m50.578 539.23c1.4876 0 2.6564-1.2751 2.7627-2.6564v-15.195c0-0.10625 0.10626-0.31877 0.31877-0.31877h12.113c0.31877-0.10626 0.53129-0.31877 0.53129-0.53129v-8.1817c0-0.21252-0.21252-0.53129-0.53129-0.53129h-12.113c-0.10626 0-0.31877-0.10626-0.31877-0.31877v-7.7566c0-0.10626 0.21252-0.31878 0.31877-0.31878h18.595c0.31877 0 0.53129-0.21251 0.63755-0.53129v-7.9695c-0.10626-0.21252-0.21252-0.53129-0.63755-0.53129h-26.99c-1.3813 0.10626-2.444 1.2751-2.6564 2.6564v39.422c0.10626 1.4876 1.1689 2.6564 2.6564 2.7627z"/>
 <path d="m83.511 539.33c-1.3813 0-2.7627-1.1689-2.7627-2.5502l-0.10626-39.528c0.10626-1.5939 1.3813-2.869 2.869-2.869h27.202c0.31877 0 0.53129 0.31877 0.53129 0.53129v8.0756c0 0.31878-0.21252 0.42504-0.53129 0.42504h-19.126c-0.10626 0-0.21252 0.21251-0.21252 0.42503v7.5445c0 0.21252 0.10626 0.31877 0.21252 0.31877h12.857c0.31877 0 0.53129 0.31878 0.53129 0.53129v8.0756c0 0.31877-0.21252 0.42503-0.53129 0.42503h-12.645c-0.21252 0-0.31877 0.21251-0.31877 0.42503v8.6067c0 0.21252 0.10626 0.31878 0.31877 0.31878h20.189c0.42503 0 0.53129 0.31877 0.53129 0.53129v8.1817c0 0.31877-0.21252 0.53129-0.53129 0.53129zm21.996-60.142h-5.5254c-0.95629 0-2.0189-0.10626-3.1877 1.5939-1.0626 1.5939-4.2503 6.4817-4.4628 6.8005-0.53129 0.95629-0.42503 2.2314 1.4876 2.2314 1.9126 0 3.294 0.21251 4.3565-0.53129 1.8063-1.1689 7.5445-7.0127 8.1817-7.7566 1.1689-1.0626 0.74384-2.3377-0.85006-2.3377z"/>
 <path d="m123.59 539.33s11.795 0 12.751-0.10626c3.7191-0.31877 6.4817-0.63754 9.6696-2.2314 4.1441-2.2314 6.2692-6.588 6.2692-13.176l0.10626-7.5445c0-10.201-0.85006-13.176-2.7627-15.939-2.444-3.5065-6.2692-5.9504-17.107-5.9504l-8.8196 0.10626c-1.4876 0.10625-2.6564 1.2751-2.6564 2.7627v39.422c0.21252 1.3813 1.2751 2.444 2.5502 2.6564zm11.263-36.022c2.2314 0.10626 3.8253 0.31877 5.2066 2.444 1.2751 1.7001 1.4876 5.2066 1.4876 10.732 0 0.63755-0.10626 4.5691-0.10626 5.3129-0.21252 8.2884-3.4002 8.5006-7.1194 8.6067h-2.1252c-0.10626 0-0.31877-0.10626-0.31877-0.21252v-26.564c0-0.21252 0.21251-0.31877 0.31877-0.31877h2.6564z"/>
 <path d="m165.16 539.33c-1.3813 0-2.7627-1.1689-2.7627-2.5502l-0.10625-39.528c0.10625-1.5939 1.3813-2.869 2.869-2.869h27.202c0.31877 0 0.53129 0.31877 0.53129 0.53129v8.0756c0 0.31878-0.21252 0.42504-0.53129 0.42504h-19.126c-0.10625 0-0.21251 0.21251-0.21251 0.42503v7.5445c0 0.21252 0.10626 0.31877 0.21251 0.31877h12.857c0.31877 0 0.53129 0.31878 0.53129 0.53129v8.0756c0 0.31877-0.21252 0.42503-0.53129 0.42503h-12.645c-0.21252 0-0.31877 0.21251-0.31877 0.42503v8.6067c0 0.21252 0.10625 0.31878 0.31877 0.31878h20.189c0.42503 0 0.53129 0.31877 0.53129 0.53129v8.1817c0 0.31877-0.21251 0.53129-0.53129 0.53129zm21.996-60.142h-5.5254c-0.95629 0-2.0189-0.10626-3.1877 1.5939-1.0626 1.5939-4.2503 6.4817-4.4628 6.8005-0.53128 0.95629-0.42503 2.2314 1.4876 2.2314s3.294 0.21251 4.3565-0.53129c1.8064-1.1689 7.5445-7.0127 8.1817-7.7566 1.1689-1.0626 0.74384-2.3377-0.85006-2.3377z"/>
 <path d="m224.89 539.33h10.413c0.42503 0 0.63755-0.53129 0.42503-0.74384l-9.0317-18.595c-0.10626-0.21251 0.10626-0.42503 0.10626-0.42503 6.588-2.3377 7.8627-7.7566 7.8627-11.901 0-5.3129-1.9126-9.2446-5.7379-11.157-3.1877-1.8064-7.2255-2.0189-10.945-2.0189h-14.132c-0.10626 0-0.53129 0.21251-0.53129 0.42503v43.884c0 0.21252 0.21252 0.53129 0.53129 0.53129h9.4568c0.31878-0.10626 0.53129-0.31877 0.53129-0.53129v-17.001c0-0.21251 0.10626-0.42503 0.31878-0.42503h1.8064c0.10625 0 0.31877 0.10626 0.31877 0.21252l8.0756 17.426c0.10626 0.21251 0.31878 0.31877 0.53129 0.31877zm-11.051-36.765c0-0.10626 0.21252-0.21252 0.63755-0.21252 4.9942 0 5.5254 0 6.8005 0.53129 1.8064 0.74384 2.3377 1.9126 2.444 4.6753-0.10625 2.3377-0.10625 4.3565-2.9752 5.4192-1.1689 0.42503-1.9126 0.42503-6.588 0.42503-0.21251 0-0.31877-0.31878-0.31877-0.31878z"/>
 <path d="m243.08 539.33h6.3755c0.31877 0 1.7001-0.31877 2.1252-2.2314l1.5939-6.2692c0-0.10626 0.21251-0.21252 0.31877-0.21252h12.113c0.10626 0 0.31878 0.10626 0.31878 0.21252l1.7001 6.588s0.31877 1.8064 2.2314 1.9126h6.163s1.8064-0.31877 1.8064-2.1252c0-0.85006-11.795-41.228-11.795-41.228-0.21252-0.74384-0.95629-1.5939-2.0189-1.5939h-9.2446c-1.7001 0-2.0189 1.5939-2.0189 1.7001 0 0-11.582 40.591-11.582 41.228 0 1.7001 1.4876 1.9126 1.9126 2.0189zm16.045-33.577c0-0.10626 0.10626-0.21251 0.31878-0.21251 0.10625 0 0.21251 0.10625 0.31877 0.21251l3.8253 15.939v0.21252c-0.10626 0.10626-0.21252 0.21251-0.31877 0.21251h-7.6506c-0.10625 0-0.21251-0.10625-0.21251-0.21251-0.10626 0-0.21252-0.10626-0.10626-0.21252z"/>
 <path d="m292.29 539.33h10.095c0.31877 0 0.42503-0.21252 0.53128-0.53129v-34.959c0-0.21251 0.10626-0.31877 0.31878-0.31877h10.095c0.21252 0 0.53129-0.31878 0.53129-0.53129v-8.0756c0-0.21251-0.31877-0.53128-0.53129-0.42503h-32.196c-0.31877 0-0.53129 0.31878-0.53129 0.42503v8.0756c0 0.21251 0.31878 0.53129 0.53129 0.53129h10.307c0.21252 0 0.42503 0.10626 0.42503 0.31877v34.959c0 0.31877 0.10626 0.53129 0.42503 0.53129z"/>
 <path d="m332.45 539.33c0.31877 0 0.53129-0.21252 0.53129-0.53129v-43.884c0-0.21251-0.21252-0.53128-0.53129-0.53128h-9.6696c-0.21252 0-0.53129 0.21251-0.53129 0.53128v43.884c0 0.21252 0.21251 0.53129 0.53129 0.53129z"/>
 <path d="m360.19 540.61c6.2692 0 12.007-2.5502 14.345-9.3507 1.0626-3.0814 1.1689-5.9504 1.1689-9.0318v-11.689c0-6.6943-1.1689-9.5629-3.9315-12.432-2.6564-2.9752-6.4817-4.3565-11.582-4.4628-3.8253 0-8.5006 0.74384-11.689 4.3565-2.7627 2.9752-4.0378 6.9066-3.9315 12.539v11.689c0 1.5939 0.10626 5.6316 1.0626 9.0317 2.6564 8.7128 10.732 9.3507 14.557 9.3507zm0-37.828c2.444 0 3.294 0.85007 3.9315 2.0189 0.53129 1.1689 0.63755 2.6564 0.53129 4.2503v15.195c0 1.5939 0 3.5065-0.63755 4.8879-0.53129 1.4876-1.4876 2.444-4.0378 2.444-4.1441 0-4.4628-3.0814-4.5691-7.3316v-15.195c0-1.1689 0-3.0814 0.53129-4.2503 0.63754-1.2751 1.7001-2.0189 4.2503-2.0189z"/>
 <path d="m410.68 539.33h7.8627c0.31878-0.10626 0.42504-0.21252 0.53129-0.53129v-43.884c0-0.21251-0.21251-0.53128-0.53129-0.53128h-8.8196c-0.21252 0.10625-0.53129 0.42503-0.53129 0.53128v16.363c0 1.7001 0.10625 5.6316 0.10625 5.6316 0 0.31877-0.31877 0.42503-0.53128 0.10626-0.31878-0.63755-0.63755-1.2751-0.95629-1.8064l-11.263-20.508c-0.10626-0.21252-0.31877-0.31877-0.53129-0.31877h-9.1385c-0.21252 0-0.53129 0.31877-0.53129 0.53128v43.884c0 0.21252 0.21252 0.53129 0.53129 0.53129h8.8196c0.21251 0 0.53129-0.21252 0.53129-0.53129v-20.508c0-0.74384-0.10626-2.869-0.10626-4.1441 0-0.31877 0.31877-0.42503 0.63755-0.10625 0.85006 2.0189 1.0626 2.5502 1.7001 3.719l11.795 21.252c0 0.21251 0.21251 0.31877 0.42503 0.31877z"/>
 <path d="m76.439 604.04c0.3387 0 0.59275-0.3387 0.59275-0.59275v-46.572c0-0.25403-0.16935-0.59276-0.59275-0.59276h-10.415c-0.3387 0-0.59275 0.3387-0.59275 0.59276v16.766c0 0.16935-0.16935 0.3387-0.3387 0.3387h-11.262c-0.16935 0-0.3387-0.16935-0.3387-0.3387v-16.766c0-0.25403-0.25402-0.59276-0.59275-0.59276h-10.33c-0.3387 0-0.59275 0.3387-0.50805 0.59276v46.572c-0.08468 0.25402 0.25402 0.59275 0.50805 0.59275h10.415c0.25402 0 0.59275-0.25402 0.59275-0.59275v-19.136c0-0.25403 0.08468-0.42338 0.3387-0.42338h11.347c0.16935 0 0.42338 0.16935 0.42338 0.42338v19.136c-0.08467 0.25402 0.25402 0.59275 0.50805 0.59275z"/>
 <path d="m87.657 604.04h6.774c0.25402 0 1.6935-0.42337 2.2863-2.3709l1.6089-6.6895c0-0.0847 0.16935-0.25403 0.3387-0.25403h12.871c0.16935 0 0.25403 0.16935 0.3387 0.25403l1.7782 7.0282s0.3387 1.9476 2.3709 2.0322h6.6049s1.9476-0.3387 1.8628-2.2862c0-0.84675-12.532-43.862-12.532-43.862-0.16935-0.76205-1.0161-1.6089-2.1168-1.6089h-9.8223c-1.8628 0-2.2015 1.6089-2.2015 1.7782 0 0-12.278 43.185-12.278 43.862 0.08468 1.6935 1.6089 2.0322 2.1168 2.1168zm16.935-35.648c0.0847-0.0847 0.25402-0.25402 0.3387-0.25402 0.16935 0 0.3387 0.16935 0.42337 0.25402l4.0644 16.935c0 0.0847 0 0.16935-0.0847 0.25403 0 0.0847-0.16935 0.0847-0.25403 0.0847h-8.2133c-0.0847 0-0.16935 0-0.25402-0.0847 0-0.0847-0.0847-0.16935 0-0.25403z"/>
 <path d="m137.47 601.08c2.7096 2.5402 7.8746 4.2338 13.125 4.0644 5.2498-0.0847 8.8062-1.2702 11.854-3.641 4.9112-4.0644 4.9958-10.838 4.9958-13.887v-30.822c0-0.25403-0.25402-0.50805-0.50805-0.50805h-10.33c-0.25402 0-0.59275 0.16935-0.59275 0.50805v30.822c-0.0847 2.2016-0.3387 3.8103-0.84675 4.9112-1.1008 2.7096-2.9636 2.7942-4.9112 2.9636-3.7257-0.0847-4.5724-1.4394-5.1652-2.879-0.76205-1.5242-0.84675-3.387-0.84675-5.0805v-30.737c0.0847-0.25403-0.16935-0.50805-0.50805-0.50805h-10.584c-0.42337 0-0.59275 0.3387-0.59275 0.50805v30.144c0 3.5564 0 9.5681 4.9112 14.141z"/>
 <path d="m188.23 604.04h10.669c0.3387 0 0.50805-0.25402 0.59275-0.59275v-37.088c0-0.25403 0.16935-0.3387 0.3387-0.3387h10.754c0.25403 0 0.50805-0.3387 0.50805-0.59276v-8.552c0-0.25403-0.25402-0.59276-0.50805-0.50805h-34.209c-0.3387 0-0.59275 0.3387-0.59275 0.50805v8.552c0 0.25403 0.25403 0.59276 0.59275 0.59276h10.923c0.25403 0 0.42338 0.0847 0.42338 0.3387v37.088c0 0.3387 0.16935 0.59275 0.50805 0.59275z"/>
 <path d="m251.93 604.04c0.25402 0 0.59275-0.16935 0.59275-0.50805v-8.7217c0-0.25403-0.25402-0.50805-0.59275-0.59275h-21.508c-0.25403 0-0.3387-0.16935-0.3387-0.3387v-9.1449c0-0.16935 0.0847-0.3387 0.3387-0.3387h13.463c0.25402-0.0847 0.50805-0.25403 0.50805-0.59275v-8.4675c0-0.3387-0.16935-0.59276-0.50805-0.59276h-13.633c-0.16935 0-0.3387-0.0847-0.3387-0.25402v-8.1288c0-0.25403 0.16935-0.3387 0.3387-0.3387h20.237c0.3387 0 0.59275-0.25403 0.59275-0.59275v-8.4675c0-0.3387-0.25402-0.59276-0.59275-0.59276h-28.79c-1.6935 0-3.0483 1.2702-3.0483 2.9637v42.083c0 1.4394 1.5242 2.625 3.0483 2.625z"/>
 <path d="m258.89 591.42h16.935v-8.7217h-16.935z"/>
 <path d="m320.26 604.04h8.9753c0.3387 0 0.50805-0.3387 0.59275-0.59275v-46.572c0-0.25403-0.25402-0.59276-0.59275-0.59276h-13.802c-0.25403 0-0.42338 0.25403-0.50805 0.50805l-5.5037 19.136c-0.84675 3.0483-1.3548 5.3346-1.8628 7.6205-0.0847 0.25403-0.59275 0.42338-0.6774 0-0.3387-1.3548-1.8628-6.9431-1.9476-7.3669-0.42338-1.4394-5.5037-19.39-5.5037-19.39-0.0847-0.25402-0.3387-0.50805-0.59276-0.50805h-13.633c-0.3387 0-0.59276 0.3387-0.59276 0.59276v46.572c0 0.16935 0.16935 0.50805 0.59276 0.59275h8.8062c0.25402 0 0.59275-0.25403 0.59275-0.59275v-25.064c0-1.0161-0.16935-3.6411-0.25403-6.4353 0-0.50805 0.59275-0.42338 0.6774-0.0847l8.2133 31.753c0 0.25403 0.3387 0.42338 0.59275 0.42338h7.0282c0.25403 0 0.42338-0.16935 0.50805-0.42338l7.7901-31.076c0.16935-0.42337 0.6774-0.25402 0.6774 0.0847-0.0847 2.5402-0.0847 4.4031-0.0847 5.7579v25.064c0 0.16935 0.0847 0.50805 0.50805 0.59275z"/>
 <path d="m340.56 604.04h6.774c0.25403 0 1.6935-0.42337 2.2862-2.3709l1.6088-6.6895c0-0.0847 0.16935-0.25403 0.3387-0.25403h12.871c0.16935 0 0.25403 0.16935 0.3387 0.25403l1.7782 7.0282s0.3387 1.9476 2.3709 2.0322h6.6049s1.9476-0.3387 1.8628-2.2862c0-0.84675-12.532-43.862-12.532-43.862-0.16935-0.76205-1.0161-1.6089-2.1168-1.6089h-9.8223c-1.8628 0-2.2016 1.6089-2.2016 1.7782 0 0-12.278 43.185-12.278 43.862 0.0847 1.6935 1.6088 2.0322 2.1168 2.1168zm16.935-35.648c0.0847-0.0847 0.25403-0.25402 0.3387-0.25402 0.16935 0 0.3387 0.16935 0.42337 0.25402l4.0644 16.935c0 0.0847 0 0.16935-0.0847 0.25403 0 0.0847-0.16935 0.0847-0.25402 0.0847h-8.2133c-0.0847 0-0.16935 0-0.25403-0.0847 0-0.0847-0.0847-0.16935 0-0.25403z"/>
 <path d="m407.9 604.04h11.093c0.50805 0 0.6774-0.50805 0.50805-0.76205l-9.7378-19.814c0-0.16935 0.16935-0.42337 0.25402-0.42337 6.9431-2.4556 8.2979-8.2979 8.2979-12.616 0-5.6734-2.1168-9.8223-6.0121-11.939-3.4716-1.8628-7.7056-2.1168-11.685-2.1168h-15.072c-0.16936 0-0.50806 0.16935-0.50806 0.50805v46.656c0 0.0847 0.16935 0.50805 0.50806 0.50805h10.076c0.42337-0.0847 0.59275-0.42337 0.59275-0.50805v-18.121c0-0.25402 0.0847-0.42337 0.3387-0.42337h1.9476c0.0847 0 0.25402 0.16935 0.3387 0.16935l8.552 18.544c0.0847 0.16935 0.25402 0.3387 0.50805 0.3387zm-11.685-39.035c0-0.0847 0.25403-0.3387 0.6774-0.3387 5.3346 0.0847 5.8424 0.0847 7.1972 0.59275 1.8628 0.76205 2.5402 2.0322 2.625 4.9958-0.0847 2.5402-0.0847 4.6572-3.133 5.7579-1.2702 0.42338-2.0322 0.42338-7.0282 0.42338-0.25402 0-0.3387-0.25403-0.3387-0.25403z"/>
 <path d="m454.83 604.04h8.383c0.3387-0.0847 0.59275-0.25402 0.59275-0.59275v-46.572c0-0.25403-0.25402-0.59276-0.59275-0.59276h-9.3145c-0.25402 0.0847-0.59275 0.42338-0.59275 0.59276v17.358c0 1.7781 0.16935 5.9275 0.16935 5.9275 0 0.42337-0.3387 0.50805-0.59275 0.16935-0.3387-0.6774-0.6774-1.3548-1.0161-1.9476l-11.939-21.761c-0.16935-0.16935-0.3387-0.3387-0.50805-0.3387h-9.8223c-0.25403 0-0.59276 0.25402-0.59276 0.59275v46.572c0 0.25402 0.25403 0.59275 0.59276 0.59275h9.3991c0.25402 0 0.59275-0.25402 0.59275-0.59275v-21.761c0-0.76205-0.16935-3.0483-0.16935-4.4031 0-0.25403 0.42337-0.50805 0.6774-0.16935 0.93145 2.2016 1.1854 2.7096 1.8628 4.0644l12.447 22.523c0.0847 0.16935 0.25402 0.3387 0.42337 0.3387z"/>
 <path d="m508.47 604.04c0.25402 0 0.59275-0.16935 0.59275-0.50805v-8.7217c0-0.25403-0.25402-0.50805-0.59275-0.59275h-21.508c-0.25403 0-0.3387-0.16935-0.3387-0.3387v-9.1449c0-0.16935 0.0847-0.3387 0.3387-0.3387h13.463c0.25402-0.0847 0.50805-0.25403 0.50805-0.59275v-8.4675c0-0.3387-0.16935-0.59276-0.50805-0.59276h-13.633c-0.16935 0-0.3387-0.0847-0.3387-0.25402v-8.1288c0-0.25403 0.16935-0.3387 0.3387-0.3387h20.237c0.3387 0 0.59275-0.25403 0.59275-0.59275v-8.4675c0-0.3387-0.25402-0.59276-0.59275-0.59276h-28.79c-1.6935 0-3.0483 1.2702-3.0483 2.9637v42.083c0 1.4394 1.5242 2.625 3.0483 2.625z"/>
 <path class="class1" d="m1070 420.78c2.53 4.253 4.65 8.638 6.65 13.289h-1076.8v-13.289z"/>
 <path class="class1" d="m1376 420.78v13.289h-198.81c2.53-4.517 4.92-8.904 7.18-13.289z"/>
 <path class="class1" d="m676 468.55h276.69s-92.783 108.22-221.11 201.5c40.082-174.33-55.577-201.5-55.577-201.5"/>
 <path class="class1" d="m1103 532.94c7.62-108.2-39.12-153.04-77.6-171.57v-13.97c4.07 10.414 13.72 20.447 36.2 20.447 5.59 0 10.03-0.635 13.84-1.143l2.8-0.381 11.55-1.397-0.51-11.811-0.76-16.51-0.76-14.477-14.22 2.54-1.4 0.254c-0.13 0-0.38 0-0.51 0.128v-5.208l170.3-51.815s-41.91 115.69-138.93 264.91"/>
 <path class="class1" d="m1219 150.49 220.76-150.49s-10.73 130.37-40.57 280.87c-56.51-115.58-180.19-130.38-180.19-130.38"/>
</svg>
