<svg xmlns="http://www.w3.org/2000/svg" width="317.2" height="171.22" viewBox="0 0 317.2 171.22"><defs><clipPath id="a"><path d="M-66.27-67.58h234V56.03h-234z"/></clipPath><clipPath id="b"><path d="M-120.08-64.76h234V58.85h-234z"/></clipPath><clipPath id="c"><path d="M-122.92-45.45h234V78.16h-234z"/></clipPath><clipPath id="d"><path d="M-175.32-85.97h234V37.64h-234z"/></clipPath><clipPath id="e"><path d="M-192.48-97.94h234V25.67h-234z"/></clipPath><clipPath id="f"><path d="M-211.47-97.06h234V26.55h-234z"/></clipPath><clipPath id="g"><path d="M-143.03-30.67h234V92.94h-234z"/></clipPath><clipPath id="h"><path d="M-165.77-46.28h234V77.33h-234z"/></clipPath><clipPath id="i"><path d="M-189.98-38.82h234V84.79h-234z"/></clipPath><clipPath id="j"><path d="M-230.63-43.18h234V80.43h-234z"/></clipPath><clipPath id="k"><path d="M-146.11-11.97h234v123.61h-234z"/></clipPath><clipPath id="l"><path d="M-155.08-18.22h234v123.61h-234z"/></clipPath><clipPath id="m"><path d="M-164.03-19.22h234v123.61h-234z"/></clipPath><clipPath id="n"><path d="M-175.21-9.28h234v123.61h-234z"/></clipPath><clipPath id="o"><path d="M-188.7-9.26h234v123.61h-234z"/></clipPath><clipPath id="p"><path d="M-207.47-11.97h234v123.61h-234z"/></clipPath><clipPath id="q"><path d="M-216.45-18.22h234v123.61h-234z"/></clipPath><clipPath id="r"><path d="M-228.25-10.37h234v123.61h-234z"/></clipPath><clipPath id="s"><path d="M-71.83-21.54h234v123.61h-234z"/></clipPath><clipPath id="t"><path d="M-92.83-33.93h234V89.68h-234z"/></clipPath><clipPath id="u"><path d="M-53.72-52.17h234V71.44h-234z"/></clipPath><clipPath id="v"><path d="M-91.27-34.39h234V89.22h-234z"/></clipPath><clipPath id="w"><path d="M-86.76-26.23h234V97.38h-234z"/></clipPath><clipPath id="x"><path d="M-58.49-21.01h234V102.6h-234z"/></clipPath><clipPath id="y"><path d="M-68.13-19.57h234v123.61h-234z"/></clipPath><clipPath id="z"><path d="M-26.34-46.25h234V77.36h-234z"/></clipPath><clipPath id="A"><path d="M-31.9-31.14h234V92.47h-234z"/></clipPath><clipPath id="B"><path d="M-42.25-40.85h234V82.76h-234z"/></clipPath><clipPath id="C"><path d="M-52.18-37.52h234V86.09h-234z"/></clipPath><clipPath id="D"><path d="M-60.76-42.98h234V80.63h-234z"/></clipPath><clipPath id="E"><path d="M-71.06-40.45h234V83.16h-234z"/></clipPath></defs><path fill="#fff" d="M0 0h317.2v171.22H0z"/><g fill="#1c576a"><path d="M0 0c-5.688.01-8.942 5.825-10.099 10.716 4.161 5.142 12.396 8.222 18.187 4.044C12.26 9.423 7.788-.31.733.015zm16.33 56.031c-15.443-.03-29.88-10.842-35.601-24.938-2.036-5.484-1.966-11.571-.418-17.167-11.234-9.898-22.412-22.133-23.85-37.74-1.91-15.443 8.166-30.444 21.57-37.364 16.292-7.55 35.83-8.11 52.515-1.448C40.02-58.524 48.784-51.665 53.6-42.41c-.688 1.723-2.79 7.109-4.15 2.531-6.08-9.547-16.02-16.308-26.594-19.97C7.6-64.207-9.26-58.219-20.426-47.478c-9.488 9.298-13.52 24.51-7.513 36.758C-25.32-4.88-21.183.111-16.687 4.603c3.15-6.41 8.346-13.17 16.172-13.2 12.307-.91 22.846 13.604 17.319 24.852-5.018 8.581-17.302 9.852-25.19 4.632-1.88-1.281-3.964-3.035-3.289.516-.181 10.15 6.64 19.24 14.787 24.636 6.652 3.971 16.565 6.154 22.68.087 4.022-5.089-.221-11.907-4.634-15.115-2.393-8.251 8.411-4.375 10.082.477 3.733 5.234 4.637 12.915.164 18.02-3.432 4.712-9.442 6.62-15.074 6.523z" clip-path="url(#a)" transform="matrix(1.3333 0 0 -1.3333 91.686 77.674)"/><path d="M0 0c2.848 1.048 5.11 3.364 6.715 5.884 1.74 2.983 3.15 6.155 4.352 9.389-.744-2.51-1.675-4.993-2.085-7.585 1.591-.384.629-2.485.387-3.723C7.769-.61 3.442-3.699-1.074-5.022c-4.31-1.36-9.224-1.981-13.404.138-2.245 1.05-4.132 2.877-5.148 5.148.56 2.134 3.134 1.467 4.318.29 1.284-.981 2.333-2.425 4.092-2.528 1.396-.23 2.997-.828 3.66.852 2.592 3.637 2.338 8.592.688 12.565-1.329 3.5-3.101 6.89-5.63 9.679-2.11-4.155-3.745-8.56-6.183-12.541-1.523-2.29-3.293-4.565-5.786-5.853-.635 1.085-2.127 1.354-1.204 2.69 2.448 7.048 7.544 12.8 10.006 19.84 3.783.573 7.6-1.193 9.998-4.094C-.835 15.654.543 7.944.068.811Q.038.406 0 0z" clip-path="url(#b)" transform="matrix(1.3333 0 0 -1.3333 163.436 81.434)"/><path d="M0 0c2.992 14.246 3.115 23.801 3.115 23.801-.06.628 2.693 4.617 4.048 7.877 1.295 3.113 1.966 6.321 2.201 9.549q.263.087.66.351.396.264.748.353.352-.09.66-.176.307-.09.528-.177.219-.089.528-.307.308-.222.441-.309.13-.087.439-.396.308-.309.396-.308.088-.705-.219-1.452-.31-.749-.308-.924 5.28 6.336 10.825 3.345 4.399-2.377 6.072-8.626 1.936-7.833-2.552-13.729 1.231.263 2.2 1.364c.646.733 1.655 1.715 2.007 2.478.351.762 9.775 15.234 9.497 14.128-2.521-10.024-6.107-15.946-7.456-17.882q-2.024-2.904-5.324-4.752a26.1 26.1 0 0 0-6.953-2.685q-3.652-.835-7.084.264-3.434 1.1-5.369 4.093 3.607-.97 6.557-.044 2.947.924 5.017 3.565a19.2 19.2 0 0 1 3.124 5.808q1.055 3.168.88 6.689-.178 3.519-1.76 6.16-4.842-1.937-8.098-6.073t-4.751-9.065q-1.5-4.928-2.773-11.001A241 241 0 0 1 5.139.346C4.553-3.32 2.282-10.13.869-13.802c-2.467-6.41-6.164-10.927-8.377-13.232-.891-.928 1.359 7.534.899 9.761-.074.357.213.623.368.954C-2.858-9.129-1.667-7.939 0 0" clip-path="url(#c)" transform="matrix(1.3333 0 0 -1.3333 167.226 107.184)"/><path d="M0 0c-1.98-5.024-3.84-10.333-3.571-15.813.141-2.93 1.395-5.952 3.922-7.598 2.236.283 3.473 2.415 4.256 4.303.93 2.159 1.461 4.456 2.048 6.723.832-.904.778-2.396 1.289-3.52.422-.932 1.978-.598 1.471-2.024.202-1.593-.588-2.971-1.453-4.24-1.507-2.398-4.12-4.367-7.079-4.126-3.39.068-6.24 2.42-7.896 5.234-2.464 3.774-3.262 8.56-2.097 12.918.345 1.492.933 2.911 1.63 4.27-1.108-.487-2.764-.303-3.593-.405-1.343-4.422-2.917-8.831-5.35-12.783-.57-1.91-2.375-1.437-3.902-1.77-.86.094-2.613-1.761-1.38-.29 2.397 3.877 3.965 8.2 5.488 12.48a21 21 0 0 1 1.08 7.257c1.454 1.053 3.487.024 4.334-1.163 2.497-.201 4.796 1.005 7.015 1.96A3.22 3.22 0 0 0 0 0z" clip-path="url(#d)" transform="matrix(1.3333 0 0 -1.3333 237.096 53.156)"/><path d="M0 0c-1.502-.29-4.322.117-3.934 2.209.84 1.675.273 4.567 2.683 4.719 1.948.032 2.79-2.384 2.737-4.019C1.383 1.816.931.646 0 0zm4.761-25.782c1.843 3.309 3.86 6.544 5.372 10.02-.64-1.19-.42-2.982-.73-4.412-.475-3.511-1.26-7.168-3.606-9.95-2.143-3.1-4.738-6.093-8.145-7.82-2.18-.987-4.82-.028-6.11 1.926-1.742 2.388-2.325 5.462-2.417 8.366.08 3.422 1.17 6.73 2.277 9.939 1.072 2.833 2.431 5.548 3.494 8.384 1.92-.211 4.55-.863 4.777-3.185-.061-2.786-1.758-5.185-2.919-7.622-1.324-2.69-2.95-5.386-3.262-8.423-.165-2.362 1.267-4.606 3.34-5.677 3.172 2.21 5.938 5.136 7.929 8.454z" clip-path="url(#e)" transform="matrix(1.3333 0 0 -1.3333 259.966 37.197)"/><path d="M0 0c.698.338 3.955 1.89 5.727 2.34 4.052 1.328 8.56 1.772 12.683.51 2.42-.591 5.12-3.292 2.924-5.648-1.332-1.648-3.13-1.873-4.516-.266-2.442 1.41-5.383.848-8.046.635C4.989-3.186 1.4-4.64-2.201-5.985c-1.066-5.384-2.37-10.741-2.923-16.214-.113-3.913-.668-8.197 1.499-11.694 1.74-1.875 5.047.103 6.089 2.033 1.27 1.915 1.989 4.808 4.598 5.269 2.902.457.783-3.715.132-5.16-1.25-2.082-3.261-3.553-4.818-5.39-2.956-1.366-6.961-1.733-9.322.944-2.924 3.353-3.505 8.03-3.797 12.306-.177 5.674.586 11.412 2.342 16.813.163 1.287-2.925.393-4.064 1.104-2.133-.287-4.446 3.686-2.054 4.153 2.446-.146 4.703-1.646 7.214-1.171 1.257 4.26 2.17 8.611 3.168 12.937 1.8.478 5.528.38 5.46-2.02C1.28 5.246 1.048 2.498 0 0z" clip-path="url(#f)" transform="matrix(1.3333 0 0 -1.3333 285.286 38.371)"/><path d="M0 0c0-2.672 1.452-2.739 3.135-2.739h.528v-.989c-1.683 0-3.333.132-5.016.132-1.815 0-3.596-.132-5.477-.132v.989h.528c.99 0 2.079.034 2.079 2.674v15.771c0 2.211-.628 2.607-2.211 2.607h-.396v.99c1.188 0 2.936-.133 4.619-.133 1.716 0 3.333.133 4.818.133 4.487 0 7.753-1.485 7.753-6.303 0-3.86-2.738-6.335-6.367-6.698-1.023-.066-1.881-.066-2.64-.066v.991h.693c2.672 0 3.893 2.374 3.893 5.641 0 3.168-1.583 5.247-4.982 5.247H0z" clip-path="url(#g)" transform="matrix(1.3333 0 0 -1.3333 194.036 126.884)"/><path d="M0 0h-.066l-3.069-9.338h6.171zm-4.818-14.617c-.329-1.122-.725-1.98-.725-2.574 0-.989 1.386-1.155 2.474-1.155h.363v-.989c-1.319.066-2.672.132-3.992.132-1.188 0-2.376-.066-3.564-.132v.989h.199c1.286 0 2.375.76 2.87 2.146l5.28 15.144C-1.484.165-.89 1.815-.693 3.036c1.056.362 2.376 1.023 3.003 1.418.099.034.165.067.264.067.098 0 .165 0 .23-.099.1-.264.199-.561.297-.826L9.173-13.66c.396-1.155.791-2.376 1.22-3.366.396-.924 1.089-1.32 2.178-1.32h.198v-.989c-1.484.066-2.969.132-4.553.132-1.617 0-3.267-.066-4.95-.132v.989h.363c.76 0 2.046.133 2.046.957 0 .43-.297 1.32-.66 2.376l-1.287 3.827h-7.49z" clip-path="url(#h)" transform="matrix(1.3333 0 0 -1.3333 224.356 106.074)"/><path d="M0 0h1.617c3.3 0 5.081 1.253 5.081 5.147 0 2.936-1.88 4.817-4.817 4.817C.89 9.964.462 9.865 0 9.833zm-4.223 7.655c0 2.408-1.32 2.508-2.343 2.508h-.594v.989c1.056 0 3.102-.132 5.114-.132 1.98 0 3.564.132 5.312.132 4.158 0 7.854-1.122 7.854-5.807 0-2.97-1.98-4.784-4.587-5.808l5.642-8.446c.924-1.386 1.584-1.782 3.201-1.98v-.99c-1.089 0-2.145.132-3.234.132-1.022 0-2.079-.132-3.101-.132C6.5-8.546 4.322-4.983 2.178-1.188H0v-7.061c0-2.541 1.188-2.64 2.706-2.64h.593v-.99c-1.881 0-3.794.132-5.674.132-1.585 0-3.135-.132-4.785-.132v.99h.594c1.22 0 2.343.561 2.343 1.782z" clip-path="url(#i)" transform="matrix(1.3333 0 0 -1.3333 256.636 116.014)"/><path d="M0 0c-.924 3.2-2.442 5.84-7.391 5.84-5.412 0-8.249-4.256-8.249-10.03 0-5.511 2.805-11.087 9.041-11.087 3.53 0 5.873 2.211 6.731 5.51l.924-.132c-.429-1.782-.661-3.564-.825-5.345-1.914-.825-4.52-1.485-7.556-1.485-7.424 0-12.934 4.059-12.934 12.34 0 7.392 5.972 11.681 12.769 11.681 3.86 0 5.114-1.188 8.216-1.65C.693 3.827.759 1.98.99.132z" clip-path="url(#j)" transform="matrix(1.3333 0 0 -1.3333 310.836 110.204)"/><path d="m0 0 .032.032v6.03c0 1.318-.917 1.511-1.399 1.511h-.354v.484c.756 0 1.495-.065 2.252-.065.659 0 1.318.065 1.977.065v-.484h-.241c-.675 0-1.431-.128-1.431-2.042v-7.316c0-.563.016-1.126.097-1.624H.321l-8.281 9.23V-.804c0-1.399.274-1.882 1.512-1.882h.273v-.482c-.692 0-1.383.065-2.074.065-.724 0-1.464-.065-2.187-.065v.482h.224c1.11 0 1.448.756 1.448 2.042v6.771c0 .9-.74 1.446-1.463 1.446h-.209v.484c.611 0 1.238-.065 1.849-.065.482 0 .949.065 1.431.065z" clip-path="url(#k)" transform="matrix(1.3333 0 0 -1.3333 198.136 151.824)"/><path d="M0 0h-.032l-1.496-4.55h3.007zm-2.348-7.123c-.161-.547-.354-.965-.354-1.255 0-.482.676-.563 1.206-.563h.177v-.482c-.643.032-1.303.064-1.945.064-.579 0-1.158-.032-1.737-.064v.482h.096c.628 0 1.158.37 1.399 1.046L-.933-.514c.209.595.498 1.399.595 1.993a8.4 8.4 0 0 1 1.464.692c.048.016.08.032.128.032s.081 0 .113-.049c.047-.128.096-.272.144-.401l2.96-8.411c.193-.562.385-1.157.594-1.64.193-.45.531-.643 1.062-.643h.096v-.482c-.724.032-1.447.064-2.219.064-.788 0-1.592-.032-2.412-.064v.482h.176c.37 0 .998.065.998.466 0 .209-.145.644-.322 1.158l-.627 1.866h-3.651z" clip-path="url(#l)" transform="matrix(1.3333 0 0 -1.3333 210.106 143.484)"/><path d="M0 0c-1.206 0-1.254-.289-1.495-1.463h-.483c.065.45.145.901.193 1.367.064.45.097.9.097 1.366h.386c.128-.482.531-.466.964-.466H7.96c.434 0 .836.016.868.499l.387-.065C9.15.804 9.085.37 9.038-.064c-.032-.434-.032-.869-.032-1.303l-.483-.177C8.491-.948 8.41 0 7.333 0H4.696v-8.555c0-1.238.562-1.383 1.334-1.383h.306v-.482c-.628 0-1.753.064-2.621.064-.965 0-2.09-.064-2.718-.064v.482h.306c.884 0 1.335.081 1.335 1.351V0z" clip-path="url(#m)" transform="matrix(1.3333 0 0 -1.3333 222.026 142.154)"/><path d="M0 0h.225c.579 0 1.189.081 1.189.917v8.426c0 .836-.61.916-1.189.916H0v.483c.627 0 1.592-.064 2.38-.064.804 0 1.769.064 2.524.064v-.483h-.225c-.579 0-1.19-.08-1.19-.916V.917C3.489.081 4.1 0 4.679 0h.225v-.482c-.771 0-1.736.064-2.541.064C1.576-.418.627-.482 0-.482z" clip-path="url(#n)" transform="matrix(1.3333 0 0 -1.3333 236.936 155.404)"/><path d="M0 0c3.12 0 3.667 2.75 3.667 5.098s-1.271 5.193-3.94 5.193c-2.815 0-3.651-2.508-3.651-4.663C-3.924 2.75-2.605 0 0 0m-.241 10.999c3.425 0 6.159-2.122 6.159-5.547 0-3.699-2.654-6.16-6.079-6.16-3.409 0-6.014 2.316-6.014 5.774 0 3.344 2.589 5.933 5.934 5.933" clip-path="url(#o)" transform="matrix(1.3333 0 0 -1.3333 254.926 155.424)"/><path d="m0 0 .032.032v6.03c0 1.318-.917 1.511-1.399 1.511h-.354v.484c.756 0 1.495-.065 2.252-.065.659 0 1.318.065 1.977.065v-.484h-.241c-.675 0-1.431-.128-1.431-2.042v-7.316c0-.563.016-1.126.096-1.624H.321l-8.281 9.23V-.804c0-1.399.274-1.882 1.512-1.882h.273v-.482c-.692 0-1.383.065-2.074.065-.724 0-1.464-.065-2.187-.065v.482h.224c1.11 0 1.448.756 1.448 2.042v6.771c0 .9-.74 1.446-1.464 1.446h-.208v.484c.611 0 1.238-.065 1.849-.065.482 0 .949.065 1.431.065z" clip-path="url(#p)" transform="matrix(1.3333 0 0 -1.3333 279.956 151.824)"/><path d="M0 0h-.032l-1.496-4.55h3.007zm-2.348-7.123c-.161-.547-.354-.965-.354-1.255 0-.482.676-.563 1.206-.563h.177v-.482c-.643.032-1.303.064-1.945.064-.579 0-1.158-.032-1.737-.064v.482h.096c.627 0 1.158.37 1.399 1.046L-.933-.514c.209.595.498 1.399.595 1.993a8.4 8.4 0 0 1 1.464.692c.048.016.08.032.128.032s.081 0 .113-.049c.047-.128.096-.272.144-.401l2.96-8.411c.193-.562.385-1.157.594-1.64.193-.45.531-.643 1.062-.643h.096v-.482c-.724.032-1.447.064-2.22.064-.787 0-1.591-.032-2.411-.064v.482h.176c.37 0 .998.065.998.466 0 .209-.145.644-.322 1.158l-.627 1.866h-3.651z" clip-path="url(#q)" transform="matrix(1.3333 0 0 -1.3333 291.926 143.484)"/><path d="M0 0c0-.643.45-.836.964-.901.66-.048 1.383-.048 2.123.033.676.08 1.254.466 1.544.868.257.354.402.804.499 1.158h.466C5.419.241 5.193-.659 5-1.576c-1.414 0-2.829.065-4.245.065s-2.83-.065-4.245-.065v.482h.226c.578 0 1.206.081 1.206 1.078v8.265c0 .836-.628.917-1.206.917h-.226v.482c.852 0 1.689-.064 2.541-.064.82 0 1.625.064 2.444.064v-.482h-.402C.482 9.166 0 9.15 0 8.297z" clip-path="url(#r)" transform="matrix(1.3333 0 0 -1.3333 307.666 153.944)"/></g><g fill="#7f3234" fill-rule="evenodd"><path d="m0 0 .115-.135.127.128C.126.129 0 0 0 0" clip-path="url(#s)" transform="matrix(1.3333 0 0 -1.3333 99.096 139.064)"/><path d="m0 0 .233-.273C.127.129.127.129 0 0" clip-path="url(#t)" transform="matrix(1.3333 0 0 -1.3333 127.106 122.544)"/><path d="m0 0-.01-.265.127.128z" clip-path="url(#u)" transform="matrix(1.3333 0 0 -1.3333 74.956 98.224)"/><path d="M0 0c.026.018.04-.09 0 0m-1.007.448c-.465.87 2.072.094 0 0m-.343 9.928c.644-.14-.11-.536 0 0m-1.815-1.158c-.15.067.19.095 0 0m7.693-7.544c-.105 1.87-1.864 1.46-1.722 4.03-.397 1.7.579 2.095-1.622 3.376-2.4.85-1.588 2.194-.678 2.413 1.195.789 2.314 3.422.273 3.215-.948.73-2.627 2.614-3.544.355-2.021-.166-.302-3.327-1.463-.716-.082.16-1.254 2.452.524 1.549-1.052 1.926-2.296-1.499-2.754 1.039-.516-2.264-3.045-.235-2.687-.686-1.228-.765-1.984-1.298-1.688.606-1.78 1.435.64.344-.275 2.25-.607-3.407-3.345 5.121-2.997.59-.95-.996 3.432-1.345.91-2.185-2.266-.773-2.045 2.748-3.752.769-.055-.566-2.037-1.582-2.41.158-1.669-1.073.622 2.008-.674 1.818-.123.465-.282 1.223 1.352.608.447 2.972-2.685-.448-2.847.843-1.34-1.195 2.327-1.675.39-1.802.937-2.025-2.238-3.217-2.353-1.626-.054-.697-3.181-1.436-2.42.097.825.058 1.233 2.503 2.957 1.47 1.8 1.34-.146 1.753-.528 2.273.215-.175-2.265-3.067-2.728-1.17-.796-.405-.54-1.648-1.931-2.285-1.923.232-2.643-1.872-4.57-.81-.016-.931-2.306-.104-3.2-.357-14.07.05-28.15.138-42.214.09-6.997.217-12.7-6.174-13-12.916-.767-6.86 3.93-14.777 11.3-15.16 11.549-.075 23.097-.237 34.645-.405-.293-.701 3.63.83 1.917-.603.601-1.46 1.82-1.905.755-2.81 1.4.038 3.003-.253 3.438 1.45-2.457-1.921-5.896 2.663-1.533 1.143 1.852-1.004 5.704 1.041 3.236-.912-2.697 1.225-.175-3.853.94-.865-.535 1.355 4.122-.606 4.59 1.469.724 1.466 2.485.672 3.176 1.13.472-.613 1.31.64.504-1.61-1.129.14-2.532 2.778-2.07-.313.57-1.526 1.307 1.034.94-.833.444 2.32 2.635-1.844.96-.305-.912-.805-2.076 1.06-2.898 1.179-.862-1.456-1.315-.567.288-1.368 1.443.367 1.086-2.572 1.739-.434.171-2.128 2.28.597 3.487-.802 2.738 1.921-3.225.39-.368 2.083.6 1.469-2.449 2.78.158 2.043 1.546-.683.352-3.011 1.68-3.656.766 1.305-.905 2.947.186 3.762.693.499 2.789.39 3.064-.715 1.278.126 2.309-1.272 2.618-1.43 1.317-.027 3.25-1.235 2.919-3.158.889 2.17 3.07-1.801 3.3.794-1.06.415-3.01 1.275-3.908 2.671.525-1.475-.853.9.403 1.173-2.345.719.79.993 2.093.81 1.322.31-.476-1.3.969-2.04.895-.486 1.627-.228 1.81-1.48.27.81 2.894.118 1.47-1.316.85-1.275 2.03 1.45 3.22.203-1.035 1.023-.062 2.242-1.114 2.956-.269-1.62-2.065-2.008-1.702-.196-.666-.647-1.196-.86-2.06-.05.53.68 1.146 1.267 1.603.86 2.1.582.116 2.669-.572.952.572 2.06-1.849.18-1.381 2.17-1.693-.984-.768 2.21.518 1.04-.784-.138 1.23-2.21.834-.431.047 1.326 1.772 2.714 1.344.343 1.24.026 1.595-.578 1.928-1.582.4 1.493 2.626.758 2.2 1.944 1.375.946.397 3.134 1.418 3.793.482-2.2 3.235 1.404 1.347 2.635 1.953.658.244 1.909 2.36.94.01-2.847 1.9.805.48.88C.2 2.658 3.506 1.766 4.529 1.675z" clip-path="url(#v)" transform="matrix(1.3333 0 0 -1.3333 125.026 121.934)"/><path d="M0 0c.126.129.126.129.01.266L-.117.137z" clip-path="url(#w)" transform="matrix(1.3333 0 0 -1.3333 119.006 132.804)"/><path d="m0 0 .117-.138.482-.019-.232.273C.241-.012.124.126 0 0" clip-path="url(#x)" transform="matrix(1.3333 0 0 -1.3333 81.316 139.764)"/><path d="m0 0 .464-.546c.126.127.371.115.495.242l.232-.274C.95-.566.824-.694.824-.694l-.267-.78-.232.273c-.128-.13-.368-.121-.612-.109-.006-.266.109-.401.109-.401l.242-.011c.115-.136.11-.402.11-.402l.24-.01c-.117.136-.235.276-.109.403.252.257.359-.149.474-.284.244-.008.368.119.61.105-.108.404-.098.667-.088.931.116-.136.116-.136.481-.017l.126.128c.126.127.368.118.494.245.016.524-.091.929-.439 1.338-.246.011-.361.147-.6.157.115-.136.106-.398.225-.538-.126-.128-.245.012-.37-.115-.105.399-.105.399-.349.41C.385.647-.107.4-.6.158c.118-.139.234-.275.226-.537z" clip-path="url(#y)" transform="matrix(1.3333 0 0 -1.3333 94.166 141.694)"/></g><g fill="#fff"><path d="M0 0c0-.644-.4-1.222-1.089-1.222-.666 0-.666 1.111-1.488 1.111-.778 0-.822-.933-.822-1.466v-4.022h2.488v-1.244h-2.488v-7.243c0-.511.155-.822 1.288-.822h.734v-.666c-1.156.044-2.178.089-3.288.089-1.756-.023-2.244-.067-2.8-.089v.666c1.044 0 1.578-.111 1.578.822v7.243h-1.578v.4c.577.267 1.067.578 1.578.889v1.622c0 1.488.711 2.821 1.755 3.821C-3.266.711-2.488 1.4-1.533 1.4-.644 1.4 0 1.044 0 0" clip-path="url(#z)" transform="matrix(1.3333 0 0 -1.3333 38.453 106.114)"/><path d="M0 0c1.667 0 2.51 1.377 2.51 4.11 0 1.645-.532 4.932-2.71 4.932-1.866 0-2.533-1.755-2.533-4.532C-2.733 1.822-1.755 0 0 0m5.221 4.665C5.221 1.666 2.888-.8-.133-.8c-3.088 0-5.31 2.222-5.31 5.332 0 3.066 2.266 5.31 5.31 5.31 3.288 0 5.354-2.133 5.354-5.177" clip-path="url(#A)" transform="matrix(1.3333 0 0 -1.3333 45.858 126.254)"/><path d="M0 0v-1.532h.044C.666-.578 1.644.133 2.599.133c.756 0 1.423-.355 1.423-1.31 0-.845-.556-1.311-1.245-1.311-.866 0-.866.844-1.555.844C.666-1.644 0-2.088 0-3.155V-9.02c0-.289.222-.489 1.155-.489h.822v-.666c-.644 0-2.021.089-3.177.089-1.133 0-2.088-.089-2.732-.089v.666h.244c.978 0 1.2.178 1.2.644v6.044c0 .622-.156.888-.578.955l-.822.155v.534c1.089.199 2.355.711 3.644 1.31z" clip-path="url(#B)" transform="matrix(1.3333 0 0 -1.3333 59.661 113.314)"/><path d="M0 0c1.111 0 1.356 0 1.356.8 0 .888-.556 1.866-1.578 1.866-.933 0-1.977-.711-2.333-2.666zm-.933 9.131H.444l2.777-3.71h-.777L-.244 7.709l-2.711-2.288h-.733zm4.599-9.42v-.133L3.4-.666h-5.999c0-2.734 1.377-4.511 3.443-4.511 1.044 0 1.934.4 2.645 1.2l.354-.422c-1.044-1.8-2.621-2.777-4.287-2.777-2.6 0-4.288 2.354-4.288 5.11 0 2.932 1.999 5.532 4.91 5.532 2.155 0 3.488-1.533 3.488-3.755" clip-path="url(#C)" transform="matrix(1.3333 0 0 -1.3333 72.902 117.754)"/><path d="M0 0v-2.333h2.644v-1.244H0v-6.109c0-.822.467-1.178 1.177-1.178.534 0 .889.134 1.311.4l.289-.378c-.822-1.066-1.755-1.799-3.021-1.799-1.511 0-2.244.866-2.244 2.266v6.798h-1.333v.533C-2.622-2.399-1.245-1.11-.267.133z" clip-path="url(#D)" transform="matrix(1.3333 0 0 -1.3333 84.336 110.474)"/><path d="M0 0c-.089-.889-.089-1.911-.044-2.355l-.623-.112c-.111 1.245-.578 2.2-2 2.2-.755 0-1.51-.466-1.51-1.333 0-2.422 4.599-1.844 4.599-5.265 0-2.111-1.599-3.244-3.777-3.244-1.067 0-1.866.311-2.621.578l-.201 2.466.622.133c.156-1.4 1.001-2.377 2.178-2.377.867 0 1.666.489 1.666 1.466 0 2.133-4.466 1.778-4.466 5.199 0 1.889 1.444 3.177 3.555 3.177C-1.689.533-.889.333 0 0" clip-path="url(#E)" transform="matrix(1.3333 0 0 -1.3333 98.076 113.844)"/></g></svg>