<svg xmlns="http://www.w3.org/2000/svg" width="145.104" height="160.511" viewBox="0 0 38.392 42.469"><defs><clipPath id="a"><path d="M412 437.328h75.973V513H412Zm0 0"/></clipPath><path id="b" d="M4.532 107.953h101.361v14.284H4.532z"/></defs><g transform="translate(-91.407 -113.257)"><path d="m129.021 136.23.001.021.093-.077z" style="fill:#28215c;fill-opacity:1;fill-rule:nonzero;stroke:none;stroke-width:.505794"/><g clip-path="url(#a)" style="clip-rule:nonzero" transform="translate(-117.08 -107.94)scale(.5058)"><path d="m485.938 437.488.027-.117.015-.027c0 .011.024-.012.036.074-.028.074-.06.07-.075.07zm.03-.136.009-.012zm1.41.601a2 2 0 0 0-1.44-.625h-71.524c-.562 0-1.074.242-1.441.625a2.15 2.15 0 0 0-.594 1.492v71.367c0 .583.226 1.11.594 1.493.367.382.879.62 1.445.62h71.52c.562 0 1.074-.238 1.44-.62.352-.368.575-.864.595-1.414h.004v-71.446c0-.582-.23-1.11-.598-1.492" style="fill:#fff;fill-opacity:1;fill-rule:nonzero;stroke:none"/><path d="m485.969 437.348.004-.008zm-.031.14h.004c.015 0 .046.004.074-.07-.008-.086-.035-.063-.035-.074l-.016.027zm-72.735.688a1.84 1.84 0 0 0-.504 1.27v71.363c0 .5.196.949.504 1.273.313.324.738.523 1.215.523h71.52c.472 0 .898-.199 1.21-.523.313-.324.504-.773.504-1.273v-71.364c0-.496-.191-.945-.504-1.27a1.66 1.66 0 0 0-1.21-.523h-71.52c-.477 0-.902.196-1.215.524m1.215 74.75a2 2 0 0 1-1.445-.621 2.16 2.16 0 0 1-.594-1.496v-71.364c0-.582.227-1.11.594-1.492a2 2 0 0 1 1.445-.625h71.52c.562 0 1.074.242 1.441.625s.594.91.594 1.492v71.446a2.15 2.15 0 0 1-.594 1.414 2 2 0 0 1-1.441.62zm0 0" style="fill:#286199;fill-opacity:1;fill-rule:nonzero;stroke:none"/></g><path d="m99.03 146.91-.51 1.648h-.562l-.336-1.11-.33 1.11h-.567l-.505-1.648h.553l.282 1.136.352-1.136h.468l.334 1.136.279-1.136zM101.971 146.91l-.51 1.648h-.56l-.337-1.11-.33 1.11h-.567l-.506-1.648h.554l.282 1.136.352-1.136h.468l.334 1.136.279-1.136zM104.913 146.91l-.51 1.648h-.559l-.336-1.11-.332 1.11h-.567l-.506-1.648h.554l.284 1.136.35-1.136h.468l.334 1.136.279-1.136zM105.796 148.558h-.547v-.577h.547zM107.412 147.523q-.006-.165-.083-.25-.077-.083-.24-.084a.4.4 0 0 0-.252.079q-.098.08-.11.255zm.524.31h-1.207a.38.38 0 0 0 .146.296q.135.101.4.101.168 0 .325-.059.157-.06.247-.128h.06v.422q-.181.072-.339.105a1.7 1.7 0 0 1-.35.032q-.496.001-.76-.224-.264-.223-.265-.634.001-.407.251-.646t.686-.239q.403.001.604.204.202.204.202.584zM109.167 148.602q-.217.001-.393-.052a.9.9 0 0 1-.31-.158.75.75 0 0 1-.204-.268 1 1 0 0 1-.071-.382q0-.23.077-.399a.74.74 0 0 1 .215-.276.9.9 0 0 1 .308-.153 1.3 1.3 0 0 1 .672-.011q.142.035.267.094v.45h-.075l-.073-.06a.66.66 0 0 0-.405-.144.4.4 0 0 0-.326.134.55.55 0 0 0-.113.365q.001.238.116.36.116.124.33.124a.653.653 0 0 0 .312-.077 1 1 0 0 0 .087-.06l.072-.064h.075v.45q-.125.058-.261.093-.136.033-.3.034M111.11 148.135a.4.4 0 0 0 .078-.152 1 1 0 0 0 .026-.245 1 1 0 0 0-.028-.243.4.4 0 0 0-.073-.158.3.3 0 0 0-.113-.085.4.4 0 0 0-.142-.024.4.4 0 0 0-.136.02.3.3 0 0 0-.113.083.4.4 0 0 0-.077.156 1 1 0 0 0-.028.251q0 .136.024.233.026.102.073.16.047.057.112.083a.4.4 0 0 0 .287.002.26.26 0 0 0 .11-.08m.65-.402q0 .409-.236.642-.237.233-.666.234-.427-.002-.666-.234-.235-.233-.235-.642 0-.406.237-.642.24-.232.664-.233.432.001.666.235c.158.156.237.372.237.64M112.668 148.558h-.53v-2.282h.53zM114.163 148.127v-.341q-.109.01-.233.023-.125.015-.187.036a.3.3 0 0 0-.123.073.18.18 0 0 0-.041.124q.001.051.007.083a.15.15 0 0 0 .045.062q.034.029.081.043a.52.52 0 0 0 .45-.102m0 .257-.106.077a.743.743 0 0 1-.462.14.56.56 0 0 1-.394-.144.48.48 0 0 1-.16-.372q0-.181.081-.294a.54.54 0 0 1 .23-.18 1.2 1.2 0 0 1 .363-.095q.217-.027.45-.041v-.01q0-.135-.112-.189a.8.8 0 0 0-.328-.051 1 1 0 0 0-.279.045l-.213.071h-.047v-.397a3.2 3.2 0 0 1 .65-.083q.45.001.65.14.2.138.2.435v1.12h-.522zM116.347 147.722a.64.64 0 0 0-.076-.337q-.074-.12-.266-.119-.075 0-.152.024a.6.6 0 0 0-.152.063v.826a.6.6 0 0 0 .108.03q.051.005.123.005.21 0 .312-.122t.103-.37m.543-.01q0 .39-.213.633a.68.68 0 0 1-.536.245 1 1 0 0 1-.243-.03.8.8 0 0 1-.197-.085l-.022.083h-.508v-2.282h.53v.806q.12-.095.248-.156a.7.7 0 0 1 .293-.061q.31 0 .48.225.169.226.168.622M118.37 147.523q-.006-.165-.083-.25-.078-.083-.243-.084-.151.001-.251.079-.097.08-.109.255zm.523.31h-1.209q.013.193.148.296.136.101.4.101.168 0 .325-.059.157-.06.247-.128h.06v.422q-.181.072-.338.105a1.8 1.8 0 0 1-.352.032q-.495.001-.759-.224-.263-.223-.264-.634.001-.407.25-.646.25-.24.686-.239.403.001.605.204.201.204.201.584zM119.796 148.558h-.53v-2.282h.53zM120.861 148.558h-.55v-.577h.55zM122.475 147.523q-.006-.165-.08-.25-.08-.083-.244-.084a.4.4 0 0 0-.25.079q-.099.08-.111.255zm.526.31h-1.21a.38.38 0 0 0 .149.296q.134.101.4.101.165 0 .323-.059a1 1 0 0 0 .247-.128h.06v.422a2 2 0 0 1-.339.105 1.7 1.7 0 0 1-.35.032q-.494.001-.76-.224-.263-.223-.263-.634 0-.407.251-.646.248-.24.684-.239.403.001.604.204.205.204.204.584zM125.014 148.558h-.53v-.182q-.147.11-.268.17a.7.7 0 0 1-.288.058q-.273-.001-.421-.156-.148-.157-.146-.465v-1.073h.529v.818q-.001.125.007.208.007.082.038.136a.16.16 0 0 0 .083.08q.056.025.158.025a.63.63 0 0 0 .308-.099v-1.168h.53zm0 0" style="fill:#4fa630;fill-opacity:1;fill-rule:nonzero;stroke:none;stroke-width:.505794"/><path d="M98.016 145.338v-9.522h2.667v.755h-1.925v4.005h1.17v.755h-1.17v3.252h1.925v.755zM103.494 141.003v-1.083q0-.244-.172-.415a.56.56 0 0 0-.416-.17.57.57 0 0 0-.42.17.56.56 0 0 0-.171.415v4.163q-.002.244.172.415.17.171.419.17a.56.56 0 0 0 .416-.17.56.56 0 0 0 .172-.415v-.998h.743v.998q.001.281-.103.524-.104.245-.284.426a1.31 1.31 0 0 1-.945.39 1.31 1.31 0 0 1-1.23-.816 1.3 1.3 0 0 1-.105-.524v-4.163q0-.281.105-.523.1-.246.284-.427a1.31 1.31 0 0 1 .946-.39 1.3 1.3 0 0 1 .945.39 1.32 1.32 0 0 1 .387.95v1.083zM107.246 139.92q0-.244-.174-.415a.57.57 0 0 0-.417-.17.58.58 0 0 0-.418.17.56.56 0 0 0-.172.415v4.165q0 .243.172.413a.57.57 0 0 0 .419.17.56.56 0 0 0 .416-.17.56.56 0 0 0 .174-.413zm.741 4.165q.001.279-.103.522a1.325 1.325 0 0 1-.707.713q-.243.103-.522.103a1.31 1.31 0 0 1-.946-.39 1.32 1.32 0 0 1-.387-.948v-4.165q-.001-.281.103-.523.104-.245.284-.427a1.31 1.31 0 0 1 .946-.39 1.31 1.31 0 0 1 1.23.817q.102.242.102.523zM109.815 145.338h-.743v-9.51h.743zM111.642 144.083q-.001.244.172.415.172.171.417.17a.57.57 0 0 0 .419-.17.56.56 0 0 0 .172-.415v-1.995q0-.243-.172-.415a.57.57 0 0 0-.419-.17.57.57 0 0 0-.417.17.56.56 0 0 0-.172.415zm1.18 1.207q-.134.06-.273.097a1.3 1.3 0 0 1-.312.036 1.33 1.33 0 0 1-1.34-1.34v-1.996q0-.28.105-.523.104-.244.287-.427a1.31 1.31 0 0 1 .948-.39q.173 0 .324.042.151.045.26.091v-.96q0-.244-.171-.415a.57.57 0 0 0-.419-.17.57.57 0 0 0-.417.17.56.56 0 0 0-.172.415v.328h-.745v-.328q0-.281.105-.524c.07-.164.162-.306.285-.426a1.31 1.31 0 0 1 .944-.39 1.31 1.31 0 0 1 .946.39 1.32 1.32 0 0 1 .388.95v5.417h-.743zM116.4 139.505a.57.57 0 0 0-.417-.17.58.58 0 0 0-.419.17.56.56 0 0 0-.172.415v4.163q0 .244.172.415a.57.57 0 0 0 .42.17.56.56 0 0 0 .416-.17.56.56 0 0 0 .174-.415v-4.163q-.001-.243-.174-.415m-.747-.883q.151-.041.324-.041a1.33 1.33 0 0 1 1.34 1.34v4.162q0 .281-.105.524-.104.244-.287.427-.18.183-.424.286a1.33 1.33 0 0 1-.836.067 2 2 0 0 1-.273-.097v.048h-.743v-9.51h.743v2.885q.11-.047.261-.09M119.142 141.746h1.182v-1.826q0-.243-.172-.415a.58.58 0 0 0-.419-.17.58.58 0 0 0-.419.17.56.56 0 0 0-.172.415zm-.743-1.826a1.33 1.33 0 0 1 .813-1.237q.242-.103.521-.102a1.3 1.3 0 0 1 .946.389q.181.184.285.425.102.244.103.525v2.58h-1.925v1.583q0 .244.172.415a.57.57 0 0 0 .42.17.57.57 0 0 0 .418-.17.56.56 0 0 0 .172-.415v-.498h.743v.498q-.001.281-.103.526a1.34 1.34 0 0 1-.71.71q-.242.105-.52.104a1.31 1.31 0 0 1-.947-.39 1.34 1.34 0 0 1-.388-.95zM122.892 145.338h-.74v-9.51h.74zm0 0" style="fill:#286199;fill-opacity:1;fill-rule:nonzero;stroke:none;stroke-width:.505794"/><path d="M100.24 135.406H98.06v-3.312h2.181v.391H98.5v.91h1.74v.39H98.5v1.23h1.74zM103.433 134.076q0 .36-.079.628a1.01 1.01 0 0 1-.66.694q-.228.076-.533.077-.312 0-.544-.081a1.02 1.02 0 0 1-.648-.684 2.2 2.2 0 0 1-.079-.634v-1.982h.44v2.004q0 .27.037.424.038.157.124.285a.6.6 0 0 0 .265.217q.168.072.405.073a1 1 0 0 0 .405-.073q.166-.071.267-.217a.8.8 0 0 0 .122-.29q.038-.166.038-.408v-2.015h.44zM113.624 119.686a2.43 2.43 0 1 0-1.727 4.495c.174.04.32-.067.362-.24.04-.177-.04-.358-.214-.4a1.777 1.777 0 0 1-1.344-2.049l1.305.498c.166.065.326-.02.391-.187.063-.168.007-.354-.158-.42l-1.302-.5a1.775 1.775 0 0 1 2.146-.726c.077.031.158.06.229.1.156.087.326.024.413-.134.085-.158.055-.35-.101-.436M110.577 129.913c-.083 1.956-.792 1.49-.691 4.898-.308-2.093.024-2.377.502-4.226-.542 1.657-.816 1.533-.603 4.287-.136.148.034.737-.494.468-.434-.723-.419-1.902.731-6.117.04-.175.603-.472.555.69M105.448 132.173c.33 0 1.387-.14 2.031.31.405.285.757.536.866.706.095.148.148.324.215.458.067.136-.47.136-.757.136-.42 0-1.657-1.61-2.355-1.61M108.736 131.794c.136.243.109.541-.176.405-.355-.168-.907-.405-1.164-.567-1.385-.875-3.3-5.088-5.235-5.588.351-.014.608-.027.893.028.345.065 5.425 2.746 5.682 5.722M111.334 132.321c-1.055-1.434 2.043-3.435 5.398-2.11-.378.028-1.067-.014-1.419.162.107.162.852.218 1.528.27-.216-.12-.297-.187-.487-.214 1.083-.123 1.72.541 2.42.729-.363.027-.608.027-.7.027.01.056.039.042.106.123-.365-.15-1.664-.056-2.124.067-.46.122-.743.014-1.041.028.053.067.122.08.162.148-.5-.123-1.624-.028-2.395.352a.7.7 0 0 1 .216-.19c-.704.162-1.46.73-1.664.608M110.82 133.716c0-.446.921-.608 1.273-.69s1.094-.302 1.717-.311c.84-.015 2.218.217 2.843.73-.299-.108-1.002-.325-1.367-.284.094.067.108.095.122.136 0 0-.259 0-.38.107.096-.028.623.028.852.041-.257.054-1.082.19-1.258.244.108.04.162.067.229.108-.595.053-1.974.717-2.543.731-.567.015-1.488-.027-1.488-.812" style="fill:#4fa630;fill-opacity:1;fill-rule:nonzero;stroke:none;stroke-width:.505794"/><path d="m112.711 116.195.532-.385h-.658l-.204-.624-.201.624h-.658l.531.385-.203.627.531-.388.532.388zM115.687 116.954l.531-.385h-.656l-.203-.627-.204.627h-.656l.532.385-.204.624.532-.385.531.385zM117.771 119.2l.532-.387h-.658l-.202-.624-.203.624h-.658l.531.387-.201.625.531-.386.53.386zM109.732 116.954l.531-.385h-.656l-.203-.627-.204.627h-.656l.532.385-.204.624.532-.385.531.385zM107.65 119.2l.53-.387h-.657l-.204-.624-.201.624h-.658l.531.387-.203.625.531-.388.532.388zM118.502 122.014l.532-.385h-.658l-.204-.627-.201.627h-.658l.531.385-.203.624.531-.385.532.385zM117.688 124.94l.532-.385h-.656l-.204-.625-.203.625h-.656l.531.385-.203.624.531-.385.532.385zM115.537 127.04l.529-.385h-.656l-.203-.624-.202.624h-.658l.532.385-.204.624.532-.385.531.386zM107.73 124.94l.532-.385h-.656l-.204-.625-.203.625h-.656l.531.385-.203.624.531-.385.532.385zM109.884 127.04l.531-.385h-.658l-.203-.626-.202.626h-.656l.53.385-.202.624.532-.385.531.386zM106.918 122.014l.532-.385h-.658l-.204-.627-.201.627h-.656l.53.385-.202.624.531-.385.532.385zM112.711 127.894l.532-.386h-.658l-.204-.624-.201.624h-.658l.531.386-.203.624.531-.385.532.385zm0 0" style="fill:#286199;fill-opacity:1;fill-rule:nonzero;stroke:none;stroke-width:.505794"/><rect width="38.267" height="4.014" x="91.469" y="151.649" ry=".676" style="fill:#fff;stroke:#286199;stroke-width:.125439;stroke-dasharray:none;stroke-opacity:1"/><text xml:space="preserve" style="font-style:normal;font-variant:normal;font-weight:400;font-stretch:normal;font-size:8px;font-family:sans-serif;-inkscape-font-specification:&quot;sans-serif, Normal&quot;;font-variant-ligatures:normal;font-variant-caps:normal;font-variant-numeric:normal;font-variant-east-asian:normal;text-align:start;writing-mode:lr-tb;direction:ltr;white-space:pre;shape-inside:url(#b);fill:#286199;fill-opacity:1;stroke:none;stroke-width:.377953;stroke-dasharray:none;stroke-opacity:1" transform="translate(90.488 111.07)scale(.37935)"><tspan x="4.533" y="115.232">EU Ecolabel :  FR/051/480</tspan></text></g></svg>